<?xml version="1.0" encoding="utf-8"?>
<!-- Generator: Adobe Illustrator 16.0.0, SVG Export Plug-In . SVG Version: 6.00 Build 0)  -->
<!DOCTYPE svg PUBLIC "-//W3C//DTD SVG 1.1//EN" "http://www.w3.org/Graphics/SVG/1.1/DTD/svg11.dtd">
<svg version="1.1" id="Calque_1" xmlns="http://www.w3.org/2000/svg" xmlns:xlink="http://www.w3.org/1999/xlink" x="0px" y="0px"
	 width="737.037px" height="722.222px" viewBox="0 0 737.037 722.222" enable-background="new 0 0 737.037 722.222"
	 xml:space="preserve">
<path fill-rule="evenodd" clip-rule="evenodd" fill="none" stroke="#FFFFFF" stroke-miterlimit="10" d="M217.513,452.841
	c-2.769-3.234-6.294-5.587-9.969-7.512c-3.647-1.919-3.284-4.833-3.039-7.951c0.21-2.659-0.129-5.251,3.963-5.759
	c2.674-0.33,2.636-4.074,3.063-6.045c1.029-4.739,2.122-9.86-1.088-14.436c-0.542-0.764-0.928-1.91-1.663-2.225
	c-5.017-2.153-2.871-5.035-1.075-8.074c0.878-1.491,3.105-2.391,2.265-5.252c-3.199,3.325-5.692,1.713-8.212-0.62
	c-0.952-0.886-2.468-2.108-3.427-1.885c-4.736,1.096-6.941-1.407-8.601-5.191c-0.388-0.899-1.438-1.188-2.376-1.379
	c-5.37-1.083-9.22-4.923-13.715-7.585c-0.812-0.477-1.33-1.691-1.68-2.673c-3.049-8.488-8.52-15.22-15.122-21.169
	c-3.815-3.436-4.092-8.018-0.92-12.076c1.159-1.486,2.321-2.991,3.276-4.614c2.223-3.765,1.593-5.541-2.503-7.465
	c-1.34-0.63-2.758-1.101-4.078-1.773c-2.604-1.323-4.54-2.854-1.502-5.737c1.155-1.094,0.949-2.632,0.192-3.715
	c-0.836-1.192-1.963,0.026-2.898,0.317c-1.19,0.376-2.248,0.64-3.5,0.096c-5.132-2.249-9.472-5.347-12.343-10.333
	c-1.064-1.86-0.773-3.249,0.417-4.791c1.418-1.839,3.144-4.577,2.185-6.124c-1.155-1.866-4.414-1.157-6.725-0.947
	c-2.786,0.252-5.597,0.837-8.25,1.708c-2.415,0.794-4.158,0.404-5.727-1.507c-2.055-2.497-4.729-3.876-7.907-4.529
	c-4.32-0.889-8.156-2.8-11.191-6.112c-2.8-3.061-6.83-2.966-10.403-3.918c-2.916-0.777-5.485-1.782-7.852-3.83
	c-3.154-2.73-7.277-3.523-11.349-3.71c-4.106-0.189-7.687-1.048-10.084-4.755c-0.749-1.166-1.649-2.044-3.326-1.09
	c-1.466,0.83-3.189,0.35-4.781,0.163c-1.659-0.196-2.766,0.429-3.836,1.668c-2.958,3.429-9.935,4.19-13.501,1.623
	c-1.246-0.9-1.39-2.167-1.501-3.562c-0.592-7.325-2.674-9.771-9.875-11.926c-2.198-0.658-4.358-1.442-6.539-2.151
	c-1.6-0.52-2.5-1.502-2.398-3.275c0.095-1.682,1.18-2.296,2.611-2.607c5.923-1.274,11.811-2.809,17.793-3.71
	c2.961-0.452,2.636-1.67,1.68-3.41c-1.138-2.072-6.396-2.862-8.237-1.372c-3.462,2.786-4.879,2.42-5.408-1.964
	c-0.35-2.924-4.512-4.104-3.098-7.745c0.175-0.453-1.876-0.448-2.909-0.483c-6.266-0.198-6.756-0.49-6.381-6.826
	c0.287-4.867-1.257-10.592,4.124-13.806c4.025-2.412,8.38-4.281,12.633-6.299c2.314-1.099,4.711-2.004,7.082-2.993
	c0.497-0.203,1.109-0.67,1.491-0.532c6.924,2.59,12.514-2.209,18.748-3.362c2.356-0.434,4.232-0.205,5.5,2.128
	c0.763,1.407,1.873,2.1,2.968,0.236c1.711-2.907,4.337-2.771,7.113-2.254c1.453,0.271,2.909,0.63,4.382,0.752
	c2.566,0.212,5.037,0.644,3.378-3.66c-1.211-3.147,3.662-7.475,7.148-6.423c3.462,1.045,6.399,0.518,9.679-0.794
	c3.322-1.329,7.022-1.7,10.543-2.524c1.235-0.291,2.279,0.128,2.797,1.12c3.168,6.093,9.637,9.381,12.85,15.516
	c1.747,3.334,3.175,6.991,7.029,9.1c1.925,1.055,2.765,1.241,4.382-0.03c4.127-3.266,8.359-6.343,13.4-8.212
	c3.668-1.358,6.703-1.679,9.069,2.17c1.113,1.801,1.705,2.365,4.267,0.368c4.561-3.56,10.372-5.565,16.462-5.615
	c1.988-0.014,2.835,1.463,2.688,3.324c-0.196,2.458,1.141,2.718,3.182,2.938c4.726,0.508,8.943-1.766,13.603-1.981
	c-0.045-0.494,0.063-1.061-0.14-1.213c-6.553-4.857-5.37-11.886-4.984-18.533c0.129-2.314,0.396-4.591-0.238-6.784
	c-2.016-6.941-0.494-14.693-4.873-21.08c-1.145-1.668-1.897-3.826-3.417-4.974c-7.382-5.571-6.85-13.708-7.316-21.512
	c-0.14-2.334,0.179-4.466-2.678-5.611c-3.063-1.23-1.978-3.767-1.082-5.871c1.033-2.436,2.713-2.163,4.984-1.292
	c3.889,1.49,7.946,2.664,12.028,3.485c3.301,0.663,6.556,0.287,9.7-1.633c4.946-3.023,12.944-0.632,14.688,3.924
	c0.641,1.665,0.563,3.142-0.129,4.68c-1.946,4.314-1.711,8.224,1.806,11.772c1.498,1.508,2.745,3.316,3.284,5.851
	c1.845-2.741,4.354-2.958,6.731-2.319c10.218,2.755,20.744,3.243,31.165,4.554c2.244,0.285,4.624,0.773,6.591,1.825
	c5.811,3.116,11.229,1.626,16.494-1.085c4.302-2.212,8.391-4.848,12.938-7.51c-2.289-1.572-4.81-2.456-6.7-4.319
	c-1.684-1.668-1.862-3.138-1.064-5.391c3.389-9.518,10.375-15.069,18.983-19.895c10.271-5.758,21.419-7.829,32.522-10.466
	c11.933-2.837,20.541-9.843,27.122-20.154c2.177-3.411,2.041-6.288,2.363-9.85c0.515-5.775,1.715-11.553,1.698-17.371
	c-0.025-8.349,0.504-16.664,0.759-24.999c0.042-1.407,0.021-2.669,1.18-3.654c7.764-6.612,16.309-11.541,26.764-12.145
	c2.219-0.129,4.236-0.791,6.259-1.508c6.28-2.223,12.945-2.611,19.375-4.119c2.307-0.539,3.381,0.865,4.019,2.969
	c1.362,4.519,2.807,9.001,3.196,13.753c0.263,3.144,1.362,5.601,4.778,6.75c2.965,1.001,4.456,4.234,7.382,5.552
	c1.88,0.847,3.252,1.253,5.013-0.42c1.418-1.348,3.351-2.268,5.198-3.039c5.006-2.083,7.487-0.985,10.215,3.697
	c2.552,4.379,3.413,9.362,5.404,13.94c1.148,2.634,2.954,3.91,5.614,3.609c4.397-0.496,8.185,1.461,12.122,2.713
	c3.267,1.038,2.85,4.36,3.28,6.855c0.477,2.757,0.837,4.101,4.361,3.409c4.295-0.84,8.85,0.641,13.264-0.619
	c1.229-0.349,2.313,0.548,3.224,1.4c1.376,1.295,2.587,2.823,4.127,3.875c3.749,2.555,5.229,5.524,2.675,9.771
	c-0.431,0.714-1.082,1.771-0.13,2.596c3.378,2.921,1.452,5.954,0.046,8.772c-1.274,2.55-0.732,3.801,1.988,4.243
	c4.521,0.733,9.034,1.5,13.637,1.696c2.938,0.126,5.045-1.587,7.513-2.575c3.073-1.225,3.217-3.644,3.938-6.348
	c0.966-3.649,4.341-5.867,7.62-7.284c2.979-1.29,6.031,2.312,5.023,5.567c-0.641,2.06-1.547,4.029-2.24,6.073
	c-0.893,2.624-1.365,5.074,1.341,7.218c2.143,1.7,0.983,4.306,0.896,6.516c-0.094,2.332,0.277,3.746,3.099,4.004
	c3.542,0.329,6.783,1.854,9.556,4.111c2.297,1.871,4.306,4.09,7.75,3.518c1.148-0.192,1.901,0.824,2.503,1.771
	c1.533,2.395,2.397,5.165,6.382,5.072c2.17-0.051,2.198,3.073,2.52,4.999c0.413,2.466,0.854,3.933,3.89,2.319
	c8.407-4.465,15.993-1.022,23.333,3.014c3.616,1.985,6.826,2.183,10.054-0.578c0.599-0.507,1.394-1.013,2.139-1.08
	c5.664-0.504,10.379,3.378,16.061,3.465c2.338,0.033,4.06,2.944,5.415,5.149c3.248,5.286,6.451,10.596,9.612,15.934
	c2.142,3.611,4.172,3.824,6.812,0.599c1.946-2.378,7.746-1.579,10.375,1.43c4.047,4.624,12.427,5.501,17.25,1.803
	c3.693-2.83,6.172-2.515,9.57,1.563c3.283,3.94,7.334,6.047,12.455,6.609c6.657,0.737,13.578,0.653,19.448,4.696
	c2.415,1.668,5.789,3.254,4.921,6.689c-1.13,4.489-0.018,10.325-6.206,12.498c-2.622,0.924-3.5,4.001-5.313,5.576
	c-8.121,7.063-8.422,17.156-11.19,26.287c-1.607,5.294-3.42,10.479-5.776,15.497c-2.258,4.799-5.422,9.583-1.407,15.057
	c0.998,1.358,0.21,2.879-0.398,4.235c-2.615,5.869-3.672,12.098-4.449,18.414c-0.283,2.309,0.224,4.246,1.582,6.056
	c1.918,2.557,1.747,4.623-0.735,7.013c-2.51,2.414-4.357,5.51-6.496,8.312c-0.242,0.315-0.396,0.716-0.683,0.983
	c-2.129,2.02-13.368,2.344-14.643-0.133c-1.659-3.201-4.2-2.676-6.679-3.068c-0.753-0.114-2.129-0.299-2.045,0.584
	c0.347,3.455-3.259,4.759-4.043,7.564c1.981,1.199,4.782-1.85,5.898,1.162c1.064,2.862-2.45,3.983-3.08,6.063
	c-2.604,8.563-10.399,12.745-15.518,19.146c-2.66,3.327-5.807,6.071-9.836,7.577c-2.482,0.927-3.795,2.452-3.493,5.16
	c0.938,8.462-2.661,14.28-10.047,18.332c-6.979,3.829-9.321,10.73-10.872,18.02c-0.371,1.721,0.585,2.503,1.606,3.368
	c1.999,1.677,2.366,3.402,1.442,6.047c-1.48,4.235-2.422,8.535-7.571,9.925c-1.067,0.289-1.701,1.38-1.246,2.626
	c0.42,1.155,1.442,0.859,2.387,0.945c5.58,0.504,8.282-3.706,11.545-6.982c0.777-0.78,0.329-1.759,0.161-2.683
	c-1.184-6.397,0.886-9.579,6.77-12.153c7.099-3.11,14.156-4.027,21.653-1.726c2.874,0.878,4.169,2.256,3.364,5.245
	c-0.066,0.259-0.189,0.553-0.129,0.793c1.403,5.764,2.453,11.513,0.234,17.354c-0.329,0.866,0.725,1.286,1.459,1.655
	c0.715,0.355,1.971,0.765,1.992,1.204c0.28,5.424,6.08,6.871,7.922,11.243c1.371,3.24,0.248,9.104-2.843,10.85
	c-0.819,0.466-1.75,0.729-2.569,1.187c-2.167,1.219-5.633,0.732-5.793,4.586c-0.183,4.264,2.258,7.185,5.685,8.47
	c3.018,1.134,3.927,2.704,4.116,5.539c0.36,5.433,3.941,9.089,7.586,12.505c3.094,2.896,3.829,5.71,1.145,9.156
	c-0.588,0.743-1.32,1.622-0.918,2.559c1.866,4.384-1.448,5.663-4.221,7.317c-1.968,1.176-4.005,2.256-5.85,3.609
	c-3.087,2.267-5.775,5.473-10.319,3.42c-0.493-0.225-1.326,0.145-1.942,0.383c-1.551,0.594-4.131,0.308-4.204,2.363
	c-0.073,2.009,0.784,4.277,3.325,5.022c2.167,0.641,2.439,2.459,2.198,4.244c-0.511,3.746,1.232,5.861,4.554,7.059
	c1.012,0.368,1.964,1.077,2.993,1.201c7.593,0.908,8.152,7.052,9.458,12.604c0.455,1.933-1.046,2.812-2.394,3.809
	c-4.054,3.005-6.707,7.86-7.302,12.012c-0.658,4.612,0.266,10.191,2.74,14.866c2.023,3.821,3.959,7.455,8.859,8.618
	c3.074,0.731,6.007,2.47,8.724,4.195c5.384,3.417,10.589,3.654,16.378,0.861c5.282-2.55,4.842-1.922,7.516,3.106
	c2.531,4.756,1.295,8.092-1.628,11.645c-0.683,0.831-1.196,1.825-1.956,2.576c-4.396,4.351-6.553,9.733-7.215,15.75
	c-0.217,2.004-1.267,2.209-2.908,2.967c-5.09,2.351-9.89,5.347-14.73,8.209c-0.574,0.337-1.187,1.503-1.029,2.07
	c1.19,4.22-1.652,4.739-4.589,5.283c-3.213,0.59-5.503,2.134-7.061,5.273c-1.704,3.445-4.249,6.115-8.813,5.976
	c-2.675-0.086-6.207,7.052-5.045,9.388c1.817,3.656-1.396,5.958-2.562,8.779c-0.879,2.136-2.611,2.209-4.939,2.216
	c-4.012,0.018-8.824-0.773-10.774,4.708c-0.658,1.836-2.397,1.985-4.099,1.11c-3.115-1.604-5.737-2.109-7.495,2.037
	c-0.875,2.066-2.992,2.123-4.127,0.142c-2.033-3.562-5.652-2.591-8.61-3.354c-1.544-0.399-1.933,1.58-2.71,2.607
	c-2.205,2.927-4.092,3.074-5.813-0.184c-1.649-3.133-4.551-4.801-6.791-7.214c-0.76-0.817-1.792-0.345-2.58-0.604
	c-5.117-1.669-10.337-2.765-15.637-3.692c-2.572-0.448-1.617-3.364-1.393-5.262c0.584-4.867,0.444-5.047-4.288-4.359
	c-2.129,0.31-4.277,0.523-6.431,0.674c-3.493,0.245-6.507-0.037-8.446-3.895c-1.337-2.665-3.535-3.97-6.27-0.411
	c-2.821,3.67-7.357,2.81-11.324,2.466c-3.482-0.294-7.7-0.075-7.025-5.859c0.203-1.75-1.792-1.595-3.122-1.675
	c-3.367-0.196-6.731-0.424-10.095-0.599c-5.03-0.261-9.385-1.456-12.179-6.364c-1.368-2.406-7.648-2.338-10.263-0.321
	c-1.6,1.233-3.011,2.705-4.562,4.01c-2.142,1.812-4.238,3.346-7.249,4.02c-3.028,0.681-5.724,2.843-6.356,6.519
	c-0.687,4.001-2.325,6.622-7.082,7.349c-4.949,0.751-8.362,4.531-11.239,8.653c-3.55,5.088-5.121,10.967-7.173,16.669
	c-0.455,1.255-0.875,2.589-1.638,3.656c-1.656,2.311-3.326,4.358,0.504,6.279c1.341,0.671,1.18,2.37,1.141,3.696
	c-0.272,8.351,0.302,16.467,5.709,23.446c0.879,1.127,1.257,2.684-0.118,3.619c-2.167,1.479-5.139,1.835-6.798,0.083
	c-2.717-2.863-5.412-2.069-8.055-0.905c-5.034,2.218-10.991,2.72-14.394,8.132c-1.243,1.979-9.956,1.454-12.171-0.349
	c-2.114-1.721-4.393-3.199-6.896-4.174c-5.401-2.113-10.294-0.552-14.828,2.585c-3.476,2.406-6.14,1.416-6.465-2.795
	c-0.161-2.125-0.623-2.587-2.748-3.107c-3.22-0.778-6.206-2.561-9.237-4.02c-2.335-1.124-1.834-3.055-1.033-4.855
	c1.543-3.466,0.182-5.044-3.294-5.361c-3.479-0.314-7.099-3.244-10.347,0.823c-0.679,0.854-2.072,0.206-2.808-0.737
	c-0.658-0.851-1.229-1.774-1.806-2.685c-3.511-5.545-4.501-6.024-11.163-4.774c-1.607,0.299-2.8-0.175-3.423-1.423
	c-1.656-3.333-4.593-4.444-7.911-4.759c-4.537-0.433-8.418-2.743-12.577-4.213c-3.112-1.102-3.941,0.192-4.036,2.804
	c-0.049,1.469,0.046,2.974,0.329,4.41c0.63,3.183-0.644,4.595-3.808,4.573c-4.432-0.033-8.923,0.814-13.214-0.977
	c-0.987-0.411-1.904-0.354-2.629,0.373c-2.349,2.372-4.438,1.855-6.612-0.307c-1.302-1.297-2.856-1.863-4.795-1.028
	c-1.344,0.577-2.934,0.579-4.292,1.138c-4.53,1.858-8.058,0.725-10.97-3.137c-1.376-1.822-3.095-3.318-5.08-4.582
	c-3.07-1.951-5.615-3.312-9.35-0.637c-3.364,2.409-11.793,0.224-14.39-3.207c-2.279-3.003-7.032-3.785-7.477-8.415
	c-0.021-0.212-0.935-0.517-1.411-0.483c-8.443,0.574-15.23-4.039-22.504-7.121c-0.994-0.42-1.988-0.859-2.93-1.376
	c-2.086-1.138-3.92-2.833-5.751,0.709c-1.022,1.971-3.087,0.753-4.582-0.294c-1.848-1.295-3.504-2.646-2.349-5.305
	c0.914-2.099,1.831-4.206,2.556-6.373c0.581-1.743,1.526-3.951-0.242-5.231c-1.852-1.34-4.547-1.783-6.56-0.604
	c-2.877,1.682-4.501,1.131-5.649-1.781c-0.392-1.001-1.141-1.57-2.163-1.516c-4.029,0.23-4.246-3.616-5.944-5.73
	c-1.159-1.442,0.276-2.746,1.785-3.358c8.863-3.604,13.063-10.551,14.817-19.646c4.564-23.692,9.665-47.296,11.555-71.423
	c0.189-2.403,0.602-4.721-0.98-6.99c-0.928-1.334-0.217-3.157-0.045-4.763c2.044-19.026,4.771-37.979,6.283-57.069
	c0.354-4.437,0.875-8.796,3.798-12.544c1.456-1.872,2.909-2.674,5.149-1.867c0.847,3.105,2.926,5.191,5.397,7.156
	c2.59,2.061,4.921,4.49,6.917,7.111c0.108-0.268-0.193-0.297-0.231-0.469c-2.198-3.955-5.237-7.145-8.807-9.813
	C219.399,455.704,218.328,454.403,217.513,452.841z"/>
<g>
	<polygon fill="#FFFFFF" points="1502.55,25.83 1499.451,25.83 1499.451,22.735 1499.451,19.636 1496.355,19.636 1496.355,16.54 
		1490.17,16.54 1490.17,13.443 1468.486,13.443 1468.486,16.54 1462.293,16.54 1462.293,19.636 1459.194,19.636 1459.194,22.735 
		1459.194,25.83 1456.099,25.83 1456.099,28.926 1456.099,32.023 1456.099,35.12 1456.099,38.219 1456.099,41.315 1456.099,44.422 
		1456.099,47.518 1456.099,50.616 1456.099,53.714 1456.099,56.812 1456.099,59.906 1459.194,59.906 1462.293,59.906 
		1462.293,63.004 1465.389,63.004 1468.486,63.004 1468.486,66.1 1471.561,66.1 1471.561,69.2 1487.07,69.2 1487.07,66.1 
		1490.158,66.1 1490.17,66.1 1490.17,63.004 1496.355,63.004 1496.355,59.906 1502.55,59.906 1502.559,59.906 1502.559,25.83 	"/>
	<polygon fill="#0C0C14" points="1462.293,56.803 1465.389,56.803 1465.389,56.803 1468.486,56.803 1468.486,53.714 
		1471.576,53.714 1471.576,50.616 1471.585,50.616 1474.674,50.616 1474.674,47.518 1471.585,47.518 1471.576,47.518 
		1471.576,47.511 1471.576,44.422 1471.561,44.422 1468.486,44.422 1468.486,44.422 1465.389,44.422 1465.389,44.422 
		1462.293,44.422 1462.293,47.511 1462.293,47.518 1459.194,47.518 1459.194,50.616 1459.194,50.616 1459.194,53.689 
		1459.194,53.714 1462.293,53.714 1462.293,56.803 	"/>
	<polygon fill="#0C0C14" points="1496.355,44.422 1493.258,44.422 1493.258,44.422 1490.17,44.422 1490.158,44.422 1487.062,44.422 
		1487.062,47.518 1487.062,47.518 1487.062,47.518 1483.973,47.518 1483.973,50.607 1483.973,50.616 1487.062,50.616 
		1487.062,50.607 1487.062,50.607 1487.062,50.616 1487.062,50.616 1487.062,53.714 1490.158,53.714 1490.158,56.803 
		1490.17,56.803 1493.258,56.803 1493.258,56.803 1496.355,56.803 1496.355,53.714 1496.362,53.714 1499.451,53.714 
		1499.451,53.704 1499.451,50.616 1499.451,50.607 1499.451,47.511 1496.362,47.511 1496.362,44.422 	"/>
	<polygon fill="#0C0C14" points="1477.778,53.704 1477.778,56.812 1474.674,56.812 1474.674,63.004 1483.973,63.004 
		1483.973,56.812 1480.877,56.812 1480.877,53.704 	"/>
</g>
</svg>
