<?xml version="1.0" encoding="utf-8"?>
<!-- Generator: Adobe Illustrator 16.0.0, SVG Export Plug-In . SVG Version: 6.00 Build 0)  -->
<!DOCTYPE svg PUBLIC "-//W3C//DTD SVG 1.1//EN" "http://www.w3.org/Graphics/SVG/1.1/DTD/svg11.dtd">
<svg version="1.1" id="Calque_1" xmlns="http://www.w3.org/2000/svg" xmlns:xlink="http://www.w3.org/1999/xlink" x="0px" y="0px"
	 width="200px" height="135.185px" viewBox="0 0 200 135.185" enable-background="new 0 0 200 135.185" xml:space="preserve">
<g>
	<path fill-rule="evenodd" clip-rule="evenodd" fill="#FFFFFF" d="M295.261,412.633c-1.903,0-3.799-0.007-5.695,0.007
		c-0.674,0-1.419-0.087-1.533,0.901c-0.054,0.457,0.066,1.063-0.74,0.955c-0.572-0.081-1.063-0.29-1.292-0.882
		c-0.066-0.175-0.202-0.376-0.153-0.518c0.8-2.152-0.142-4.304,0.06-6.449c0.188-2.023,1.271-3.478,3.289-3.954
		c2.037-0.491,4.028-0.188,5.245,1.667c0.714,1.09,1.285,1.11,2.133,0.41c1.371-1.144,3.738-1.137,4.068-3.537
		c0.04-0.316,0.639-0.242,1.002-0.222c0.578,0.04,0.882,0.417,1.01,0.929c0.309,1.243-0.223,2.172-1.258,2.79
		c-1.474,0.882-2.953,1.749-4.493,2.516c-1.043,0.511-1.231,1.291-1.036,2.267c0.223,1.09,1.15,0.679,1.816,0.713
		c1.157,0.061,2.327,0.033,3.497,0.014c0.773-0.021,1.271,0.141,1.278,1.089c0.006,0.962-0.376,1.312-1.312,1.298
		c-1.957-0.033-3.922-0.006-5.886-0.006C295.261,412.621,295.261,412.626,295.261,412.633z"/>
	<path fill-rule="evenodd" clip-rule="evenodd" fill="#FFFFFF" d="M296.022,386.027c-1.661,0-3.315,0.021-4.977-0.013
		c-1.185-0.027-1.91-1.346-1.043-2.03c0.813-0.646,0.356-0.942,0.142-1.42c-1.688-3.732-0.155-6.18,3.9-6.194
		c2.334-0.014,4.668,0,6.994-0.007c0.82-0.007,1.426,0.075,1.434,1.15c0,1.13-0.673,1.104-1.453,1.097
		c-2.394-0.007-4.789,0.026-7.183,0c-1.527-0.014-2.28,0.658-2.247,2.212c0.027,2.052,0.693,2.934,2.327,2.939
		c2.146,0.021,4.292-0.048,6.438,0.034c0.813,0.026,2.158-0.639,2.097,1.13c-0.061,1.729-1.392,1.002-2.198,1.062
		c-1.405,0.108-2.819,0.034-4.23,0.034V386.027z"/>
	<path fill-rule="evenodd" clip-rule="evenodd" fill="#FFFFFF" d="M296.432,396.647c3.269,0.626,4.821-1.291,3.981-4.923
		c-0.182-0.753-0.935-1.594,0.531-1.95c1.419-0.343,1.311,0.733,1.514,1.493c1.485,5.683-2.28,9.16-8.454,7.828
		c-2.623-0.565-4.17-2.038-4.445-4.25c-0.512-3.941,2.784-6.443,6.786-5.152c-0.235,0.888,0.148,2.132-1.306,2.361
		c-0.854,0.182-1.64,0.483-2.219,1.17c-0.423,0.511-0.519,1.109-0.095,1.681c0.37,0.498,0.801,0.491,1.204,0.021
		c0.376-0.699,0.465-1.534,1.022-2.133c0.262-0.288,0.558-0.477,0.955-0.321c0.349,0.14,0.329,0.47,0.355,0.767
		C296.358,394.375,296.062,395.532,296.432,396.647z"/>
	<path fill-rule="evenodd" clip-rule="evenodd" fill="#FFFFFF" d="M296.412,356.5c2.287,0.767,3.969-0.242,4.157-2.509
		c0.073-0.978,0-1.95-0.363-2.892c-0.276-0.716-0.082-1.133,0.733-1.308c0.753-0.165,1.177,0.03,1.371,0.76
		c1.124,4.064,0.315,8.84-5.777,8.665c-1.291-0.043-2.575,0.007-3.807-0.483c-2.797-1.13-4.035-4.284-2.743-6.998
		c0.941-1.987,4.283-2.937,6.436-1.84c-0.322,0.639-0.182,1.319-0.134,1.957c0.094,1.157-0.498,1.161-1.318,0.942
		c-0.538-0.011-1.097-0.118-1.621,0.102c-0.646,0.262-0.989,0.759-0.841,1.438c0.162,0.727,0.532,1.268,1.412,0.793
		c0.377-0.41,0.479-0.979,0.821-1.409c0.255-0.326,0.457-0.76,0.982-0.574c0.483,0.168,0.517,0.605,0.543,1.042
		C296.325,354.959,296.089,355.75,296.412,356.5z"/>
	<path fill-rule="evenodd" clip-rule="evenodd" fill="#FFFFFF" d="M302.31,371.979c-0.249,0.35-0.631,0.315-0.995,0.315
		c-3.37,0.006-6.731-0.014-10.096,0.021c-1.425,0.014-1.889-0.72-1.156-1.79c0.538-0.8,0.31-1.25,0-1.943
		c-1.594-3.49-0.04-5.988,3.767-6.072c2.441-0.051,4.889,0.007,7.344-0.011c0.773,0,1.285,0.155,1.285,1.104
		c-0.008,0.915-0.471,1.152-1.265,1.14c-1.957-0.007-3.914-0.033-5.871,0.026c-1.225,0.041-2.805-0.515-3.457,0.962
		c-0.7,1.561-0.249,3.115,0.948,4.386c2.482,0.471,4.977,0.188,7.458,0.175C301.597,370.277,302.324,370.566,302.31,371.979z"/>
	<path fill-rule="evenodd" clip-rule="evenodd" fill="#FFFFFF" d="M302.734,343.917c-0.066,0.394-0.208,1.228-0.37,2.071
		c-0.155,0.841-0.646,1.11-1.467,0.854c-0.786-0.245-0.82-0.672-0.592-1.398c0.25-0.811,0.377-1.682,0.391-2.528
		c0.007-0.8-0.216-1.617-1.197-1.837c-0.948-0.211-1.526,0.327-1.903,1.086c-0.417,0.817-0.726,1.686-1.123,2.513
		c-0.666,1.372-1.647,2.263-3.295,2.165c-1.668-0.106-2.744-1.028-3.288-2.524c-0.512-1.416-0.418-2.883-0.169-4.361
		c0.127-0.771,0.551-0.821,1.164-0.771c0.698,0.058,0.962,0.353,0.86,1.079c-0.122,0.896-0.209,1.819-0.182,2.73
		c0.013,0.716,0.356,1.296,1.149,1.47c0.801,0.175,1.299-0.242,1.636-0.885c0.281-0.545,0.517-1.108,0.752-1.671
		c1.171-2.75,2.523-3.614,4.877-3.103C301.725,339.178,302.754,340.911,302.734,343.917z"/>
	<path fill-rule="evenodd" clip-rule="evenodd" fill="#FFFFFF" d="M317.55,367.345c-2.326-0.747-4.19-1.339-6.047-1.931
		c-0.646-0.208-1.372-0.343-1.318-1.258c0.062-0.979,0.882-0.905,1.514-0.962c2.139-0.211,4.277-0.373,6.416-0.521
		c0.551-0.033,1.373-0.343,1.42,0.629c0.053,0.922-0.773,0.562-1.23,0.616c-1.602,0.208-3.223,0.335-4.897,0.816
		c1.702,0.552,3.397,1.123,5.098,1.655c0.491,0.154,0.962,0.274,1.003,0.9c0.047,0.713-0.444,0.908-1.017,1.09
		c-1.66,0.518-3.322,1.063-4.962,1.997c1.54,0.161,3.073,0.336,4.613,0.465c1.022,0.093,1.634,0.531,1.473,1.634
		c-0.074,0.511-0.592,0.888-0.907,0.511c-1.474-1.734-3.539-0.874-5.287-1.325c-0.705-0.182-1.459-0.168-2.186-0.274
		c-0.485-0.068-0.995-0.142-1.057-0.801c-0.047-0.68,0.31-1.003,0.908-1.191C313.07,368.77,315.055,368.138,317.55,367.345z"/>
	<path fill-rule="evenodd" clip-rule="evenodd" fill="#FFFFFF" d="M315.229,376.901c0.888-0.497,1.44,0.148,2.105,0.559
		c0.915,0.559,1.271-0.8,2.085-0.733c0.068,0.095,0.201,0.235,0.175,0.276c-0.88,1.379-0.464,2.684,0,4.109
		c0.384,1.156-0.04,2.441-1.29,2.925c-1.157,0.443-2.544,0.545-3.363-0.632c-0.626-0.901-1.211-0.922-2.139-0.687
		c-0.915,0.235-1.897,0.095-2.422-0.86c-0.572-1.057-0.625-2.206,0.397-2.993c0.94-0.726,1.938-0.464,2.784,0.41
		c0.928,0.941,2.172,0.774,2.777-0.403C316.917,377.736,315.244,377.776,315.229,376.901z"/>
	<path fill-rule="evenodd" clip-rule="evenodd" fill="#FFFFFF" d="M317.113,334.726c-0.551,0-1.103,0-1.647,0
		c-3.363,0-3.652-0.313-3.296-3.642c0.047-0.403,0.169-0.881,0.431-1.177c1.345-1.53,3.141-1.167,4.796-0.912
		c1.392,0.219,2.273,1.248,2.238,2.73c-0.02,1.101,0.162,1.759,1.48,1.598c0.483-0.071,1.224-0.158,1.137,0.73
		c-0.082,0.783-0.761,0.652-1.292,0.658c-1.285,0.014-2.562,0-3.847,0C317.113,334.719,317.113,334.719,317.113,334.726z"/>
	<path fill-rule="evenodd" clip-rule="evenodd" fill="#FFFFFF" d="M317.125,410.125c-1.964-0.598-3.947-1.163-5.891-1.809
		c-0.443-0.148-1.298-0.128-1.009-0.975c0.249-0.74,0.934-0.432,1.419-0.29c2.287,0.7,4.554,1.427,6.826,2.165
		c0.604,0.188,1.116,0.465,1.063,1.266c-0.047,0.72-0.532,0.847-1.084,1.021c-1.815,0.552-3.611,1.144-5.407,1.762
		c-0.559,0.195-1.25,0.222-1.613,0.76c-0.29,0.445-0.532,0.982-1.083,0.459c-0.497-0.479-0.464-1.177,0.055-1.636
		c0.39-0.35,0.939-0.558,1.451-0.72c1.749-0.557,3.504-1.062,5.26-1.587C317.113,410.402,317.119,410.266,317.125,410.125z"/>
	<path fill-rule="evenodd" clip-rule="evenodd" fill="#FFFFFF" d="M315.849,342.93c-2.389-0.006-3.659-1.079-3.68-3.089
		c-0.02-2.108,1.258-3.165,3.793-3.145c2.347,0.018,3.773,1.291,3.712,3.322C319.621,341.98,318.344,342.945,315.849,342.93z"/>
	<path fill-rule="evenodd" clip-rule="evenodd" fill="#FFFFFF" d="M315.869,321.033c2.488,0.007,3.848,1.168,3.806,3.225
		c-0.054,2.001-1.304,2.96-3.825,2.937c-2.422-0.031-3.673-1.093-3.673-3.118C312.176,321.999,313.367,321.02,315.869,321.033z"/>
	<path fill-rule="evenodd" clip-rule="evenodd" fill="#FFFFFF" d="M316.09,390.709c0.337,0.53-0.693,2.017,1.016,1.828
		c1.331-0.148,1.46-1.271,1.305-2.394c-0.066-0.559-0.604-1.358,0.363-1.48c0.813-0.107,0.794,0.794,0.854,1.346
		c0.142,1.312,0.122,2.67-1.163,3.443c-1.587,0.942-3.289,0.881-4.93,0.094c-1.13-0.552-1.453-1.594-1.352-2.784
		c0.134-1.606,1.521-2.63,3.107-2.3C316.083,388.637,316.104,388.684,316.09,390.709z"/>
	<path fill-rule="evenodd" clip-rule="evenodd" fill="#FFFFFF" d="M316.071,357.142c0.39,0.665-0.7,2.156,0.921,2.052
		c1.412-0.088,1.588-1.285,1.412-2.506c-0.06-0.464-0.651-1.15,0.304-1.318c0.8-0.141,0.827,0.626,0.894,1.11
		c0.188,1.378,0.175,2.808-1.177,3.611c-1.58,0.942-3.302,0.841-4.923,0.054c-1.211-0.592-1.46-1.731-1.291-2.979
		c0.194-1.471,1.903-2.57,3.288-2.09C316.623,355.471,315.862,356.456,316.071,357.142z"/>
	<path fill-rule="evenodd" clip-rule="evenodd" fill="#FFFFFF" d="M319.662,350.743c-0.021,1.588-1.056,1.91-2.319,2.103
		c-1.434,0.211-2.967-0.543-4.365,0.611c-0.29,0.232-1.527-0.555-2.221-1.035c-0.315-0.213-0.354-0.864,0.311-0.915
		c0.786-0.058,1.312-0.246,1.224-1.174c-0.04-0.336,0.135-0.612,0.531-0.579c0.344,0.038,0.565,0.264,0.545,0.616
		c-0.047,1.292,0.922,1.197,1.648,1.049c1.162-0.251,2.797,0.928,3.456-1.019c0.147-0.434,0.29-0.901,0.821-0.732
		C319.796,349.822,319.601,350.39,319.662,350.743z"/>
	<path fill-rule="evenodd" clip-rule="evenodd" fill="#FFFFFF" d="M318.533,314.873c-1.567,1.174-3.235,0.962-4.869,0.276
		c-1.238-0.519-1.575-1.624-1.487-2.896c0.074-1.015,0.565-1.724,1.527-2.067c1.693-0.605,2.292-0.145,2.4,1.645
		c0.06,1.015-0.672,2.794,1.634,2.196C318.142,314.176,318.679,314.208,318.533,314.873z"/>
	<path fill-rule="evenodd" clip-rule="evenodd" fill="#FFFFFF" d="M314.484,317.742c1.345,0,2.684-0.014,4.021,0.007
		c0.411,0.007,0.935,0,0.935,0.599c0,0.592-0.496,0.604-0.927,0.604c-2.738,0.007-5.476,0-8.219-0.007
		c-0.424-0.006-0.929-0.013-0.942-0.592c-0.006-0.611,0.525-0.582,0.936-0.585c1.398-0.02,2.797-0.007,4.197-0.007
		C314.484,317.755,314.484,317.749,314.484,317.742z"/>
	<path fill-rule="evenodd" clip-rule="evenodd" fill="#FFFFFF" d="M314.517,399.977c1.278,0,2.562-0.021,3.84,0.007
		c0.45,0.006,1.082-0.155,1.069,0.604c-0.007,0.605-0.545,0.579-0.955,0.579c-2.744,0.006-5.487,0.006-8.231,0
		c-0.432-0.007-0.922-0.047-0.901-0.653c0.033-0.619,0.564-0.537,0.968-0.537C311.711,399.963,313.112,399.97,314.517,399.977z"/>
	<path fill-rule="evenodd" clip-rule="evenodd" fill="#FFFFFF" d="M314.295,397.4c-1.346,0-2.69,0.007-4.036-0.007
		c-0.43,0-0.935-0.013-0.921-0.618c0.02-0.599,0.531-0.599,0.948-0.599c2.757-0.013,5.509-0.013,8.266,0
		c0.437,0,0.894,0.094,0.9,0.659c0,0.666-0.551,0.552-0.94,0.558C317.106,397.414,315.701,397.4,314.295,397.4z"/>
	<path fill-rule="evenodd" clip-rule="evenodd" fill="#FFFFFF" d="M315.633,347.683c-0.37,0-0.739,0.027-1.103-0.013
		c-0.707-0.062-1.897,0.319-2.032-0.217c-0.222-0.9-0.08-1.937-0.275-2.908c-0.047-0.199,0.115-0.474,0.45-0.447
		c0.323,0.03,0.68,0.11,0.7,0.461c0.135,2.256,1.788,1.809,3.229,1.933c0.948,0.088,2.717-0.567,2.683,0.525
		c-0.04,1.345-1.775,0.383-2.737,0.653C316.259,347.75,315.935,347.683,315.633,347.683z"/>
	<path fill-rule="evenodd" clip-rule="evenodd" fill="#FFFFFF" d="M315.875,403.743c0.915,0,1.822-0.007,2.737,0
		c0.463,0.007,0.848,0.148,0.875,0.7c0.026,0.604-0.412,0.672-0.855,0.678c-1.815,0.007-3.646,0.007-5.467,0.007
		c-0.443,0-0.849-0.066-0.849-0.665c-0.005-0.585,0.363-0.713,0.828-0.72C314.053,403.729,314.967,403.743,315.875,403.743
		L315.875,403.743z"/>
	<path fill-rule="evenodd" clip-rule="evenodd" fill="#FFFFFF" d="M294.925,391.603c0.928-0.296,0.619-1.527,1.42-1.91
		c0.274,2.313,0.106,4.641,0.087,6.954c-0.666-1.069-0.094-2.388-0.619-3.659c-1.002,1.05,0.108,2.408-0.78,3.297
		C293.81,394.973,293.763,393.231,294.925,391.603z"/>
	<path fill-rule="evenodd" clip-rule="evenodd" fill="#FFFFFF" d="M318.533,314.873c-0.271-0.279-0.532-0.562-0.795-0.847
		c0.666-0.787,0.922-1.672,0.6-2.68c-0.148-0.475-0.316-1.02,0.383-1.157c0.699-0.128,0.768,0.53,0.827,0.947
		C319.756,312.516,319.944,313.924,318.533,314.873z"/>
	<path fill-rule="evenodd" clip-rule="evenodd" fill="#FFFFFF" d="M295.033,352.098c0.532,0.218,1.044,0.403,1.035-0.508
		c0-0.585,0.021-1.17,0.351-1.695c-0.007,2.203-0.007,4.401-0.007,6.604c-0.201-0.904-0.403-1.802-0.646-2.854
		c-0.901,1.053,0.142,2.351-0.819,3.171C293.763,355.188,293.803,353.433,295.033,352.098z"/>
	<path fill-rule="evenodd" clip-rule="evenodd" fill="#FFFFFF" d="M302.31,371.979c-0.39-1.164-1.197-1.514-2.401-1.494
		c-2.447,0.067-4.896-0.006-7.351-0.02c-0.04,0-0.087-0.067-0.127-0.095c0.127-0.08,0.262-0.167,0.383-0.255
		c2.643-0.021,5.286,0.013,7.908-0.087C302.284,369.954,302.734,370.552,302.31,371.979z"/>
	<path fill-rule="evenodd" clip-rule="evenodd" fill="#FFFFFF" d="M309.527,356.267c0.229,0.077,0.484,0.115,0.666,0.239
		c0.563,0.381,1.459,0.512,1.297,1.482c-0.066,0.418-0.437,0.351-0.698,0.188C310.091,357.751,308.895,357.654,309.527,356.267z"/>
	<path fill-rule="evenodd" clip-rule="evenodd" fill="#FFFFFF" d="M311.053,404.328c-0.021,0.463-0.208,0.74-0.632,0.787
		c-0.498,0.061-0.842-0.155-0.868-0.672c-0.026-0.397,0.161-0.7,0.605-0.761C310.676,403.621,310.912,403.931,311.053,404.328z"/>
	<path fill-rule="evenodd" clip-rule="evenodd" fill="#FFFFFF" d="M383.755,396.129c0.04-0.854-0.443-0.988-1.15-0.988
		c-1.842,0.021-3.679,0.021-5.521,0c-2.078-0.013-3.76-0.773-5.071-2.469c-1.957-2.535-3.221-5.488-4.963-8.144
		c-2.785-4.964-5.528-9.941-8.36-14.87c-0.686-1.19-0.705-1.716,0.713-2.354c4.541-2.025,8.098-5.206,10.484-9.629
		c2.638-4.264,4.01-8.92,4.291-13.915c0.062-0.208,0.102-0.43,0.135-0.655c0.465-2.633,0.222-5.293,0.108-7.943
		c0.026-0.437,0.047-0.866-0.229-1.247c-0.114-2.334-0.693-4.576-1.245-6.826c-1.526-5.128-4.344-9.409-8.359-12.933
		c-1.123-1.234-2.535-2.115-3.969-2.919c-7.874-4.433-16.328-5.257-25.1-3.877c-3.14,0.49-6.227,1.19-8.869,3.13
		c-0.041,5.148-0.068,10.301-0.135,15.448c-0.007,1,0.39,1.035,1.243,0.869c1.622-0.314,3.269-0.539,4.917-0.66
		c5.18-0.399,10.33-0.545,14.803,2.812c1.682,1.842,2.798,3.965,3.222,6.446c0.457,2.724,0.498,5.457,0.323,8.205
		c-0.04,0.365-0.088,0.729-0.129,1.093c-0.76,7.169-4.492,11.339-11.138,12.463c-0.833,0.138-1.729-0.044-2.515,0.405
		c-3.06-0.013-6.119,0.018-9.187-0.07c-1.245-0.04-1.554,0.465-1.54,1.604c0.04,4.718,0.04,9.442-0.021,14.156
		c-0.013,1.245,0.309,1.742,1.641,1.695c2.389-0.101,4.789,0.088,7.169-0.066c1.48-0.095,2.16,0.49,2.772,1.734
		c1.385,2.784,2.925,5.501,4.397,8.252c3.288,6.632,6.672,13.202,10.33,19.632c1.454,2.562,3.061,5.037,5.279,7.021
		c5.031,4.527,10.99,4.951,17.245,3.673c4.667-0.94,7.263-3.968,8.097-8.615C384.058,403.118,383.614,399.621,383.755,396.129z"/>
	<path fill-rule="evenodd" clip-rule="evenodd" fill="#0C0C14" d="M291.106,410.24c-3.162,0-3.235-0.062-3.222-2.214
		c0.02-2.017,0.935-2.979,2.878-2.992c2.139-0.02,2.973,1.029,3.141,3.369C294.098,411.114,292.155,409.983,291.106,410.24z"/>
	<path fill-rule="evenodd" clip-rule="evenodd" fill="#0C0C14" d="M294.925,391.603c0.034,1.56,0.074,3.12,0.107,4.682
		c-0.753,1.177-1.62,0.302-2.359,0.054c-1.051-0.356-1.399-1.278-1.365-2.348c0.033-1.029,0.531-1.729,1.451-2.132
		C293.453,391.563,294.179,391.556,294.925,391.603z"/>
	<path fill-rule="evenodd" clip-rule="evenodd" fill="#0C0C14" d="M295.033,352.098c-0.033,1.577-0.06,3.147-0.086,4.718
		c-1.219,0.04-2.375-0.179-3.143-1.184c-0.731-0.966-0.807-2.125-0.006-3.06C292.673,351.567,293.81,351.248,295.033,352.098z"/>
	<path fill-rule="evenodd" clip-rule="evenodd" fill="#0C0C14" d="M318.519,381.482c0.106,1.137-0.62,1.472-1.54,1.547
		c-0.922,0.08-1.474-0.465-1.776-1.259c-0.114-0.288,2.038-2.179,2.361-2.063C318.364,380.015,318.458,380.754,318.519,381.482z"/>
	<path fill-rule="evenodd" clip-rule="evenodd" fill="#0C0C14" d="M313.333,380.794c0,0.674-0.498,0.761-0.976,0.808
		c-0.659,0.067-1.218-0.107-1.338-0.86c-0.108-0.646,0.208-1.049,0.867-1.077C312.66,379.631,313.05,380.164,313.333,380.794z"/>
	<path fill-rule="evenodd" clip-rule="evenodd" fill="#0C0C14" d="M315.996,333.337c-1.062-0.209-2.568,0.558-2.643-1.372
		c-0.066-1.698,1.237-1.796,2.381-1.778c1.238,0.022,2.75,0.007,2.765,1.859C318.519,334.104,316.844,332.982,315.996,333.337z"/>
	<path fill-rule="evenodd" clip-rule="evenodd" fill="#0C0C14" d="M315.862,341.552c-1.116-0.185-2.562-0.01-2.502-1.731
		c0.067-1.759,1.474-1.702,2.718-1.695c1.223,0,2.488,0.18,2.406,1.807C318.404,341.603,316.986,341.405,315.862,341.552z"/>
	<path fill-rule="evenodd" clip-rule="evenodd" fill="#0C0C14" d="M316.024,325.939c-1.157-0.19-2.617-0.053-2.671-1.795
		c-0.046-1.638,1.291-1.762,2.447-1.804c1.232-0.029,2.617,0.108,2.69,1.767C318.566,325.749,317.187,325.742,316.024,325.939z"/>
	<path fill-rule="evenodd" clip-rule="evenodd" fill="#0C0C14" d="M315.257,391.179c-0.209,0.471,0.376,1.398-0.693,1.358
		c-0.82-0.033-1.365-0.552-1.372-1.425c-0.007-0.794,0.443-1.292,1.217-1.358C315.585,389.653,315.095,390.621,315.257,391.179z"/>
	<path fill-rule="evenodd" clip-rule="evenodd" fill="#0C0C14" d="M315.324,357.629c-0.344,0.552,0.424,1.574-0.793,1.527
		c-0.834-0.034-1.332-0.545-1.353-1.405c-0.013-0.902,0.572-1.325,1.365-1.376C315.633,356.304,314.994,357.259,315.324,357.629z"/>
	<path fill-rule="evenodd" clip-rule="evenodd" fill="#0C0C14" d="M315.31,312.579c-0.289,0.579,0.377,1.602-0.833,1.521
		c-0.828-0.057-1.346-0.608-1.325-1.463c0.014-0.86,0.545-1.354,1.398-1.361C315.654,311.268,314.967,312.21,315.31,312.579z"/>
</g>
<g>
	<path fill-rule="evenodd" clip-rule="evenodd" fill="#FFFFFF" d="M63.825,41.259c5.279,1.822,10.445,3.544,15.577,5.386
		c14.056,5.039,27.93,10.539,41.63,16.475c0.559,0.239,1.117,0.374,1.184,1.214c0.35,4.005,0.773,8.007,1.184,12.169
		c-0.41-0.16-0.712-0.269-1.009-0.396c-18.743-8.096-37.763-15.495-57.187-21.82c-0.611-0.201-0.867-0.454-0.894-1.149
		c-0.121-3.464-0.316-6.931-0.485-10.395C63.812,42.308,63.825,41.867,63.825,41.259z"/>
	<path fill-rule="evenodd" clip-rule="evenodd" fill="#FFFFFF" d="M116.903,10.416c0.41,4.136,0.807,8.165,1.217,12.324
		c-18.455,1.531-36.667,4.412-54.697,8.857c-0.054-0.393-0.115-0.723-0.129-1.055c-0.154-3.435-0.281-6.87-0.457-10.298
		c-0.04-0.665,0.176-0.897,0.813-1.06c8.205-2.145,16.491-3.9,24.864-5.215c6.066-0.952,12.153-1.779,18.246-2.565
		C110.062,10.974,113.398,10.749,116.903,10.416z"/>
	<path fill-rule="evenodd" clip-rule="evenodd" fill="#FFFFFF" d="M108.489,53.545c-4.386-0.124-8.487-1.69-11.595-5.329
		c-4.688-5.487-3.974-13.195,1.561-17.855c6.061-5.108,15.239-4.94,21.11,0.386c6.275,5.684,5.482,15.203-1.667,20.056
		C115.161,52.662,112.114,53.508,108.489,53.545z"/>
	<path fill-rule="evenodd" clip-rule="evenodd" fill="#FFFFFF" d="M71.459,87.875c3.254,2.994,6.402,5.879,9.663,8.871
		c0.983-1.425,1.352-2.79,1.17-4.297c-0.174-1.453-0.605-2.865-1.729-3.848c-1.082-0.935-2.34-1.675-3.483-2.475
		c1.708-1.306,4.292-0.982,5.879,0.854c1.802,2.077,2.059,5.716,0.578,8.567c-0.35,0.666-0.787,1.271-1.237,1.997
		c1.796,1.648,3.181,3.572,3.161,6.376c-1.742-1.554-3.364-3.006-4.742-4.237c-2.044,0.849-3.786,1.783-5.643,2.294
		c-2.495,0.687-5.084,0.733-7.553-0.248c-2.475-0.989-4.257-2.617-4.561-5.435c-0.222-2.012,0.552-3.705,1.932-5.077
		c0.94-0.941,2.084-1.682,3.1-2.557c0.216-0.188,0.411-0.612,0.371-0.881c-0.257-1.6,0.229-3.007,0.927-4.425
		c0.465,1.19,0.908,2.32,1.358,3.457c3.82-1.676,5.758-6.578,1.414-9.274c1.411-0.559,2.951-0.323,3.94,0.651
		c1.163,1.164,1.358,2.563,0.779,4.063c-0.739,1.943-2.231,3.275-3.827,4.514C72.542,87.088,72.111,87.392,71.459,87.875z
		 M68.809,89.618c-1.09,0.571-1.95,1.595-2.34,2.974c-0.862,3.073,0.672,6.261,3.639,7.451c2.354,0.955,4.754,0.935,7.107-0.014
		c0.746-0.302,1.406-0.813,2.019-1.177C75.702,95.725,72.299,92.711,68.809,89.618z"/>
	<path fill-rule="evenodd" clip-rule="evenodd" fill="#FFFFFF" d="M99,102.255c-1.419-3.519-2.839-7.042-4.251-10.566
		c-0.935-2.307-1.87-4.613-2.785-6.934c-0.403-1.022-0.807-2.004-2.158-1.978c-0.101,0-0.209-0.228-0.309-0.35
		c0.188-0.106,0.37-0.302,0.559-0.302c2.09-0.021,4.182-0.021,6.273-0.015c0.096,0,0.216-0.026,0.283,0.015
		c0.127,0.094,0.229,0.229,0.343,0.342c-0.12,0.108-0.229,0.283-0.37,0.316c-2.098,0.539-2.104,0.539-1.304,2.609
		c1.56,4.002,3.106,8.011,4.667,12.013c0.073,0.201,0.168,0.396,0.316,0.738c0.275-0.679,0.511-1.23,0.732-1.795
		c1.46-3.808,2.932-7.606,4.365-11.427c0.564-1.52,0.403-1.729-1.211-2.017c-0.216-0.042-0.444-0.042-0.64-0.115
		c-0.135-0.06-0.321-0.235-0.309-0.337c0.014-0.12,0.209-0.321,0.329-0.321c1.903-0.021,3.813-0.021,5.717,0
		c0.107,0.007,0.302,0.18,0.297,0.262c-0.015,0.148-0.135,0.39-0.243,0.403c-1.601,0.222-1.983,1.554-2.488,2.75
		c-2.186,5.226-4.331,10.465-6.536,15.69c-0.189,0.458-0.627,0.802-0.948,1.191C99.214,102.375,99.108,102.316,99,102.255z"/>
	<path fill-rule="evenodd" clip-rule="evenodd" fill="#FFFFFF" d="M157.456,101.878c-1.491,0-2.979,0-4.565,0
		c0-0.875,0-1.708,0-2.542c0-2.812,0.007-5.623-0.013-8.434c-0.016-1.467-0.33-1.695-1.985-1.353
		c0.142-0.329,0.202-0.699,0.343-0.739c1.365-0.391,2.744-0.721,4.251-1.104c0,0.733,0,1.245,0,1.917
		c0.316-0.202,0.519-0.322,0.7-0.457c1.485-1.083,3.146-1.487,4.955-1.285c2.153,0.236,3.431,1.635,3.539,4.002
		c0.087,2.152,0.06,4.311,0.094,6.463c0.013,0.531,0.055,1.063,0.06,1.595c0.008,0.807,0.445,1.156,1.212,1.257
		c0.281,0.04,0.543,0.262,0.813,0.41c-0.047,0.088-0.089,0.182-0.128,0.276c-1.459,0-2.919,0-4.546,0c0-0.37,0.007-0.727,0-1.083
		c-0.034-2.744-0.027-5.494-0.115-8.238c-0.047-1.38-0.531-2.597-1.983-3.102c-1.507-0.53-2.905-0.275-4.069,0.849
		c-0.274,0.262-0.491,0.733-0.491,1.116c-0.047,2.684-0.04,5.373-0.02,8.057c0.013,1.312,0.201,1.486,1.459,1.722
		c0.235,0.047,0.451,0.263,0.679,0.396C157.578,101.697,157.518,101.784,157.456,101.878z"/>
	<path fill-rule="evenodd" clip-rule="evenodd" fill="#FFFFFF" d="M140.549,101.441c-1.299,1.331-3.377,1.198-4.708-0.296
		c-1.42,0.995-3.047,1.285-4.762,1.171c-1.325-0.08-2.476-0.532-3.04-1.815c-0.599-1.346-0.242-2.697,0.78-3.599
		c1.043-0.929,2.333-1.62,3.599-2.254c0.968-0.477,2.057-0.691,3.1-1.028c0.363-1.851-0.168-3.639-1.378-4.103
		c-2.657-1.022-4.049,0.592-5.086,2.73c-1.115-0.941-1.128-1.116-0.255-2.045c1.702-1.802,3.787-2.575,6.241-2.32
		c1.741,0.175,2.845,1.157,2.993,2.919c0.168,1.984,0.148,3.981,0.195,5.979c0.02,0.747-0.021,1.5,0.04,2.247
		C138.404,100.742,138.84,101.199,140.549,101.441z M135.625,95.011c-0.41,0-0.692-0.026-0.969,0.014
		c-1.755,0.27-3.402,0.72-4.001,2.69c-0.396,1.271,0.074,2.623,1.069,3.222c1.097,0.665,2.569,0.523,3.47-0.377
		c0.202-0.194,0.403-0.512,0.41-0.773C135.647,98.233,135.625,96.673,135.625,95.011z"/>
	<path fill-rule="evenodd" clip-rule="evenodd" fill="#FFFFFF" d="M45.733,95.725c0.29,4.379,4.346,6.415,9.093,4.271
		c-0.06,0.403-0.007,0.833-0.16,0.935c-2.845,1.924-8.037,2.267-10.466-1.238c-1.815-2.608-1.674-5.44-0.302-8.164
		c1.298-2.582,3.537-3.766,6.436-3.666c2.529,0.082,4.171,1.608,4.796,4.688C52.022,93.599,48.888,94.662,45.733,95.725z
		 M52.627,92.584c-0.443-0.976-0.692-1.823-1.177-2.509c-1.224-1.729-3.652-1.622-4.789,0.16c-0.76,1.191-0.976,2.523-0.981,4.091
		C47.967,93.748,50.145,93.203,52.627,92.584z"/>
	<path fill-rule="evenodd" clip-rule="evenodd" fill="#FFFFFF" d="M180.902,92.578c-3.135,1.049-6.249,2.098-9.376,3.153
		c0.209,3.431,3.726,6.935,8.938,4.352c0.108,0.201,0.229,0.396,0.344,0.592c-2.354,1.863-6.248,2.227-8.789,0.808
		c-1.973-1.11-3.041-2.832-3.216-5.079c-0.229-2.979,0.545-5.567,3.094-7.391c1.474-1.042,3.147-1.352,4.902-1.097
		C179.045,88.246,180.532,89.887,180.902,92.578z M178.447,92.578c-0.472-1.003-0.733-1.884-1.243-2.583
		c-1.11-1.514-3.317-1.547-4.461-0.121c-1.002,1.244-1.217,2.737-1.271,4.459C173.78,93.748,175.971,93.196,178.447,92.578z"/>
	<path fill-rule="evenodd" clip-rule="evenodd" fill="#FFFFFF" d="M118.685,80.74c1.472-0.155,2.945-0.302,4.552-0.47
		c0,0.477,0,0.807,0,1.137c0,5.904,0,11.803,0,17.7c0,1.695,0.014,1.688,1.615,2.118c0.195,0.049,0.335,0.324,0.665,0.66
		c-1.795,0-3.282,0-4.896,0c0-0.356,0-0.68,0-1.01c0.007-5.749,0.007-11.493,0-17.237c-0.007-0.463-0.074-0.927-0.154-1.385
		c-0.122-0.658-0.519-0.948-1.197-0.915c-0.222,0.014-0.451-0.146-0.674-0.235C118.624,80.983,118.658,80.862,118.685,80.74z"/>
	<path fill-rule="evenodd" clip-rule="evenodd" fill="#FFFFFF" d="M31.617,101.925c-1.277,0-2.556,0-3.832-0.007
		c-0.21,0-0.425-0.013-0.747-0.033c0-0.403,0-0.767,0-1.13c0-5.724,0-11.439-0.007-17.157c0-0.41-0.026-0.813-0.095-1.21
		c-0.142-0.753-0.552-1.157-1.385-1.028c-0.155,0.02-0.351-0.236-0.519-0.363c0.04-0.088,0.081-0.175,0.121-0.271
		c1.452-0.146,2.899-0.288,4.492-0.45c0,0.457,0,0.787,0,1.117c0,5.784,0,11.568,0,17.351c0,0.404,0.007,0.809,0.034,1.212
		c0.041,0.767,0.418,1.189,1.231,1.243c0.288,0.021,0.578,0.229,0.86,0.351C31.725,101.677,31.671,101.797,31.617,101.925z"/>
	<path fill-rule="evenodd" clip-rule="evenodd" fill="#FFFFFF" d="M33.777,81.426c0.269-0.35,0.382-0.645,0.537-0.666
		c1.345-0.188,2.703-0.329,4.23-0.504c0,0.525,0,0.88,0,1.243c0,5.623,0,11.252,0,16.876c0,0.523,0.055,1.055,0.055,1.586
		c0,0.82,0.417,1.164,1.203,1.237c0.282,0.026,0.544,0.257,0.82,0.396c-0.04,0.102-0.081,0.188-0.122,0.283c-2.145,0-4.29,0-6.442,0
		c-0.053-0.062-0.114-0.114-0.175-0.175c0.182-0.168,0.357-0.479,0.552-0.479c1.46-0.066,1.487-0.536,1.521-1.835
		c0.06-2.597,0.033-5.192,0.02-7.788c-0.02-2.898-0.02-5.812-0.121-8.71C35.807,81.494,35.463,81.278,33.777,81.426z"/>
	<path fill-rule="evenodd" clip-rule="evenodd" fill="#FFFFFF" d="M15.41,83.027c2.354,0,4.721,0,7.081,0
		c0.033,0.102,0.068,0.195,0.108,0.297c-0.29,0.12-0.585,0.35-0.868,0.35c-0.976-0.021-1.346,0.47-1.353,1.379
		c-0.013,1.587-0.066,3.18-0.066,4.773c-0.014,3.121-0.026,6.249,0.02,9.376c0.027,1.722,0.081,1.709,1.695,2.023
		c0.215,0.041,0.391,0.283,0.592,0.431c-0.04,0.068-0.081,0.135-0.121,0.21c-1.607,0-3.214,0-4.97,0c0-0.357,0-0.721,0-1.077
		c0.014-4.627,0.027-9.247,0.033-13.875c0.007-0.592-0.061-1.184-0.061-1.775c0.02-0.941-0.315-1.493-1.353-1.465
		c-0.281,0.007-0.571-0.195-0.86-0.304C15.329,83.255,15.362,83.141,15.41,83.027z"/>
	<path fill-rule="evenodd" clip-rule="evenodd" fill="#FFFFFF" d="M109.47,89.329c0.148-0.188,0.262-0.498,0.457-0.551
		c1.306-0.37,2.637-0.688,4.15-1.07c0,0.512,0,0.835,0,1.156c0,3.41-0.007,6.814,0.007,10.224c0,1.668,0.054,1.701,1.62,2.138
		c0.188,0.049,0.323,0.304,0.66,0.634c-1.762,0-3.242,0-4.891,0c0-0.337,0-0.693,0-1.05c0-3.309,0.014-6.624-0.026-9.934
		C111.427,89.375,111.172,89.208,109.47,89.329z"/>
	<path fill-rule="evenodd" clip-rule="evenodd" fill="#FFFFFF" d="M148.64,101.892c-1.46,0-2.919,0-4.521,0c0-0.39,0-0.753,0-1.116
		c-0.007-3.249,0.02-6.498-0.026-9.745c-0.027-1.688-0.209-1.797-2.03-1.5c0.194-0.337,0.274-0.687,0.443-0.733
		c1.338-0.384,2.696-0.707,4.21-1.09c0,0.524,0,0.861,0,1.191c0,3.275,0,6.556,0,9.838c0,0.37,0.033,0.747,0.04,1.123
		c0.026,0.862,0.437,1.306,1.332,1.346c0.255,0.014,0.497,0.25,0.746,0.383C148.767,101.697,148.707,101.791,148.64,101.892z"/>
	<path fill-rule="evenodd" clip-rule="evenodd" fill="#FFFFFF" d="M122.552,113.11c0,1.715-0.007,3.43,0,5.138
		c0.007,0.505-0.021,0.922-0.773,0.687c0-2.395,0-4.815,0-7.236c1.331-0.35,1.411-0.303,1.855,0.982
		c0.538,1.58,1.09,3.167,1.722,5.002c0.673-1.97,1.245-3.691,1.863-5.393c0.108-0.289,0.41-0.633,0.679-0.706
		c0.713-0.182,1.137,0.007,1.11,0.935c-0.081,2.112-0.027,4.237-0.027,6.43c-0.363,0.02-0.658,0.04-1.021,0.066
		c0-2.03,0-3.994,0-5.951c-0.047-0.021-0.102-0.034-0.148-0.048c-0.094,0.188-0.209,0.377-0.275,0.585
		c-0.512,1.5-0.99,3.021-1.54,4.507c-0.128,0.343-0.438,0.767-0.747,0.86c-0.625,0.195-0.604-0.457-0.733-0.826
		c-0.598-1.688-1.17-3.391-1.748-5.086C122.692,113.077,122.625,113.09,122.552,113.11z"/>
	<path fill-rule="evenodd" clip-rule="evenodd" fill="#FFFFFF" d="M143.467,118.967c-0.423,0-0.666,0-0.935,0
		c-0.033-0.148-0.08-0.262-0.08-0.377c-0.007-2.092-0.021-4.189,0.007-6.28c0.006-0.25,0.262-0.72,0.328-0.707
		c0.412,0.073,0.997,0.148,1.165,0.431c0.785,1.378,1.452,2.825,2.172,4.243c0.127,0.263,0.288,0.519,0.632,0.74
		c0-1.412,0-2.825,0-4.237c0-0.248-0.066-0.524,0.026-0.739c0.082-0.202,0.317-0.403,0.519-0.45c0.107-0.027,0.417,0.274,0.417,0.43
		c0.026,2.301,0.026,4.607,0.026,6.881c-0.888,0.288-1.332,0.033-1.688-0.747c-0.746-1.635-1.593-3.215-2.589-4.788
		C143.467,115.208,143.467,117.05,143.467,118.967z"/>
	<path fill-rule="evenodd" clip-rule="evenodd" fill="#FFFFFF" d="M59.333,118.995c0-2.381-0.013-4.661,0.021-6.935
		c0.007-0.167,0.377-0.483,0.578-0.483c0.773-0.014,1.561,0.007,2.327,0.135c0.976,0.16,1.735,0.759,1.862,1.734
		c0.155,1.149,0.203,2.354,0.028,3.505c-0.202,1.317-1.097,1.957-2.429,2.037C60.973,119.028,60.22,118.995,59.333,118.995z
		 M60.59,118.254c1.81,0.108,2.481-0.443,2.604-2.11c0.053-0.687,0.053-1.387-0.055-2.052c-0.242-1.494-0.976-1.971-2.549-1.735
		C60.59,114.3,60.59,116.25,60.59,118.254z"/>
	<path fill-rule="evenodd" clip-rule="evenodd" fill="#FFFFFF" d="M100.606,118.96c-0.41,0.021-0.713,0.04-1.108,0.061
		c-0.148-0.646-0.276-1.271-0.451-1.882c-0.101-0.357-0.195-0.801-0.45-0.99c-0.344-0.262-0.835-0.349-1.278-0.396
		c-0.067-0.014-0.269,0.586-0.296,0.915c-0.041,0.74-0.006,1.486-0.006,2.28c-0.412,0-0.728,0-1.104,0c0-2.442,0-4.855,0-7.446
		c1.048,0.075,2.071,0.089,3.073,0.243c0.712,0.114,1.23,0.592,1.358,1.365c0.129,0.813-0.115,1.473-0.854,1.91
		c-0.127,0.067-0.249,0.141-0.437,0.235C100.512,116.149,100.223,117.635,100.606,118.96z M97.016,112.135
		c0,0.948-0.014,1.687,0.013,2.42c0,0.148,0.202,0.432,0.235,0.424c0.585-0.188,1.312-0.269,1.701-0.658
		c0.49-0.49,0.438-1.299-0.194-1.716C98.326,112.317,97.701,112.303,97.016,112.135z"/>
	<path fill-rule="evenodd" clip-rule="evenodd" fill="#FFFFFF" d="M91.582,118.908c-0.774,0.229-1.278,0.161-1.434-0.707
		c-0.08-0.47-0.262-1.217-0.552-1.305c-0.685-0.202-1.52-0.242-2.198-0.034c-0.35,0.115-0.559,0.882-0.7,1.386
		c-0.168,0.626-0.423,0.941-1.203,0.653c0.297-0.929,0.592-1.857,0.901-2.778c0.45-1.358,0.88-2.724,1.386-4.056
		c0.086-0.229,0.463-0.45,0.72-0.483c0.241-0.021,0.665,0.168,0.731,0.356C90.042,114.247,90.807,116.574,91.582,118.908z
		 M89.516,116.095c-0.356-1.156-0.673-2.198-1.076-3.51c-0.41,1.338-0.727,2.394-1.063,3.51
		C88.125,116.095,88.743,116.095,89.516,116.095z"/>
	<path fill-rule="evenodd" clip-rule="evenodd" fill="#FFFFFF" d="M114.427,115.463c0,0.989,0,1.829,0,2.711
		c0.935,0.073,1.849,0.142,2.758,0.234c0.02,0,0,0.33,0,0.552c-1.313,0-2.589,0-3.914,0c0-2.441,0-4.855,0-7.263
		c1.735-0.404,3.61-0.189,3.819,0.551c-0.457,0-0.867,0-1.291,0c-0.43,0-0.861,0-1.345,0c0,0.882,0,1.675,0,2.57
		c0.665,0,1.283-0.027,1.896,0.02c0.215,0.014,0.417,0.222,0.625,0.344c-0.201,0.094-0.396,0.255-0.599,0.269
		C115.766,115.491,115.148,115.463,114.427,115.463z"/>
	<path fill-rule="evenodd" clip-rule="evenodd" fill="#FFFFFF" d="M77.552,111.508c0.968,0.062,1.87,0.068,2.75,0.189
		c1.063,0.141,1.587,0.787,1.622,1.85c0.033,1.063-0.552,1.843-1.547,2.051c-0.525,0.101-1.057,0.127-1.676,0.202
		c0,1.035,0,2.051,0,3.154c-0.43,0.02-0.76,0.04-1.149,0.06C77.552,116.54,77.552,114.119,77.552,111.508z M78.696,115.315
		c0.76-0.35,1.5-0.477,1.802-0.899c0.256-0.37,0.234-1.259-0.047-1.608c-0.323-0.403-1.063-0.471-1.755-0.733
		C78.696,113.223,78.696,114.079,78.696,115.315z"/>
	<path fill-rule="evenodd" clip-rule="evenodd" fill="#FFFFFF" d="M134.025,111.664c2.132-0.37,3.719-0.155,3.794,0.564
		c-0.842,0-1.669,0-2.684,0c0,0.768-0.033,1.467,0.033,2.159c0.014,0.155,0.35,0.383,0.559,0.41c0.491,0.062,0.995,0,1.493,0.041
		c0.168,0.014,0.315,0.195,0.47,0.302c-0.147,0.108-0.296,0.297-0.456,0.304c-0.646,0.04-1.299,0.02-2.025,0.02
		c0,0.962,0,1.843,0,2.791c0.76,0,1.474-0.027,2.186,0.021c0.203,0.013,0.39,0.234,0.585,0.368c-0.2,0.122-0.403,0.337-0.611,0.351
		c-1.089,0.026-2.18,0.013-3.343,0.013C134.025,116.547,134.025,114.138,134.025,111.664z"/>
	<path fill-rule="evenodd" clip-rule="evenodd" fill="#FFFFFF" d="M69.064,119.007c0-2.521,0-4.915,0-7.444
		c1.197,0,2.374-0.02,3.537,0.021c0.148,0.007,0.276,0.323,0.545,0.665c-1.116,0-1.977,0-2.905,0c0,0.868,0,1.655,0,2.576
		c0.721,0,1.393-0.027,2.072,0.014c0.154,0.007,0.302,0.202,0.457,0.309c-0.155,0.102-0.296,0.29-0.457,0.304
		c-0.674,0.033-1.352,0.013-2.085,0.013c0,0.976,0,1.829,0,2.758c0.895,0,1.762,0,2.623,0c0.061,0.081,0.127,0.161,0.195,0.241
		c-0.175,0.182-0.344,0.512-0.532,0.519C71.398,119.028,70.281,119.007,69.064,119.007z"/>
	<path fill-rule="evenodd" clip-rule="evenodd" fill="#FFFFFF" d="M45.808,115.47c0,0.982,0,1.815,0,2.657
		c0.935,0.12,1.849,0.229,2.764,0.363c0.021,0.007,0,0.275,0,0.47c-1.318,0-2.582,0-3.887,0c0-2.468,0-4.882,0-7.29
		c2.044-0.377,3.712-0.162,3.807,0.571c-0.868,0-1.735,0-2.657,0c0,0.875,0,1.669,0,2.577c0.49,0,0.949-0.035,1.398,0.013
		c0.391,0.04,0.768,0.188,1.144,0.296c-0.37,0.107-0.72,0.276-1.09,0.323C46.83,115.51,46.367,115.47,45.808,115.47z"/>
	<path fill-rule="evenodd" clip-rule="evenodd" fill="#FFFFFF" d="M156.583,112.228c-0.519,0-1.043,0-1.688,0
		c0,2.274,0,4.473,0,6.72c-0.45,0-0.78,0-1.217,0c0-2.192,0-4.393,0-6.651c-0.625-0.028-1.144-0.055-1.662-0.074
		c-0.053-0.074-0.113-0.148-0.168-0.216c0.188-0.154,0.377-0.43,0.571-0.43c1.245-0.04,2.496-0.04,3.747,0
		c0.182,0,0.362,0.275,0.544,0.424C156.669,112.074,156.623,112.155,156.583,112.228z"/>
	<path fill-rule="evenodd" clip-rule="evenodd" fill="#FFFFFF" d="M107.312,118.96c-0.443,0-0.747,0-1.184,0
		c0-2.185,0-4.385,0-6.664c-0.667-0.028-1.21-0.055-1.755-0.081c-0.049-0.08-0.096-0.169-0.142-0.249
		c0.194-0.135,0.39-0.376,0.598-0.396c2.402-0.257,3.996-0.04,4.204,0.646c-0.565,0-1.104,0-1.722,0
		C107.312,114.502,107.312,116.674,107.312,118.96z"/>
	<path fill-rule="evenodd" clip-rule="evenodd" fill="#FFFFFF" d="M36.567,118.96c0-2.165,0-4.257,0-6.349c0-0.309,0-0.611,0-0.988
		c0.391,0,0.714,0,1.13,0c0,2.186,0,4.358,0,6.551c0.982,0.073,1.869,0.135,2.758,0.229c0.013,0,0,0.336,0,0.558
		C39.184,118.96,37.946,118.96,36.567,118.96z"/>
	<path fill-rule="evenodd" clip-rule="evenodd" fill="#FFFFFF" d="M146.796,84.722c0.014,0.908-0.72,1.646-1.647,1.66
		c-0.955,0.008-1.647-0.679-1.661-1.62c-0.007-0.948,0.687-1.66,1.622-1.669C146.023,83.081,146.783,83.814,146.796,84.722z"/>
	<path fill-rule="evenodd" clip-rule="evenodd" fill="#FFFFFF" d="M112.51,86.382c-0.955,0.008-1.647-0.672-1.654-1.62
		c-0.014-0.948,0.673-1.66,1.615-1.669c0.913-0.013,1.68,0.721,1.687,1.629C114.171,85.63,113.439,86.369,112.51,86.382z"/>
	<path fill-rule="evenodd" clip-rule="evenodd" fill="#FFFFFF" d="M67.437,84.204c-1.285-2.186-1.258-1.372,0.37-3.416
		C69.091,82.119,69.071,82.334,67.437,84.204z"/>
	<path fill-rule="evenodd" clip-rule="evenodd" fill="#FFFFFF" d="M70.059,78.353c1.238,1.58,1.211,1.809-0.423,3.511
		c-0.323-0.586-0.632-1.15-0.969-1.756C69.137,79.523,69.596,78.945,70.059,78.353z"/>
	<path fill-rule="evenodd" clip-rule="evenodd" fill="#FFFFFF" d="M71.775,80.753c1.196,2.092,1.278,1.352-0.384,3.384
		C70.113,82.914,70.167,82.388,71.775,80.753z"/>
</g>
</svg>
