<?xml version="1.0" encoding="utf-8"?>
<!-- Generator: Adobe Illustrator 16.0.0, SVG Export Plug-In . SVG Version: 6.00 Build 0)  -->
<!DOCTYPE svg PUBLIC "-//W3C//DTD SVG 1.1//EN" "http://www.w3.org/Graphics/SVG/1.1/DTD/svg11.dtd">
<svg version="1.1" id="Calque_1" xmlns="http://www.w3.org/2000/svg" xmlns:xlink="http://www.w3.org/1999/xlink" x="0px" y="0px"
	 width="418.519px" height="135.185px" viewBox="0 0 418.519 135.185" enable-background="new 0 0 418.519 135.185"
	 xml:space="preserve">
<g>
	<path fill-rule="evenodd" clip-rule="evenodd" fill="#ED2941" d="M341.097,9.872c0,4.078,0,8.158,0,12.384
		c-9.758,0-19.181,0-29.289,0c1.117-0.574,1.683-0.92,2.287-1.177c8.104-3.362,16.207-6.712,24.305-10.077
		c0.754-0.32,1.461-0.75,2.2-1.13C340.769,9.872,340.935,9.872,341.097,9.872z"/>
	<path fill-rule="evenodd" clip-rule="evenodd" fill="#FFFFFF" d="M41.702,50.259c0,8.117,0,16.244,0,24.715
		c-2.556,0-4.97,0.161-7.344-0.101c-0.595-0.066-1.436-1.438-1.479-2.254c-0.299-4.845-0.542-9.713-0.542-14.573
		c0-8.306,0.185-16.609,0.309-24.907c0.013-0.655,0.152-1.318,0.219-1.91c0.255-0.117,0.4-0.212,0.551-0.25
		c6.389-1.687,10.485,0.519,12.95,6.783c1.521,3.848,4.046,7.301,6.302,11.27c2.976-5.327,5.868-10.308,8.544-15.402
		c1.015-1.926,2.125-2.892,4.419-2.63c2.146,0.243,4.334,0.048,6.678,0.048c0,14.634,0,29.101,0,43.753c-2.993,0-5.942,0-9.459,0
		c0-7.624,0-15.109,0-22.595c-0.272-0.04-0.548-0.074-0.817-0.114c-2.031,4.641-4.25,9.204-6.022,13.942
		c-0.817,2.195-2.183,2.282-4.001,2.451c-1.896,0.168-2.159-1.11-2.687-2.345c-2.021-4.688-4.072-9.372-6.137-14.042
		c-0.306-0.687-0.703-1.329-1.066-1.987C41.981,50.161,41.843,50.208,41.702,50.259z"/>
	<path fill-rule="evenodd" clip-rule="evenodd" fill="#FFFFFF" d="M121.617,50.295c-9.379,3.86-18.536,7.641-27.79,11.45
		c4.627,4.826,13.031,6.907,23.146-4.796c1.937,2.059,3.854,4.103,5.723,6.09c-3.965,7.993-13.168,12.701-22.789,11.801
		c-8.541-0.807-15.633-7.099-18.189-16.182c-1.466-5.209-1.607-10.438,0.131-15.6c3.175-9.405,14.305-14.823,23.744-11.269
		C114.074,34.987,118.573,41.885,121.617,50.295z M108.943,45.938c-3.043-5.33-9.137-7.233-14.1-4.594
		c-4.201,2.225-6.043,7.717-3.877,11.914C96.888,50.847,102.83,48.426,108.943,45.938z"/>
	<path fill-rule="evenodd" clip-rule="evenodd" fill="#FFFFFF" d="M124.774,30.992c8.236-0.218,16.471-1.459,24.397,1.367
		c10.071,3.597,14.672,13.51,13.32,23.911c-1.379,10.622-9.94,18.3-20.234,18.556c-5.767,0.141-11.541,0.027-17.483,0.027
		C124.774,60.296,124.774,45.833,124.774,30.992z M134.638,40.607c0,8.477,0,16.654,0,25.122c5.867,0.011,11.739,0.709,15.626-4.876
		c3.39-4.882,3.427-9.983,0.478-15.136C146.968,39.141,140.673,40.688,134.638,40.607z"/>
	<path fill-rule="evenodd" clip-rule="evenodd" fill="#FFFFFF" d="M225.602,74.981c-3.739,0-7.008,0.073-10.263-0.055
		c-0.636-0.027-1.254-0.773-1.847-1.237c-0.174-0.142-0.225-0.437-0.329-0.673c-1.134-2.4-1.671-5.743-3.568-6.95
		c-1.927-1.231-5.186-0.388-7.861-0.417c-2.432-0.026-4.87,0.098-7.294-0.048c-1.62-0.087-2.481,0.524-2.956,2.012
		c-0.313,0.944-0.935,1.813-1.143,2.781c-0.858,4.062-3.41,5.198-7.27,4.646c-1.799-0.27-3.666-0.055-5.858-0.055
		c0.915-2.198,1.675-4.122,2.505-5.997c5.287-12.117,10.606-24.213,15.862-36.331c0.605-1.4,1.342-2.008,2.963-2.008
		c7.569-0.007,7.569-0.07,10.605,6.795c5.102,11.552,10.199,23.105,15.294,34.664C224.805,72.93,225.118,73.776,225.602,74.981z
		 M201.615,42.826c-0.238,0-0.473-0.007-0.716-0.007c-1.91,4.365-3.816,8.729-5.73,13.102c4.17,0,8.08,0,12.352,0
		C205.413,51.256,203.516,47.047,201.615,42.826z"/>
	<path fill-rule="evenodd" clip-rule="evenodd" fill="#FFFFFF" d="M340.99,65.703c0,3.271,0,6.097,0,9.104
		c-9.766,0-19.443,0-29.299,0c-0.055-0.815-0.148-1.541-0.148-2.273c-0.013-12.927,0-25.854-0.02-38.773
		c-0.004-1.341-0.061-2.599,1.793-2.599c9.119,0,18.232,0,27.539,0c0,2.942,0,5.747,0,8.854c-6.2,0-12.435,0-18.816,0
		c0,2.848,0,5.403,0,8.302c5.447,0,10.848,0,16.355,0c0,3.167,0,5.992,0,9.234c-5.455,0-10.849,0-16.369,0c0,2.908,0,5.394,0,8.151
		C328.252,65.703,334.494,65.703,340.99,65.703z"/>
	<path fill-rule="evenodd" clip-rule="evenodd" fill="#FFFFFF" d="M375.398,36.897c-1.561,2.316-3.141,4.668-4.809,7.149
		c-1.924-1.021-3.727-2.031-5.569-2.952c-2.502-1.251-5.071-1.467-7.808-0.683c-1.938,0.555-2.631,1.953-2.28,3.562
		c0.188,0.918,1.386,1.926,2.354,2.299c3.269,1.278,6.657,2.254,9.975,3.41c7.061,2.472,9.866,6.296,9.55,12.94
		c-0.297,6.277-3.928,10.448-10.963,11.847c-7.882,1.573-15.125-0.188-21.508-5.199c-0.457-0.356-0.975-0.639-1.547-1.006
		c2.078-2.612,3.834-4.831,5.381-6.772c3.551,1.443,6.792,3.034,10.195,4.005c1.822,0.519,4.027,0.264,5.904-0.225
		c1.021-0.27,2.247-1.678,2.402-2.71c0.133-0.895-0.916-2.341-1.824-2.912c-1.458-0.904-3.227-1.318-4.889-1.884
		c-2.455-0.83-4.99-1.453-7.377-2.438c-7.251-2.996-9.477-8.08-7.029-15.576c1.164-3.589,3.525-6.05,6.9-7.553
		C359.505,29.066,369.782,31.147,375.398,36.897z"/>
	<path fill-rule="evenodd" clip-rule="evenodd" fill="#FFFFFF" d="M252.426,45.11c-2.788-1.467-5.037-3.027-7.526-3.875
		c-5.202-1.769-9.919-0.16-12.97,3.972c-3.306,4.489-3.484,10.445-0.437,15.082c2.956,4.517,7.603,6.101,13.215,4.224
		c2.6-0.875,5.031-2.22,7.822-3.475c1.803,1.642,3.837,3.495,5.858,5.338c-7.19,9.66-21.962,11.584-31.26,4.18
		c-9.456-7.529-10.512-23.078-2.22-32.749c8.394-9.789,22.409-9.272,34.283,1.502C256.855,41.31,254.545,43.287,252.426,45.11z"/>
	<path fill-rule="evenodd" clip-rule="evenodd" fill="#FFFFFF" d="M286.339,41.35c-1.352-0.107-2.357-0.332-3.329-0.222
		c-2.102,0.227-2.937-0.716-2.845-2.703c0.101-2.059,0.215-4.109,0.333-6.38c2.104,0,3.833,0,5.854,0c0-3.958,0-7.687,0-11.553
		c3.181,0,6.06,0,9.234,0c0,3.81,0,7.461,0,11.371c4.351,0,8.43,0,12.688,0c0,3.064,0,5.868,0,9.086
		c-3.229,0-6.471,0.139-9.688-0.043c-2.246-0.124-2.949,0.703-2.912,2.861c0.095,5.199,0.023,10.407,0.023,15.606
		c-0.003,2.22,0.545,4.29,2.62,5.35c2.188,1.124,4.24,0.213,6.066-1.152c0.867-0.643,1.684-1.346,2.73-2.199
		c0.787,2.564,1.574,4.909,2.172,7.307c0.141,0.572-0.138,1.534-0.576,1.931c-4.095,3.779-8.904,5.285-14.378,3.974
		c-5.356-1.283-7.926-5.138-7.979-11.816c-0.057-6.123-0.014-12.253-0.014-18.376C286.339,43.476,286.339,42.564,286.339,41.35z"/>
	<path fill-rule="evenodd" clip-rule="evenodd" fill="#FFFFFF" d="M273.83,74.88c-3.229,0-6.309,0-9.705,0
		c-0.188-1.903-0.524-3.787-0.531-5.669c-0.051-12.002,0.006-23.99-0.064-35.985c-0.003-1.94,0.562-2.714,2.597-2.575
		c2.492,0.168,5.007,0.04,7.703,0.04C273.83,45.47,273.83,60.023,273.83,74.88z"/>
	<path fill-rule="evenodd" clip-rule="evenodd" fill="#FFFFFF" d="M164.858,30.832c3.46,0,6.779,0,10.246,0
		c0.067,0.77,0.168,1.412,0.168,2.055c0.006,13.084-0.044,26.165,0.051,39.249c0.017,2.139-0.72,2.824-2.738,2.744
		c-2.495-0.102-5-0.026-7.728-0.026C164.858,60.209,164.858,45.661,164.858,30.832z"/>
	<g>
		<path fill-rule="evenodd" clip-rule="evenodd" fill="#FFFFFF" d="M124.946,112.817c-3.083,2.059-5.578,2.172-7.791,0.465
			c-2.458-1.902-3.306-5.965-1.971-9.449c1.066-2.799,3.175-4.256,5.916-4.136c0.77,0.026,1.466,0.229,2.159,0.577
			c0.723,0.363,1.459,1.816,2.243-0.152c0.195-0.492,1.97-0.868,1.97,0.893c0.013,4.775,0.239,9.578-0.091,14.338
			c-0.306,4.379-7.173,7.043-10.801,4.447c-0.703-0.512-0.616-1.178-0.512-1.797c0.168-0.98,0.781-0.498,1.322-0.295
			c0.548,0.195,1.13,0.303,1.702,0.418C123.09,118.891,125.134,117.102,124.946,112.817z M125.091,107.196
			c-0.044-3.875-2.431-6.154-5.287-4.984c-2.219,0.908-2.545,2.934-2.606,4.99c-0.101,3.033,1.557,5.133,3.938,5.119
			C123.544,112.307,125.121,110.256,125.091,107.196z"/>
		<path fill-rule="evenodd" clip-rule="evenodd" fill="#FFFFFF" d="M335.898,112.065c0.129,1.104,0.357,1.85-0.698,2.387
			c-2.3,1.158-6.745,0.553-8.765-1.324c-2.271-2.111-2.951-6.066-1.619-9.328c1.149-2.799,3.503-4.271,6.537-4.09
			c3.686,0.236,6.504,4.145,5.662,7.734c-0.248,1.084-0.929,1.01-1.674,1.01c-2.267,0-4.533,0.053-6.801-0.02
			c-1.93-0.063-1.943,0.779-1.129,2.111c1.393,2.299,3.625,2.453,5.958,2.199C334.185,112.657,334.971,112.321,335.898,112.065z
			 M330.767,106.295c0.41,0,0.861,0.105,1.23-0.021c0.835-0.283,2.214,0.793,2.469-0.699c0.215-1.266-0.424-2.461-1.6-3.148
			c-1.508-0.873-3.034-0.766-4.42,0.277c-0.968,0.732-1.775,1.85-1.5,2.971c0.311,1.271,1.689,0.391,2.569,0.605
			C329.906,106.368,330.344,106.295,330.767,106.295z"/>
		<path fill-rule="evenodd" clip-rule="evenodd" fill="#FFFFFF" d="M76.967,108.454c-1.002,0-2.014-0.035-3.009,0.014
			c-0.643,0.033-1.51-0.338-1.86,0.355c-0.417,0.842,0.168,1.654,0.73,2.26c1.883,2.045,4.217,2.064,6.709,1.371
			c0.437-0.113,1.167-0.807,1.459,0.049c0.218,0.639,0.278,1.398-0.649,1.908c-2.082,1.137-6.51,0.654-8.571-1.074
			c-2.509-2.092-3.313-5.992-1.954-9.457c1.066-2.709,3.342-4.229,6.231-4.176c3.908,0.081,6.807,3.785,6.03,7.641
			c-0.168,0.832-0.545,1.129-1.335,1.109C79.485,108.434,78.228,108.454,76.967,108.454z M75.638,106.295
			c0.501,0,1.016,0.08,1.49-0.016c0.811-0.174,2.065,0.6,2.364-0.543c0.336-1.252-0.292-2.502-1.426-3.215
			c-1.759-1.09-3.494-0.896-4.983,0.57c-0.717,0.715-1.379,1.695-1.079,2.65c0.362,1.137,1.577,0.35,2.394,0.537
			C74.791,106.368,75.222,106.295,75.638,106.295z"/>
		<path fill-rule="evenodd" clip-rule="evenodd" fill="#FFFFFF" d="M384.604,107.35c0.028,4.646-2.757,7.768-6.974,7.836
			c-4.129,0.074-7.184-3.201-7.17-7.693c0.02-4.527,2.974-7.783,7.069-7.796C381.833,99.683,384.578,102.649,384.604,107.35z
			 M382.048,107.479c0.033-3.418-1.62-5.563-4.363-5.672c-2.564-0.1-4.574,2.268-4.656,5.496c-0.08,3.141,1.877,5.596,4.467,5.637
			C380.24,112.965,382.015,110.84,382.048,107.479z"/>
		<path fill-rule="evenodd" clip-rule="evenodd" fill="#FFFFFF" d="M291.895,107.458c-0.024,4.635-2.855,7.729-7.076,7.729
			c-4.129,0.006-7.146-3.324-7.058-7.789c0.087-4.559,3.029-7.714,7.162-7.7C289.191,99.716,291.921,102.756,291.895,107.458z
			 M289.345,107.297c-0.029-3.371-1.816-5.523-4.547-5.496c-2.541,0.027-4.505,2.516-4.475,5.678c0.023,3.199,2.008,5.52,4.65,5.461
			C287.681,112.872,289.375,110.678,289.345,107.297z"/>
		<path fill-rule="evenodd" clip-rule="evenodd" fill="#FFFFFF" d="M169.411,99.697c4.315-0.021,7.065,2.925,7.109,7.62
			c0.037,4.646-2.73,7.781-6.947,7.869c-4.133,0.086-7.196-3.176-7.196-7.66C162.376,103.006,165.325,99.723,169.411,99.697z
			 M173.964,107.383c0-3.389-1.728-5.549-4.459-5.588c-2.555-0.041-4.54,2.395-4.566,5.602c-0.023,3.162,1.954,5.555,4.573,5.549
			C172.222,112.926,173.964,110.747,173.964,107.383z"/>
		<path fill-rule="evenodd" clip-rule="evenodd" fill="#FFFFFF" d="M132.23,102.844c-0.848-1.971,0.225-2.643,1.825-3.006
			c5.195-1.17,7.977,1.002,7.99,6.268c0.006,2.428-0.081,4.869,0.037,7.289c0.08,1.877-1.436,1.852-2.035,1.273
			c-0.891-0.855-1.344-0.438-2.111-0.137c-1.611,0.646-3.262,0.721-4.853-0.113c-1.463-0.766-2.206-2.012-2.243-3.65
			c-0.043-1.742,0.666-3.082,2.232-3.916c1.302-0.691,2.738-0.658,4.15-0.814c0.807-0.08,2.253,0.842,2.32-0.914
			c0.064-1.412-0.424-2.602-2.014-3.088C135.616,101.458,133.944,102.272,132.23,102.844z M138.191,107.948
			c-3.144-0.039-4.788,0.828-4.771,2.549c0.02,1.797,1.16,2.443,2.794,2.436c2.102-0.006,3.322-1.311,3.396-3.43
			C139.644,108.352,139.362,107.719,138.191,107.948z"/>
		<path fill-rule="evenodd" clip-rule="evenodd" fill="#FFFFFF" d="M215.837,102.844c-0.686-1.949,0.215-2.617,1.758-2.98
			c5.263-1.256,8.081,0.941,8.095,6.391c0,2.42-0.068,4.861,0.026,7.297c0.04,1.23-0.925,1.762-1.449,1.217
			c-1.446-1.479-2.569-0.08-3.776,0.115c-3.121,0.504-5.545-0.861-5.942-3.512c-0.427-2.832,1.214-4.748,4.456-5.172
			c0.669-0.086,1.362,0.008,2.004-0.135c0.767-0.168,2.059,0.693,2.176-0.84c0.097-1.299-0.283-2.502-1.672-3.066
			C219.536,101.352,217.747,102.206,215.837,102.844z M221.769,107.948c-3.198-0.006-4.782,0.883-4.715,2.631
			c0.074,1.795,1.258,2.381,2.869,2.354c2.095-0.039,3.279-1.379,3.329-3.504C223.289,108.17,222.814,107.754,221.769,107.948z"/>
		<path fill-rule="evenodd" clip-rule="evenodd" fill="#FFFFFF" d="M390.044,101.834c2.072-2.151,4.23-2.717,6.646-1.713
			c2.522,1.049,2.784,3.275,2.724,5.648c-0.053,2.434-0.02,4.869-0.014,7.289c0.008,0.928,0.182,1.838-1.311,1.824
			c-1.459-0.021-1.049-0.988-1.069-1.715c-0.034-2.348-0.013-4.695-0.013-7.041c0-2.047-0.237-3.977-2.853-4.205
			c-2.179-0.182-4.009,1.561-4.163,4.109c-0.127,2.254-0.014,4.527-0.067,6.779c-0.021,0.875,0.532,2.111-1.259,2.059
			c-1.814-0.047-1.135-1.332-1.156-2.152c-0.061-3.686-0.047-7.371-0.014-11.057c0.007-0.74-0.396-1.715,1.023-1.83
			C389.904,99.716,389.992,100.538,390.044,101.834z"/>
		<path fill-rule="evenodd" clip-rule="evenodd" fill="#FFFFFF" d="M297.806,101.834c2.166-2.198,4.408-2.776,6.877-1.627
			c2.475,1.145,2.59,3.438,2.531,5.783c-0.057,2.428-0.029,4.863-0.006,7.299c0.014,0.914-0.018,1.58-1.285,1.594
			c-1.432,0.014-1.104-0.922-1.109-1.682c-0.017-2.516,0.014-5.031-0.014-7.539c-0.023-1.797-0.424-3.457-2.569-3.693
			c-2.243-0.254-3.763,0.941-4.243,3.055c-0.619,2.709-0.118,5.506-0.262,8.266c-0.027,0.584,0.342,1.438-0.73,1.539
			c-0.972,0.094-1.771,0.127-1.745-1.324c0.087-4.021,0.024-8.045,0.037-12.066c0-0.713-0.219-1.498,0.999-1.607
			C297.625,99.716,297.82,100.456,297.806,101.834z"/>
		<path fill-rule="evenodd" clip-rule="evenodd" fill="#FFFFFF" d="M232.257,101.922c2.236-2.299,4.408-2.805,6.806-1.768
			c2.384,1.027,2.707,3.146,2.653,5.453c-0.063,2.596-0.057,5.199,0.003,7.787c0.021,1.064-0.299,1.48-1.416,1.48
			c-1.295-0.006-0.985-0.867-0.988-1.547c-0.021-2.428,0.01-4.855-0.014-7.291c-0.026-2.836-0.917-4.055-2.932-4.121
			c-2.098-0.074-3.89,1.547-4.065,3.947c-0.162,2.254,0.007,4.527-0.097,6.785c-0.044,0.801,0.74,2.119-1.08,2.213
			c-1.984,0.102-1.308-1.318-1.322-2.232c-0.057-3.604-0.05-7.203-0.007-10.801c0.007-0.801-0.491-1.924,1.103-1.998
			C232.28,99.764,232.337,100.604,232.257,101.922z"/>
		<path fill-rule="evenodd" clip-rule="evenodd" fill="#FFFFFF" d="M41.884,101.834c2.091-2.158,4.257-2.723,6.665-1.713
			c2.525,1.061,2.768,3.295,2.71,5.668c-0.061,2.516-0.044,5.031,0,7.539c0.014,0.988-0.142,1.547-1.345,1.547
			c-1.23,0.008-1.063-0.732-1.063-1.48c0-2.426,0-4.855,0-7.281c0-2.053-0.256-3.977-2.872-4.191
			c-2.182-0.174-3.991,1.58-4.143,4.123c-0.134,2.26-0.017,4.527-0.067,6.793c-0.02,0.881,0.498,2.084-1.285,2.037
			c-1.6-0.039-1.133-1.129-1.146-1.924c-0.031-3.773-0.031-7.539,0-11.313c0.007-0.744-0.367-1.693,1.042-1.814
			C41.796,99.709,41.833,100.571,41.884,101.834z"/>
		<path fill-rule="evenodd" clip-rule="evenodd" fill="#FFFFFF" d="M182.536,101.76c2.082-2.137,4.254-2.643,6.648-1.605
			c2.388,1.027,2.704,3.152,2.649,5.453c-0.063,2.602-0.05,5.199,0,7.787c0.024,1.07-0.296,1.48-1.416,1.48
			c-1.298-0.006-0.972-0.867-0.978-1.547c-0.028-2.428,0.006-4.861-0.021-7.291c-0.023-2.836-0.915-4.061-2.929-4.121
			c-2.108-0.066-3.891,1.547-4.065,3.953c-0.162,2.254,0.01,4.521-0.101,6.779c-0.037,0.801,0.744,2.125-1.079,2.213
			c-1.981,0.094-1.309-1.324-1.322-2.24c-0.061-3.596-0.05-7.195-0.007-10.801c0.014-0.793-0.484-1.889,1.109-1.996
			C182.468,99.723,182.317,100.725,182.536,101.76z"/>
		<path fill-rule="evenodd" clip-rule="evenodd" fill="#FFFFFF" d="M13.237,104.944c0-2.518-0.061-5.039,0.03-7.555
			c0.033-0.887-0.747-2.326,1.197-2.4c1.978-0.073,1.292,1.379,1.298,2.287c0.063,4.277,0.118,8.561-0.014,12.832
			c-0.054,1.902,0.376,2.791,2.465,2.57c1.57-0.176,3.185-0.016,4.782-0.049c0.791-0.014,1.217,0.174,1.221,1.109
			c0.007,0.902-0.343,1.131-1.17,1.117c-2.852-0.033-5.707-0.055-8.555,0.006c-1.278,0.027-1.265-0.713-1.261-1.621
			C13.25,110.477,13.237,107.713,13.237,104.944z"/>
		<path fill-rule="evenodd" clip-rule="evenodd" fill="#FFFFFF" d="M85.024,111.963c1.439,0.512,2.835,1.057,4.395,0.9
			c1.049-0.105,2.031-0.254,2.276-1.506c0.232-1.189-0.468-1.902-1.422-2.387c-1.036-0.531-2.132-0.963-3.168-1.492
			c-1.621-0.85-2.6-2.168-2.381-4.049c0.228-1.998,1.594-3.123,3.437-3.533c1.462-0.327,2.979-0.287,4.456,0.225
			c0.917,0.309,0.773,0.98,0.75,1.619c-0.044,1.104-0.801,0.49-1.272,0.451c-0.917-0.061-1.836-0.262-2.737-0.236
			c-0.975,0.021-1.866,0.438-2.115,1.461c-0.263,1.068,0.431,1.748,1.292,2.199c1.109,0.584,2.27,1.068,3.379,1.646
			c1.85,0.969,2.674,2.523,2.257,4.574c-0.407,2.004-1.883,2.912-3.783,3.08c-1.245,0.094-2.509,0.006-3.75-0.143
			C84.936,114.592,84.354,113.645,85.024,111.963z"/>
		<path fill-rule="evenodd" clip-rule="evenodd" fill="#FFFFFF" d="M202.907,111.911c1.614,0.725,3.137,1.115,4.761,0.934
			c0.888-0.1,1.692-0.396,1.91-1.346c0.225-0.98-0.114-1.822-1.072-2.299c-1.124-0.551-2.264-1.057-3.373-1.641
			c-1.79-0.941-2.896-2.354-2.444-4.467c0.443-2.084,2.007-3.053,3.964-3.301c1.227-0.148,2.481-0.128,3.729,0.268
			c1.042,0.33,0.962,1.043,0.868,1.775c-0.151,1.098-0.918,0.377-1.355,0.33c-1.718-0.195-3.934-1.016-4.607,1.143
			c-0.729,2.348,1.87,2.529,3.286,3.297c1.348,0.727,2.744,1.371,3.372,2.844c0.979,2.309-0.44,4.768-3.016,5.381
			c-1.503,0.35-3,0.168-4.496-0.055C202.863,114.553,202.319,113.653,202.907,111.911z"/>
		<path fill-rule="evenodd" clip-rule="evenodd" fill="#FFFFFF" d="M245.143,111.903c1.648,0.666,3.231,1.164,4.927,0.928
			c0.884-0.119,1.658-0.424,1.846-1.404c0.162-0.896-0.094-1.689-0.948-2.139c-1.177-0.613-2.401-1.15-3.578-1.775
			c-1.709-0.895-2.73-2.26-2.415-4.264c0.319-1.986,1.752-3.033,3.584-3.391c1.298-0.255,2.65-0.222,3.978,0.148
			c0.955,0.262,1.137,0.82,1.069,1.662c-0.107,1.322-0.961,0.457-1.473,0.482c-0.407,0.027-0.817-0.174-1.234-0.201
			c-1.365-0.088-2.905-0.189-3.379,1.418c-0.475,1.58,0.958,2.092,2.075,2.67c1.103,0.58,2.27,1.078,3.312,1.756
			c1.426,0.922,1.758,2.383,1.506,3.975c-0.249,1.588-1.315,2.529-2.754,2.953c-1.802,0.531-3.655,0.357-5.461-0.1
			C244.708,114.245,244.938,113.147,245.143,111.903z"/>
		<path fill-rule="evenodd" clip-rule="evenodd" fill="#FFFFFF" d="M339.92,112.01c1.365,0.311,2.644,0.996,4.089,0.869
			c1.109-0.096,2.28-0.082,2.617-1.428c0.316-1.283-0.492-2.037-1.541-2.555s-2.125-0.969-3.16-1.5
			c-1.553-0.807-2.436-2.111-2.267-3.867c0.168-1.869,1.365-3.027,3.114-3.531c1.56-0.442,3.127-0.375,4.693,0.088
			c1.07,0.311,0.936,1.09,0.813,1.797c-0.194,1.061-0.947,0.309-1.392,0.268c-1.723-0.168-3.907-0.98-4.58,1.203
			c-0.686,2.215,1.775,2.402,3.135,3.17c1.23,0.691,2.588,1.195,3.314,2.541c1.258,2.307,0.055,5.031-2.588,5.723
			c-1.48,0.391-2.994,0.223-4.494,0.021C340.008,114.586,339.308,113.772,339.92,112.01z"/>
		<path fill-rule="evenodd" clip-rule="evenodd" fill="#FFFFFF" d="M351.987,111.997c1.392,0.338,2.662,0.996,4.115,0.883
			c1.11-0.088,2.28-0.082,2.616-1.42c0.322-1.291-0.498-2.037-1.534-2.563c-1.048-0.518-2.132-0.961-3.16-1.5
			c-1.554-0.807-2.435-2.111-2.274-3.867c0.162-1.869,1.359-3.027,3.115-3.531c1.555-0.442,3.121-0.375,4.694,0.088
			c1.069,0.311,0.935,1.09,0.813,1.797c-0.188,1.061-0.948,0.309-1.392,0.268c-1.716-0.168-3.907-0.98-4.581,1.203
			c-0.685,2.215,1.77,2.402,3.135,3.17c1.238,0.691,2.583,1.189,3.322,2.541c1.251,2.307,0.055,5.023-2.59,5.723
			c-1.486,0.391-2.992,0.217-4.492,0.021C352.08,114.6,351.455,113.739,351.987,111.997z"/>
		<path fill-rule="evenodd" clip-rule="evenodd" fill="#FFFFFF" d="M60.264,112.555c1.345-4.002,2.549-7.559,3.74-11.123
			c0.306-0.895,0.562-1.735,1.833-1.602c0.823,0.096,1.261,0.168,0.888,1.178c-1.59,4.311-3.168,8.629-4.657,12.973
			c-0.363,1.051-1.086,0.855-1.79,0.855c-0.719,0-1.473,0.201-1.829-0.842c-1.446-4.277-2.979-8.514-4.446-12.785
			c-0.175-0.496-0.48-1.211,0.499-1.338c1.005-0.113,1.671,0.074,2.034,1.277C57.631,104.829,58.906,108.448,60.264,112.555z"/>
		<path fill-rule="evenodd" clip-rule="evenodd" fill="#FFFFFF" d="M274.798,102.461c-1.247-0.082-2.351-0.787-3.635-0.611
			c-3.272,0.443-5.313,3.105-4.832,6.402c0.484,3.402,2.986,5.123,6.473,4.646c0.643-0.096,1.725-1.473,2.111,0.242
			c0.313,1.379-0.779,1.607-1.813,1.848c-3.174,0.748-6.385-0.443-8.13-3.078c-1.779-2.684-1.699-6.484,0.191-9.215
			c1.691-2.447,5.255-3.664,8.283-2.891C274.943,100.194,275.222,101.11,274.798,102.461z"/>
		<path fill-rule="evenodd" clip-rule="evenodd" fill="#FFFFFF" d="M318.251,112.952c0.303-0.047,0.8-0.154,1.305-0.168
			c0.592-0.02,1.432-1.197,1.723,0.27c0.228,1.137-0.439,1.568-1.494,1.869c-5.36,1.533-10.498-2.904-9.701-8.428
			c0.699-4.814,4.61-7.625,9.378-6.724c0.323,0.06,0.634,0.181,0.948,0.282c0.955,0.289,0.982,1.07,0.875,1.83
			c-0.208,1.385-1.09,0.355-1.467,0.234c-4.344-1.371-8.225,2.348-6.967,7.035C313.491,111.567,315.434,112.979,318.251,112.952z"/>
		<path fill-rule="evenodd" clip-rule="evenodd" fill="#FFFFFF" d="M104.689,112.461c0.014,0.867,0.656,1.971-0.642,2.313
			c-1.658,0.439-3.366,0.445-4.715-0.879c-0.81-0.801-1.116-1.844-1.103-2.994c0.02-2.01,0.057-4.029-0.02-6.047
			c-0.048-1.305,0.787-3.254-1.877-3.02c-0.528,0.049-0.565-0.49-0.572-0.928c-0.007-0.537,0.125-1.108,0.78-1.01
			c1.883,0.271,1.738-0.94,1.695-2.144c-0.037-0.834-0.188-1.647,1.177-1.614c1.329,0.033,1.325,0.834,1.187,1.669
			c-0.319,1.977,0.753,2.19,2.324,2.077c0.707-0.047,1.803-0.457,1.839,0.975c0.038,1.453-1.089,1.117-1.775,1.01
			c-2.175-0.33-2.525,0.76-2.395,2.582c0.132,1.662-0.006,3.355,0.038,5.031C100.705,112.764,101.404,113.276,104.689,112.461z"/>
		<path fill-rule="evenodd" clip-rule="evenodd" fill="#FFFFFF" d="M153.048,112.454c0.033,0.869,0.662,1.973-0.629,2.314
			c-1.644,0.451-3.366,0.457-4.714-0.873c-0.811-0.795-1.12-1.83-1.11-2.98c0.027-2.098,0.021-4.203,0-6.301
			c-0.01-1.326,0.532-3.027-1.883-2.779c-0.521,0.055-0.578-0.482-0.578-0.914c-0.007-0.537,0.104-1.115,0.767-1.023
			c1.863,0.271,1.759-0.919,1.708-2.138c-0.037-0.819-0.212-1.653,1.173-1.627c1.322,0.034,1.325,0.827,1.191,1.669
			c-0.32,1.97,0.723,2.205,2.313,2.084c0.696-0.047,1.803-0.471,1.843,0.967c0.05,1.447-1.069,1.125-1.762,1.018
			c-2.16-0.324-2.553,0.732-2.401,2.568c0.131,1.676-0.006,3.355,0.037,5.037C149.077,112.77,149.763,113.282,153.048,112.454z"/>
		<path fill-rule="evenodd" clip-rule="evenodd" fill="#FFFFFF" d="M110.856,107.297c0,2.092-0.007,4.195,0.007,6.287
			c0,0.713,0.03,1.332-1.013,1.277c-0.877-0.033-1.409-0.154-1.402-1.223c0.037-4.109,0.027-8.227,0.007-12.342
			c-0.007-0.867,0.161-1.426,1.217-1.459c1.113-0.047,1.201,0.559,1.197,1.404C110.842,103.262,110.856,105.272,110.856,107.297z"/>
		<path fill-rule="evenodd" clip-rule="evenodd" fill="#FFFFFF" d="M32.388,107.303c0-2.025,0.017-4.035-0.014-6.053
			c-0.013-0.9,0.236-1.387,1.265-1.412c1.16-0.04,1.143,0.645,1.143,1.453c-0.007,4.115-0.013,8.23,0.003,12.34
			c0,0.76-0.067,1.271-1.06,1.238c-0.921-0.033-1.385-0.248-1.358-1.279C32.424,111.499,32.388,109.393,32.388,107.303z"/>
		<path fill-rule="evenodd" clip-rule="evenodd" fill="#FFFFFF" d="M366.808,107.444c0,2.012-0.02,4.029,0.007,6.041
			c0.021,0.84-0.033,1.424-1.157,1.391c-1.048-0.033-1.264-0.479-1.256-1.391c0.033-4.117,0.039-8.227,0-12.336
			c0-1.002,0.437-1.291,1.371-1.305c1.009-0.014,1.042,0.586,1.035,1.305C366.802,103.241,366.808,105.346,366.808,107.444z"/>
		<path fill-rule="evenodd" clip-rule="evenodd" fill="#FFFFFF" d="M159.229,107.512c0,1.936,0.02,3.859-0.014,5.791
			c-0.013,0.672,0.343,1.553-0.965,1.566c-1.1,0.014-1.446-0.371-1.436-1.453c0.051-4.027,0.027-8.057,0.013-12.086
			c-0.007-0.854,0.107-1.445,1.184-1.492c1.342-0.067,1.218,0.779,1.218,1.627C159.222,103.477,159.229,105.5,159.229,107.512z"/>
		<path fill-rule="evenodd" clip-rule="evenodd" fill="#FFFFFF" d="M30.847,94.585c-1.049,1.958-2.021,3.7-2.912,5.488
			c-0.394,0.793-0.986,1.271-1.773,0.936c-0.999-0.418-0.198-1.123-0.023-1.675c0.31-0.954,0.784-1.862,1.009-2.831
			C27.592,94.579,28.625,93.818,30.847,94.585z"/>
		<path fill-rule="evenodd" clip-rule="evenodd" fill="#FFFFFF" d="M367.267,95.231c-0.115,0.955-0.627,1.467-1.629,1.474
			c-0.928,0.007-1.405-0.485-1.445-1.346c-0.047-0.942,0.384-1.628,1.419-1.649C366.593,93.69,367.112,94.269,367.267,95.231z"/>
		<path fill-rule="evenodd" clip-rule="evenodd" fill="#FFFFFF" d="M159.68,95.191c-0.084,0.955-0.568,1.486-1.581,1.514
			c-0.921,0.026-1.433-0.437-1.489-1.292c-0.067-0.935,0.343-1.654,1.378-1.703C158.966,93.657,159.498,94.229,159.68,95.191z"/>
		<path fill-rule="evenodd" clip-rule="evenodd" fill="#FFFFFF" d="M111.323,95.13c-0.137,1.076-0.655,1.574-1.658,1.574
			c-0.932,0-1.392-0.505-1.429-1.365c-0.037-0.949,0.411-1.609,1.439-1.629C110.688,93.684,111.128,94.33,111.323,95.13z"/>
		<path fill-rule="evenodd" clip-rule="evenodd" fill="#FFFFFF" d="M35.229,95.373c-0.199,0.976-0.804,1.398-1.775,1.332
			c-0.942-0.067-1.312-0.646-1.292-1.493c0.024-0.99,0.562-1.568,1.571-1.501C34.705,93.785,35.172,94.41,35.229,95.373z"/>
	</g>
	<path fill-rule="evenodd" clip-rule="evenodd" fill="#ED2941" d="M177.986,17.447c0,4.445-3.604,8.051-8.043,8.051
		c-4.449,0-8.051-3.605-8.051-8.051c0-4.438,3.602-8.043,8.051-8.043C174.381,9.404,177.986,13.009,177.986,17.447z"/>
</g>
<g>
	<path fill-rule="evenodd" clip-rule="evenodd" fill="#FFFFFF" d="M661.06,315.16c-1.903,0-3.799-0.007-5.695,0.007
		c-0.674,0-1.419-0.087-1.533,0.901c-0.054,0.457,0.066,1.063-0.74,0.955c-0.572-0.081-1.063-0.29-1.292-0.882
		c-0.066-0.175-0.202-0.376-0.153-0.518c0.8-2.152-0.142-4.304,0.06-6.449c0.188-2.023,1.271-3.478,3.289-3.954
		c2.037-0.491,4.028-0.188,5.245,1.667c0.714,1.09,1.285,1.11,2.133,0.41c1.371-1.144,3.738-1.137,4.068-3.537
		c0.04-0.316,0.639-0.242,1.002-0.222c0.578,0.04,0.882,0.417,1.01,0.929c0.309,1.243-0.223,2.172-1.258,2.79
		c-1.474,0.882-2.953,1.749-4.493,2.516c-1.043,0.511-1.231,1.291-1.036,2.267c0.223,1.09,1.15,0.679,1.816,0.713
		c1.157,0.061,2.327,0.033,3.497,0.014c0.773-0.021,1.271,0.141,1.278,1.089c0.006,0.962-0.376,1.312-1.312,1.298
		c-1.957-0.033-3.922-0.006-5.886-0.006C661.06,315.147,661.06,315.153,661.06,315.16z"/>
	<path fill-rule="evenodd" clip-rule="evenodd" fill="#FFFFFF" d="M661.821,288.553c-1.661,0-3.315,0.021-4.977-0.013
		c-1.185-0.027-1.91-1.346-1.043-2.03c0.813-0.646,0.356-0.942,0.142-1.42c-1.688-3.732-0.155-6.18,3.9-6.194
		c2.334-0.014,4.668,0,6.994-0.007c0.82-0.007,1.426,0.075,1.434,1.15c0,1.13-0.673,1.104-1.453,1.097
		c-2.394-0.007-4.789,0.026-7.183,0c-1.527-0.014-2.28,0.658-2.247,2.212c0.027,2.052,0.693,2.934,2.327,2.939
		c2.146,0.021,4.292-0.048,6.438,0.034c0.813,0.026,2.158-0.639,2.097,1.13c-0.061,1.729-1.392,1.002-2.198,1.062
		c-1.405,0.108-2.819,0.034-4.23,0.034V288.553z"/>
	<path fill-rule="evenodd" clip-rule="evenodd" fill="#FFFFFF" d="M662.231,299.173c3.269,0.626,4.821-1.291,3.981-4.923
		c-0.182-0.753-0.935-1.594,0.531-1.95c1.419-0.343,1.311,0.733,1.514,1.493c1.485,5.683-2.28,9.16-8.454,7.828
		c-2.623-0.565-4.17-2.038-4.445-4.25c-0.512-3.941,2.784-6.443,6.786-5.152c-0.235,0.888,0.148,2.132-1.306,2.361
		c-0.854,0.182-1.64,0.483-2.219,1.17c-0.423,0.511-0.519,1.109-0.095,1.681c0.37,0.498,0.801,0.491,1.204,0.021
		c0.376-0.699,0.465-1.534,1.022-2.133c0.262-0.288,0.558-0.477,0.955-0.321c0.349,0.14,0.329,0.47,0.355,0.767
		C662.157,296.901,661.861,298.058,662.231,299.173z"/>
	<path fill-rule="evenodd" clip-rule="evenodd" fill="#FFFFFF" d="M662.21,259.026c2.287,0.767,3.969-0.242,4.157-2.509
		c0.073-0.978,0-1.95-0.363-2.892c-0.276-0.716-0.082-1.133,0.733-1.308c0.753-0.165,1.177,0.03,1.371,0.76
		c1.124,4.064,0.315,8.84-5.777,8.665c-1.291-0.043-2.575,0.007-3.807-0.483c-2.797-1.13-4.035-4.284-2.743-6.998
		c0.941-1.987,4.283-2.937,6.436-1.84c-0.322,0.639-0.182,1.319-0.134,1.957c0.094,1.157-0.498,1.161-1.318,0.942
		c-0.538-0.011-1.097-0.118-1.621,0.102c-0.646,0.262-0.989,0.759-0.841,1.438c0.162,0.727,0.532,1.268,1.412,0.793
		c0.377-0.41,0.479-0.979,0.821-1.409c0.255-0.326,0.457-0.76,0.982-0.574c0.483,0.168,0.517,0.605,0.543,1.042
		C662.124,257.486,661.888,258.277,662.21,259.026z"/>
	<path fill-rule="evenodd" clip-rule="evenodd" fill="#FFFFFF" d="M668.109,274.505c-0.249,0.35-0.631,0.315-0.995,0.315
		c-3.37,0.006-6.731-0.014-10.096,0.021c-1.425,0.014-1.889-0.72-1.156-1.79c0.538-0.8,0.31-1.25,0-1.943
		c-1.594-3.49-0.04-5.988,3.767-6.072c2.441-0.051,4.889,0.007,7.344-0.011c0.773,0,1.285,0.155,1.285,1.104
		c-0.008,0.915-0.471,1.152-1.265,1.14c-1.957-0.007-3.914-0.033-5.871,0.026c-1.225,0.041-2.805-0.515-3.457,0.962
		c-0.7,1.561-0.249,3.115,0.948,4.386c2.482,0.471,4.977,0.188,7.458,0.175C667.396,272.803,668.123,273.092,668.109,274.505z"/>
	<path fill-rule="evenodd" clip-rule="evenodd" fill="#FFFFFF" d="M668.533,246.443c-0.066,0.394-0.208,1.228-0.37,2.071
		c-0.155,0.841-0.646,1.11-1.467,0.854c-0.786-0.245-0.82-0.672-0.592-1.398c0.25-0.811,0.377-1.682,0.391-2.528
		c0.007-0.8-0.216-1.617-1.197-1.837c-0.948-0.211-1.526,0.327-1.903,1.086c-0.417,0.817-0.726,1.686-1.123,2.513
		c-0.666,1.372-1.647,2.263-3.295,2.165c-1.668-0.106-2.744-1.028-3.288-2.524c-0.512-1.416-0.418-2.883-0.169-4.361
		c0.127-0.771,0.551-0.821,1.164-0.771c0.698,0.058,0.962,0.353,0.86,1.079c-0.122,0.896-0.209,1.819-0.182,2.73
		c0.013,0.716,0.356,1.296,1.149,1.47c0.801,0.175,1.299-0.242,1.636-0.885c0.281-0.545,0.517-1.108,0.752-1.671
		c1.171-2.75,2.523-3.614,4.877-3.103C667.524,241.705,668.553,243.437,668.533,246.443z"/>
	<path fill-rule="evenodd" clip-rule="evenodd" fill="#FFFFFF" d="M683.349,269.872c-2.326-0.747-4.19-1.339-6.047-1.931
		c-0.646-0.208-1.372-0.343-1.318-1.258c0.062-0.979,0.882-0.905,1.514-0.962c2.139-0.211,4.277-0.373,6.416-0.521
		c0.551-0.033,1.373-0.343,1.42,0.629c0.053,0.922-0.773,0.562-1.23,0.616c-1.602,0.208-3.223,0.335-4.897,0.816
		c1.702,0.552,3.397,1.123,5.098,1.655c0.491,0.154,0.962,0.274,1.003,0.9c0.047,0.713-0.444,0.908-1.017,1.09
		c-1.66,0.518-3.322,1.063-4.962,1.997c1.54,0.161,3.073,0.336,4.613,0.465c1.022,0.093,1.634,0.531,1.473,1.634
		c-0.074,0.511-0.592,0.888-0.907,0.511c-1.474-1.734-3.539-0.874-5.287-1.325c-0.705-0.182-1.459-0.168-2.186-0.274
		c-0.485-0.068-0.995-0.142-1.057-0.801c-0.047-0.68,0.31-1.003,0.908-1.191C678.869,271.296,680.854,270.665,683.349,269.872z"/>
	<path fill-rule="evenodd" clip-rule="evenodd" fill="#FFFFFF" d="M681.028,279.427c0.888-0.497,1.44,0.148,2.105,0.559
		c0.915,0.559,1.271-0.8,2.085-0.733c0.068,0.095,0.201,0.235,0.175,0.276c-0.88,1.379-0.464,2.684,0,4.109
		c0.384,1.156-0.04,2.441-1.29,2.925c-1.157,0.443-2.544,0.545-3.363-0.632c-0.626-0.901-1.211-0.922-2.139-0.687
		c-0.915,0.235-1.897,0.095-2.422-0.86c-0.572-1.057-0.625-2.206,0.397-2.993c0.94-0.726,1.938-0.464,2.784,0.41
		c0.928,0.941,2.172,0.774,2.777-0.403C682.716,280.262,681.042,280.302,681.028,279.427z"/>
	<path fill-rule="evenodd" clip-rule="evenodd" fill="#FFFFFF" d="M682.912,237.252c-0.551,0-1.103,0-1.647,0
		c-3.363,0-3.652-0.313-3.296-3.642c0.047-0.403,0.169-0.881,0.431-1.177c1.345-1.53,3.141-1.167,4.796-0.912
		c1.392,0.219,2.273,1.248,2.238,2.73c-0.02,1.101,0.162,1.759,1.48,1.598c0.483-0.071,1.224-0.158,1.137,0.73
		c-0.082,0.783-0.761,0.652-1.292,0.658c-1.285,0.014-2.562,0-3.847,0C682.912,237.246,682.912,237.246,682.912,237.252z"/>
	<path fill-rule="evenodd" clip-rule="evenodd" fill="#FFFFFF" d="M682.924,312.651c-1.964-0.598-3.947-1.163-5.891-1.809
		c-0.443-0.148-1.298-0.128-1.009-0.975c0.249-0.74,0.934-0.432,1.419-0.29c2.287,0.7,4.554,1.427,6.826,2.165
		c0.604,0.188,1.116,0.465,1.063,1.266c-0.047,0.72-0.532,0.847-1.084,1.021c-1.815,0.552-3.611,1.144-5.407,1.762
		c-0.559,0.195-1.25,0.222-1.613,0.76c-0.29,0.445-0.532,0.982-1.083,0.459c-0.497-0.479-0.464-1.177,0.055-1.636
		c0.39-0.35,0.939-0.558,1.451-0.72c1.749-0.557,3.504-1.062,5.26-1.587C682.912,312.928,682.917,312.792,682.924,312.651z"/>
	<path fill-rule="evenodd" clip-rule="evenodd" fill="#FFFFFF" d="M681.648,245.457c-2.389-0.006-3.659-1.079-3.68-3.089
		c-0.02-2.108,1.258-3.165,3.793-3.145c2.347,0.018,3.773,1.291,3.712,3.322C685.419,244.506,684.143,245.471,681.648,245.457z"/>
	<path fill-rule="evenodd" clip-rule="evenodd" fill="#FFFFFF" d="M681.667,223.559c2.488,0.007,3.848,1.168,3.806,3.225
		c-0.054,2.001-1.304,2.96-3.825,2.937c-2.422-0.031-3.673-1.093-3.673-3.118C677.975,224.525,679.166,223.546,681.667,223.559z"/>
	<path fill-rule="evenodd" clip-rule="evenodd" fill="#FFFFFF" d="M681.889,293.236c0.337,0.53-0.693,2.017,1.016,1.828
		c1.331-0.148,1.46-1.271,1.305-2.394c-0.066-0.559-0.604-1.358,0.363-1.48c0.813-0.107,0.794,0.794,0.854,1.346
		c0.142,1.312,0.122,2.67-1.163,3.443c-1.587,0.942-3.289,0.881-4.93,0.094c-1.13-0.552-1.453-1.594-1.352-2.784
		c0.134-1.606,1.521-2.63,3.107-2.3C681.882,291.164,681.903,291.21,681.889,293.236z"/>
	<path fill-rule="evenodd" clip-rule="evenodd" fill="#FFFFFF" d="M681.87,259.668c0.39,0.665-0.7,2.156,0.921,2.052
		c1.412-0.088,1.588-1.285,1.412-2.506c-0.06-0.464-0.651-1.15,0.304-1.318c0.8-0.141,0.827,0.626,0.894,1.11
		c0.188,1.378,0.175,2.808-1.177,3.611c-1.58,0.942-3.302,0.841-4.923,0.054c-1.211-0.592-1.46-1.731-1.291-2.979
		c0.194-1.471,1.903-2.57,3.288-2.09C682.421,257.998,681.661,258.982,681.87,259.668z"/>
	<path fill-rule="evenodd" clip-rule="evenodd" fill="#FFFFFF" d="M685.46,253.269c-0.021,1.588-1.056,1.91-2.319,2.103
		c-1.434,0.211-2.967-0.543-4.365,0.611c-0.29,0.232-1.527-0.555-2.221-1.035c-0.315-0.213-0.354-0.864,0.311-0.915
		c0.786-0.058,1.312-0.246,1.224-1.174c-0.04-0.336,0.135-0.612,0.531-0.579c0.344,0.038,0.565,0.264,0.545,0.616
		c-0.047,1.292,0.922,1.197,1.648,1.049c1.162-0.251,2.797,0.928,3.456-1.019c0.147-0.434,0.29-0.901,0.821-0.732
		C685.595,252.348,685.4,252.917,685.46,253.269z"/>
	<path fill-rule="evenodd" clip-rule="evenodd" fill="#FFFFFF" d="M684.332,217.399c-1.567,1.174-3.235,0.962-4.869,0.276
		c-1.238-0.519-1.575-1.624-1.487-2.896c0.074-1.015,0.565-1.724,1.527-2.067c1.693-0.605,2.292-0.145,2.4,1.645
		c0.06,1.015-0.672,2.794,1.634,2.196C683.941,216.703,684.478,216.734,684.332,217.399z"/>
	<path fill-rule="evenodd" clip-rule="evenodd" fill="#FFFFFF" d="M680.283,220.268c1.345,0,2.684-0.014,4.021,0.007
		c0.411,0.007,0.935,0,0.935,0.599c0,0.592-0.496,0.604-0.927,0.604c-2.738,0.007-5.476,0-8.219-0.007
		c-0.424-0.006-0.929-0.013-0.942-0.592c-0.006-0.611,0.525-0.582,0.936-0.585c1.398-0.02,2.797-0.007,4.197-0.007
		C680.283,220.282,680.283,220.275,680.283,220.268z"/>
	<path fill-rule="evenodd" clip-rule="evenodd" fill="#FFFFFF" d="M680.316,302.503c1.278,0,2.562-0.021,3.84,0.007
		c0.45,0.006,1.082-0.155,1.069,0.604c-0.007,0.605-0.545,0.579-0.955,0.579c-2.744,0.006-5.487,0.006-8.231,0
		c-0.432-0.007-0.922-0.047-0.901-0.653c0.033-0.619,0.564-0.537,0.968-0.537C677.51,302.49,678.911,302.497,680.316,302.503z"/>
	<path fill-rule="evenodd" clip-rule="evenodd" fill="#FFFFFF" d="M680.094,299.926c-1.346,0-2.69,0.007-4.036-0.007
		c-0.43,0-0.935-0.013-0.921-0.618c0.02-0.599,0.531-0.599,0.948-0.599c2.757-0.013,5.509-0.013,8.266,0
		c0.437,0,0.894,0.094,0.9,0.659c0,0.666-0.551,0.552-0.94,0.558C682.905,299.94,681.5,299.926,680.094,299.926z"/>
	<path fill-rule="evenodd" clip-rule="evenodd" fill="#FFFFFF" d="M681.432,250.209c-0.37,0-0.739,0.027-1.103-0.013
		c-0.707-0.062-1.897,0.319-2.032-0.217c-0.222-0.9-0.08-1.937-0.275-2.908c-0.047-0.199,0.115-0.474,0.45-0.447
		c0.323,0.03,0.68,0.11,0.7,0.461c0.135,2.256,1.788,1.809,3.229,1.933c0.948,0.088,2.717-0.567,2.683,0.525
		c-0.04,1.345-1.775,0.383-2.737,0.653C682.058,250.277,681.734,250.209,681.432,250.209z"/>
	<path fill-rule="evenodd" clip-rule="evenodd" fill="#FFFFFF" d="M681.674,306.269c0.915,0,1.822-0.007,2.737,0
		c0.463,0.007,0.848,0.148,0.875,0.7c0.026,0.604-0.412,0.672-0.855,0.678c-1.815,0.007-3.646,0.007-5.467,0.007
		c-0.443,0-0.849-0.066-0.849-0.665c-0.005-0.585,0.363-0.713,0.828-0.72C679.852,306.255,680.766,306.269,681.674,306.269
		L681.674,306.269z"/>
	<path fill-rule="evenodd" clip-rule="evenodd" fill="#FFFFFF" d="M660.724,294.129c0.928-0.296,0.619-1.527,1.42-1.91
		c0.274,2.313,0.106,4.641,0.087,6.954c-0.666-1.069-0.094-2.388-0.619-3.659c-1.002,1.05,0.108,2.408-0.78,3.297
		C659.609,297.5,659.562,295.757,660.724,294.129z"/>
	<path fill-rule="evenodd" clip-rule="evenodd" fill="#FFFFFF" d="M684.332,217.399c-0.271-0.279-0.532-0.562-0.795-0.847
		c0.666-0.787,0.922-1.672,0.6-2.68c-0.148-0.475-0.316-1.02,0.383-1.157c0.699-0.128,0.768,0.53,0.827,0.947
		C685.555,215.042,685.743,216.451,684.332,217.399z"/>
	<path fill-rule="evenodd" clip-rule="evenodd" fill="#FFFFFF" d="M660.832,254.625c0.532,0.218,1.044,0.403,1.035-0.508
		c0-0.585,0.021-1.17,0.351-1.695c-0.007,2.203-0.007,4.401-0.007,6.604c-0.201-0.904-0.403-1.802-0.646-2.854
		c-0.901,1.053,0.142,2.351-0.819,3.171C659.562,257.714,659.602,255.959,660.832,254.625z"/>
	<path fill-rule="evenodd" clip-rule="evenodd" fill="#FFFFFF" d="M668.109,274.505c-0.39-1.164-1.197-1.514-2.401-1.494
		c-2.447,0.067-4.896-0.006-7.351-0.02c-0.04,0-0.087-0.067-0.127-0.095c0.127-0.08,0.262-0.167,0.383-0.255
		c2.643-0.021,5.286,0.013,7.908-0.087C668.083,272.48,668.533,273.079,668.109,274.505z"/>
	<path fill-rule="evenodd" clip-rule="evenodd" fill="#FFFFFF" d="M675.326,258.793c0.229,0.077,0.484,0.115,0.666,0.239
		c0.563,0.381,1.459,0.512,1.297,1.482c-0.066,0.418-0.437,0.351-0.698,0.188C675.89,260.278,674.694,260.18,675.326,258.793z"/>
	<path fill-rule="evenodd" clip-rule="evenodd" fill="#FFFFFF" d="M676.852,306.854c-0.021,0.463-0.208,0.74-0.632,0.787
		c-0.498,0.061-0.842-0.155-0.868-0.672c-0.026-0.397,0.161-0.7,0.605-0.761C676.475,306.147,676.71,306.458,676.852,306.854z"/>
	<path fill-rule="evenodd" clip-rule="evenodd" fill="#FFFFFF" d="M749.554,298.656c0.04-0.854-0.443-0.988-1.15-0.988
		c-1.842,0.021-3.679,0.021-5.521,0c-2.078-0.013-3.76-0.773-5.071-2.469c-1.957-2.535-3.221-5.488-4.963-8.144
		c-2.785-4.964-5.528-9.941-8.36-14.87c-0.686-1.19-0.705-1.716,0.713-2.354c4.541-2.025,8.098-5.206,10.484-9.629
		c2.638-4.264,4.01-8.92,4.291-13.915c0.062-0.208,0.102-0.43,0.135-0.655c0.465-2.633,0.222-5.293,0.108-7.943
		c0.026-0.437,0.047-0.866-0.229-1.247c-0.114-2.334-0.693-4.576-1.245-6.826c-1.526-5.128-4.344-9.409-8.359-12.933
		c-1.123-1.234-2.535-2.115-3.969-2.919c-7.874-4.433-16.328-5.257-25.1-3.877c-3.14,0.49-6.227,1.19-8.869,3.13
		c-0.041,5.148-0.068,10.301-0.135,15.448c-0.007,1,0.39,1.035,1.243,0.869c1.622-0.314,3.269-0.539,4.917-0.66
		c5.18-0.399,10.33-0.545,14.803,2.812c1.682,1.842,2.798,3.965,3.222,6.446c0.457,2.724,0.498,5.457,0.323,8.205
		c-0.04,0.365-0.088,0.729-0.129,1.093c-0.76,7.169-4.492,11.339-11.138,12.463c-0.833,0.138-1.729-0.044-2.515,0.405
		c-3.06-0.013-6.119,0.018-9.187-0.07c-1.245-0.04-1.554,0.465-1.54,1.604c0.04,4.718,0.04,9.442-0.021,14.156
		c-0.013,1.245,0.309,1.742,1.641,1.695c2.389-0.101,4.789,0.088,7.169-0.066c1.48-0.095,2.16,0.49,2.772,1.734
		c1.385,2.784,2.925,5.501,4.397,8.252c3.288,6.632,6.672,13.202,10.33,19.632c1.454,2.562,3.061,5.037,5.279,7.021
		c5.031,4.527,10.99,4.951,17.245,3.673c4.667-0.94,7.263-3.968,8.097-8.615C749.857,305.644,749.413,302.147,749.554,298.656z"/>
	<path fill-rule="evenodd" clip-rule="evenodd" fill="#0C0C14" d="M656.905,312.766c-3.162,0-3.235-0.062-3.222-2.214
		c0.02-2.017,0.935-2.979,2.878-2.992c2.139-0.02,2.973,1.029,3.141,3.369C659.897,313.64,657.954,312.509,656.905,312.766z"/>
	<path fill-rule="evenodd" clip-rule="evenodd" fill="#0C0C14" d="M660.724,294.129c0.034,1.56,0.074,3.12,0.107,4.682
		c-0.753,1.177-1.62,0.302-2.359,0.054c-1.051-0.356-1.399-1.278-1.365-2.348c0.033-1.029,0.531-1.729,1.451-2.132
		C659.251,294.089,659.978,294.083,660.724,294.129z"/>
	<path fill-rule="evenodd" clip-rule="evenodd" fill="#0C0C14" d="M660.832,254.625c-0.033,1.577-0.06,3.147-0.086,4.718
		c-1.219,0.04-2.375-0.179-3.143-1.184c-0.731-0.966-0.807-2.125-0.006-3.06C658.472,254.093,659.609,253.774,660.832,254.625z"/>
	<path fill-rule="evenodd" clip-rule="evenodd" fill="#0C0C14" d="M684.318,284.008c0.106,1.137-0.62,1.472-1.54,1.547
		c-0.922,0.08-1.474-0.465-1.776-1.259c-0.114-0.288,2.038-2.179,2.361-2.063C684.163,282.542,684.256,283.281,684.318,284.008z"/>
	<path fill-rule="evenodd" clip-rule="evenodd" fill="#0C0C14" d="M679.132,283.321c0,0.674-0.498,0.761-0.976,0.808
		c-0.659,0.067-1.218-0.107-1.338-0.86c-0.108-0.646,0.208-1.049,0.867-1.077C678.458,282.158,678.849,282.69,679.132,283.321z"/>
	<path fill-rule="evenodd" clip-rule="evenodd" fill="#0C0C14" d="M681.794,235.864c-1.062-0.209-2.568,0.558-2.643-1.372
		c-0.066-1.698,1.237-1.796,2.381-1.778c1.238,0.022,2.75,0.007,2.765,1.859C684.318,236.63,682.643,235.508,681.794,235.864z"/>
	<path fill-rule="evenodd" clip-rule="evenodd" fill="#0C0C14" d="M681.661,244.079c-1.116-0.185-2.562-0.01-2.502-1.731
		c0.067-1.759,1.474-1.702,2.718-1.695c1.223,0,2.488,0.18,2.406,1.807C684.203,244.129,682.785,243.931,681.661,244.079z"/>
	<path fill-rule="evenodd" clip-rule="evenodd" fill="#0C0C14" d="M681.823,228.465c-1.157-0.19-2.617-0.053-2.671-1.795
		c-0.046-1.638,1.291-1.762,2.447-1.804c1.232-0.029,2.617,0.108,2.69,1.767C684.365,228.275,682.986,228.268,681.823,228.465z"/>
	<path fill-rule="evenodd" clip-rule="evenodd" fill="#0C0C14" d="M681.056,293.706c-0.209,0.471,0.376,1.398-0.693,1.358
		c-0.82-0.033-1.365-0.552-1.372-1.425c-0.007-0.794,0.443-1.292,1.217-1.358C681.384,292.179,680.894,293.147,681.056,293.706z"/>
	<path fill-rule="evenodd" clip-rule="evenodd" fill="#0C0C14" d="M681.123,260.156c-0.344,0.552,0.424,1.574-0.793,1.527
		c-0.834-0.034-1.332-0.545-1.353-1.405c-0.013-0.902,0.572-1.325,1.365-1.376C681.432,258.831,680.792,259.786,681.123,260.156z"/>
	<path fill-rule="evenodd" clip-rule="evenodd" fill="#0C0C14" d="M681.109,215.105c-0.289,0.579,0.377,1.602-0.833,1.521
		c-0.828-0.057-1.346-0.608-1.325-1.463c0.014-0.86,0.545-1.354,1.398-1.361C681.453,213.794,680.766,214.737,681.109,215.105z"/>
</g>
<g>
	<path fill-rule="evenodd" clip-rule="evenodd" fill="#FFFFFF" d="M934.919,240.357c5.279,1.822,10.445,3.544,15.577,5.386
		c14.056,5.039,27.93,10.539,41.63,16.475c0.559,0.239,1.117,0.374,1.184,1.214c0.35,4.005,0.773,8.007,1.184,12.169
		c-0.41-0.16-0.712-0.269-1.009-0.396c-18.743-8.096-37.763-15.495-57.187-21.82c-0.611-0.201-0.867-0.454-0.894-1.149
		c-0.121-3.464-0.316-6.931-0.485-10.395C934.907,241.406,934.919,240.964,934.919,240.357z"/>
	<path fill-rule="evenodd" clip-rule="evenodd" fill="#FFFFFF" d="M987.998,209.513c0.41,4.136,0.807,8.165,1.217,12.324
		c-18.455,1.531-36.667,4.412-54.697,8.857c-0.054-0.393-0.115-0.723-0.129-1.055c-0.154-3.435-0.281-6.87-0.457-10.298
		c-0.04-0.665,0.176-0.897,0.813-1.06c8.205-2.145,16.491-3.9,24.864-5.215c6.066-0.952,12.153-1.779,18.246-2.565
		C981.157,210.072,984.493,209.846,987.998,209.513z"/>
	<path fill-rule="evenodd" clip-rule="evenodd" fill="#FFFFFF" d="M979.583,252.643c-4.386-0.124-8.487-1.69-11.595-5.329
		c-4.688-5.487-3.974-13.195,1.561-17.855c6.061-5.108,15.239-4.94,21.11,0.386c6.275,5.684,5.482,15.203-1.667,20.056
		C986.255,251.759,983.208,252.606,979.583,252.643z"/>
	<path fill-rule="evenodd" clip-rule="evenodd" fill="#FFFFFF" d="M942.554,286.973c3.254,2.994,6.402,5.879,9.663,8.871
		c0.983-1.425,1.352-2.79,1.17-4.297c-0.174-1.453-0.605-2.865-1.729-3.848c-1.082-0.935-2.34-1.675-3.483-2.475
		c1.708-1.306,4.292-0.982,5.879,0.854c1.802,2.077,2.059,5.716,0.578,8.567c-0.35,0.666-0.787,1.271-1.237,1.997
		c1.796,1.648,3.181,3.572,3.161,6.376c-1.742-1.554-3.364-3.006-4.742-4.237c-2.044,0.849-3.786,1.783-5.643,2.294
		c-2.495,0.687-5.084,0.733-7.553-0.248c-2.475-0.989-4.257-2.617-4.561-5.435c-0.222-2.012,0.552-3.705,1.932-5.077
		c0.94-0.941,2.084-1.682,3.1-2.557c0.216-0.188,0.411-0.612,0.371-0.881c-0.257-1.6,0.229-3.007,0.927-4.425
		c0.465,1.19,0.908,2.32,1.358,3.457c3.82-1.676,5.758-6.578,1.414-9.274c1.411-0.559,2.951-0.323,3.94,0.651
		c1.163,1.164,1.358,2.563,0.779,4.063c-0.739,1.943-2.231,3.275-3.827,4.514C943.636,286.186,943.206,286.49,942.554,286.973z
		 M939.904,288.715c-1.09,0.571-1.95,1.595-2.34,2.974c-0.862,3.073,0.672,6.261,3.639,7.451c2.354,0.955,4.754,0.935,7.107-0.014
		c0.746-0.302,1.406-0.813,2.019-1.177C946.796,294.823,943.394,291.809,939.904,288.715z"/>
	<path fill-rule="evenodd" clip-rule="evenodd" fill="#FFFFFF" d="M970.094,301.353c-1.419-3.519-2.839-7.042-4.251-10.566
		c-0.935-2.307-1.87-4.613-2.785-6.934c-0.403-1.022-0.807-2.004-2.158-1.978c-0.101,0-0.209-0.228-0.309-0.35
		c0.188-0.106,0.37-0.302,0.559-0.302c2.09-0.021,4.182-0.021,6.273-0.015c0.096,0,0.216-0.026,0.283,0.015
		c0.127,0.094,0.229,0.229,0.343,0.342c-0.12,0.108-0.229,0.283-0.37,0.316c-2.098,0.539-2.104,0.539-1.304,2.609
		c1.56,4.002,3.106,8.011,4.667,12.013c0.073,0.201,0.168,0.396,0.316,0.738c0.275-0.679,0.511-1.23,0.732-1.795
		c1.46-3.808,2.932-7.606,4.365-11.427c0.564-1.52,0.403-1.729-1.211-2.017c-0.216-0.042-0.444-0.042-0.64-0.115
		c-0.135-0.06-0.321-0.235-0.309-0.337c0.014-0.12,0.209-0.321,0.329-0.321c1.903-0.021,3.813-0.021,5.717,0
		c0.107,0.007,0.302,0.18,0.297,0.262c-0.015,0.148-0.135,0.39-0.243,0.403c-1.601,0.222-1.983,1.554-2.488,2.75
		c-2.186,5.226-4.331,10.465-6.536,15.69c-0.189,0.458-0.627,0.802-0.948,1.191C970.309,301.473,970.203,301.414,970.094,301.353z"
		/>
	<path fill-rule="evenodd" clip-rule="evenodd" fill="#FFFFFF" d="M1028.55,300.976c-1.491,0-2.979,0-4.565,0
		c0-0.875,0-1.708,0-2.542c0-2.812,0.007-5.623-0.013-8.434c-0.016-1.467-0.33-1.695-1.985-1.353
		c0.142-0.329,0.202-0.699,0.343-0.739c1.365-0.391,2.744-0.721,4.251-1.104c0,0.733,0,1.245,0,1.917
		c0.316-0.202,0.519-0.322,0.7-0.457c1.485-1.083,3.146-1.487,4.955-1.285c2.153,0.236,3.431,1.635,3.539,4.002
		c0.087,2.152,0.06,4.311,0.094,6.463c0.013,0.531,0.055,1.063,0.06,1.595c0.008,0.807,0.445,1.156,1.212,1.257
		c0.281,0.04,0.543,0.262,0.813,0.41c-0.047,0.088-0.089,0.182-0.128,0.276c-1.459,0-2.919,0-4.546,0c0-0.37,0.007-0.727,0-1.083
		c-0.034-2.744-0.027-5.494-0.115-8.238c-0.047-1.38-0.531-2.597-1.983-3.102c-1.507-0.53-2.905-0.275-4.069,0.849
		c-0.274,0.262-0.491,0.733-0.491,1.116c-0.047,2.684-0.04,5.373-0.02,8.057c0.013,1.312,0.201,1.486,1.459,1.722
		c0.235,0.047,0.451,0.263,0.679,0.396C1028.672,300.794,1028.613,300.881,1028.55,300.976z"/>
	<path fill-rule="evenodd" clip-rule="evenodd" fill="#FFFFFF" d="M1011.644,300.539c-1.299,1.331-3.377,1.198-4.708-0.296
		c-1.42,0.995-3.047,1.285-4.762,1.171c-1.325-0.08-2.476-0.532-3.04-1.815c-0.599-1.346-0.242-2.697,0.78-3.599
		c1.043-0.929,2.333-1.62,3.599-2.254c0.968-0.477,2.057-0.691,3.1-1.028c0.363-1.851-0.168-3.639-1.378-4.103
		c-2.657-1.022-4.049,0.592-5.086,2.73c-1.115-0.941-1.128-1.116-0.255-2.045c1.702-1.802,3.787-2.575,6.241-2.32
		c1.741,0.175,2.845,1.157,2.993,2.919c0.168,1.984,0.148,3.981,0.195,5.979c0.02,0.747-0.021,1.5,0.04,2.247
		C1009.499,299.839,1009.935,300.296,1011.644,300.539z M1006.72,294.109c-0.41,0-0.692-0.026-0.969,0.014
		c-1.755,0.27-3.402,0.72-4.001,2.69c-0.396,1.271,0.074,2.623,1.069,3.222c1.097,0.665,2.569,0.523,3.47-0.377
		c0.202-0.194,0.403-0.512,0.41-0.773C1006.742,297.331,1006.72,295.771,1006.72,294.109z"/>
	<path fill-rule="evenodd" clip-rule="evenodd" fill="#FFFFFF" d="M916.828,294.823c0.29,4.379,4.346,6.415,9.093,4.271
		c-0.06,0.403-0.007,0.833-0.16,0.935c-2.845,1.924-8.037,2.267-10.466-1.238c-1.815-2.608-1.674-5.44-0.302-8.164
		c1.298-2.582,3.537-3.766,6.436-3.666c2.529,0.082,4.171,1.608,4.796,4.688C923.117,292.697,919.983,293.759,916.828,294.823z
		 M923.722,291.682c-0.443-0.976-0.692-1.823-1.177-2.509c-1.224-1.729-3.652-1.622-4.789,0.16c-0.76,1.191-0.976,2.523-0.981,4.091
		C919.062,292.845,921.24,292.3,923.722,291.682z"/>
	<path fill-rule="evenodd" clip-rule="evenodd" fill="#FFFFFF" d="M1051.997,291.675c-3.135,1.049-6.249,2.098-9.376,3.153
		c0.209,3.431,3.726,6.935,8.938,4.352c0.108,0.201,0.229,0.396,0.344,0.592c-2.354,1.863-6.248,2.227-8.789,0.808
		c-1.973-1.11-3.041-2.832-3.216-5.079c-0.229-2.979,0.545-5.567,3.094-7.391c1.474-1.042,3.147-1.352,4.902-1.097
		C1050.14,287.343,1051.626,288.985,1051.997,291.675z M1049.542,291.675c-0.472-1.003-0.733-1.884-1.243-2.583
		c-1.11-1.514-3.317-1.547-4.461-0.121c-1.002,1.244-1.217,2.737-1.271,4.459C1044.875,292.845,1047.066,292.293,1049.542,291.675z"
		/>
	<path fill-rule="evenodd" clip-rule="evenodd" fill="#FFFFFF" d="M989.78,279.837c1.472-0.155,2.945-0.302,4.552-0.47
		c0,0.477,0,0.807,0,1.137c0,5.904,0,11.803,0,17.7c0,1.695,0.014,1.688,1.615,2.118c0.195,0.049,0.335,0.324,0.665,0.66
		c-1.795,0-3.282,0-4.896,0c0-0.356,0-0.68,0-1.01c0.007-5.749,0.007-11.493,0-17.237c-0.007-0.463-0.074-0.927-0.154-1.385
		c-0.122-0.658-0.519-0.948-1.197-0.915c-0.222,0.014-0.451-0.146-0.674-0.235C989.718,280.081,989.752,279.959,989.78,279.837z"/>
	<path fill-rule="evenodd" clip-rule="evenodd" fill="#FFFFFF" d="M902.711,301.023c-1.277,0-2.556,0-3.832-0.007
		c-0.21,0-0.425-0.013-0.747-0.033c0-0.403,0-0.767,0-1.13c0-5.724,0-11.439-0.007-17.157c0-0.41-0.026-0.813-0.095-1.21
		c-0.142-0.753-0.552-1.157-1.385-1.028c-0.155,0.02-0.351-0.236-0.519-0.363c0.04-0.088,0.081-0.175,0.121-0.271
		c1.452-0.146,2.899-0.288,4.492-0.45c0,0.457,0,0.787,0,1.117c0,5.784,0,11.568,0,17.351c0,0.404,0.007,0.809,0.034,1.212
		c0.041,0.767,0.418,1.189,1.231,1.243c0.288,0.021,0.578,0.229,0.86,0.351C902.82,300.775,902.766,300.895,902.711,301.023z"/>
	<path fill-rule="evenodd" clip-rule="evenodd" fill="#FFFFFF" d="M904.872,280.524c0.269-0.35,0.382-0.645,0.537-0.666
		c1.345-0.188,2.703-0.329,4.23-0.504c0,0.525,0,0.88,0,1.243c0,5.623,0,11.252,0,16.876c0,0.523,0.055,1.055,0.055,1.586
		c0,0.82,0.417,1.164,1.203,1.237c0.282,0.026,0.544,0.257,0.82,0.396c-0.04,0.102-0.081,0.188-0.122,0.283c-2.145,0-4.29,0-6.442,0
		c-0.053-0.062-0.114-0.114-0.175-0.175c0.182-0.168,0.357-0.479,0.552-0.479c1.46-0.066,1.487-0.536,1.521-1.835
		c0.06-2.597,0.033-5.192,0.02-7.788c-0.02-2.898-0.02-5.812-0.121-8.71C906.902,280.591,906.558,280.375,904.872,280.524z"/>
	<path fill-rule="evenodd" clip-rule="evenodd" fill="#FFFFFF" d="M886.504,282.125c2.354,0,4.721,0,7.081,0
		c0.033,0.102,0.068,0.195,0.108,0.297c-0.29,0.12-0.585,0.35-0.868,0.35c-0.976-0.021-1.346,0.47-1.353,1.379
		c-0.013,1.587-0.066,3.18-0.066,4.773c-0.014,3.121-0.026,6.249,0.02,9.376c0.027,1.722,0.081,1.709,1.695,2.023
		c0.215,0.041,0.391,0.283,0.592,0.431c-0.04,0.068-0.081,0.135-0.121,0.21c-1.607,0-3.214,0-4.97,0c0-0.357,0-0.721,0-1.077
		c0.014-4.627,0.027-9.247,0.033-13.875c0.007-0.592-0.061-1.184-0.061-1.775c0.02-0.941-0.315-1.493-1.353-1.465
		c-0.281,0.007-0.571-0.195-0.86-0.304C886.423,282.353,886.457,282.239,886.504,282.125z"/>
	<path fill-rule="evenodd" clip-rule="evenodd" fill="#FFFFFF" d="M980.565,288.426c0.148-0.188,0.262-0.498,0.457-0.551
		c1.306-0.37,2.637-0.688,4.15-1.07c0,0.512,0,0.835,0,1.156c0,3.41-0.007,6.814,0.007,10.224c0,1.668,0.054,1.701,1.62,2.138
		c0.188,0.049,0.323,0.304,0.66,0.634c-1.762,0-3.242,0-4.891,0c0-0.337,0-0.693,0-1.05c0-3.309,0.014-6.624-0.026-9.934
		C982.522,288.473,982.267,288.305,980.565,288.426z"/>
	<path fill-rule="evenodd" clip-rule="evenodd" fill="#FFFFFF" d="M1019.735,300.99c-1.46,0-2.919,0-4.521,0c0-0.39,0-0.753,0-1.116
		c-0.007-3.249,0.02-6.498-0.026-9.745c-0.027-1.688-0.209-1.797-2.03-1.5c0.194-0.337,0.274-0.687,0.443-0.733
		c1.338-0.384,2.696-0.707,4.21-1.09c0,0.524,0,0.861,0,1.191c0,3.275,0,6.556,0,9.838c0,0.37,0.033,0.747,0.04,1.123
		c0.026,0.862,0.437,1.306,1.332,1.346c0.255,0.014,0.497,0.25,0.746,0.383C1019.862,300.794,1019.801,300.888,1019.735,300.99z"/>
	<path fill-rule="evenodd" clip-rule="evenodd" fill="#FFFFFF" d="M993.647,312.208c0,1.715-0.007,3.43,0,5.138
		c0.007,0.505-0.021,0.922-0.773,0.687c0-2.395,0-4.815,0-7.236c1.331-0.35,1.411-0.303,1.855,0.982
		c0.538,1.58,1.09,3.167,1.722,5.002c0.673-1.97,1.245-3.691,1.863-5.393c0.108-0.289,0.41-0.633,0.679-0.706
		c0.713-0.182,1.137,0.007,1.11,0.935c-0.081,2.112-0.027,4.237-0.027,6.43c-0.363,0.02-0.658,0.04-1.021,0.066
		c0-2.03,0-3.994,0-5.951c-0.047-0.021-0.102-0.034-0.148-0.048c-0.094,0.188-0.209,0.377-0.275,0.585
		c-0.512,1.5-0.99,3.021-1.54,4.507c-0.128,0.343-0.438,0.767-0.747,0.86c-0.625,0.195-0.604-0.457-0.733-0.826
		c-0.598-1.688-1.17-3.391-1.748-5.086C993.787,312.174,993.72,312.188,993.647,312.208z"/>
	<path fill-rule="evenodd" clip-rule="evenodd" fill="#FFFFFF" d="M1014.562,318.065c-0.423,0-0.666,0-0.935,0
		c-0.033-0.148-0.08-0.262-0.08-0.377c-0.007-2.092-0.021-4.189,0.007-6.28c0.006-0.25,0.262-0.72,0.328-0.707
		c0.412,0.073,0.997,0.148,1.165,0.431c0.785,1.378,1.452,2.825,2.172,4.243c0.127,0.263,0.288,0.519,0.632,0.74
		c0-1.412,0-2.825,0-4.237c0-0.248-0.066-0.524,0.026-0.739c0.082-0.202,0.317-0.403,0.519-0.45c0.107-0.027,0.417,0.274,0.417,0.43
		c0.026,2.301,0.026,4.607,0.026,6.881c-0.888,0.288-1.332,0.033-1.688-0.747c-0.746-1.635-1.593-3.215-2.589-4.788
		C1014.562,314.306,1014.562,316.148,1014.562,318.065z"/>
	<path fill-rule="evenodd" clip-rule="evenodd" fill="#FFFFFF" d="M930.427,318.092c0-2.381-0.013-4.661,0.021-6.935
		c0.007-0.167,0.377-0.483,0.578-0.483c0.773-0.014,1.561,0.007,2.327,0.135c0.976,0.16,1.735,0.759,1.862,1.734
		c0.155,1.149,0.203,2.354,0.028,3.505c-0.202,1.317-1.097,1.957-2.429,2.037C932.068,318.125,931.315,318.092,930.427,318.092z
		 M931.685,317.352c1.81,0.108,2.481-0.443,2.604-2.11c0.053-0.687,0.053-1.387-0.055-2.052c-0.242-1.494-0.976-1.971-2.549-1.735
		C931.685,313.398,931.685,315.348,931.685,317.352z"/>
	<path fill-rule="evenodd" clip-rule="evenodd" fill="#FFFFFF" d="M971.701,318.058c-0.41,0.021-0.713,0.04-1.108,0.061
		c-0.148-0.646-0.276-1.271-0.451-1.882c-0.101-0.357-0.195-0.801-0.45-0.99c-0.344-0.262-0.835-0.349-1.278-0.396
		c-0.067-0.014-0.269,0.586-0.296,0.915c-0.041,0.74-0.006,1.486-0.006,2.28c-0.412,0-0.728,0-1.104,0c0-2.442,0-4.855,0-7.446
		c1.048,0.075,2.071,0.089,3.073,0.243c0.712,0.114,1.23,0.592,1.358,1.365c0.129,0.813-0.115,1.473-0.854,1.91
		c-0.127,0.067-0.249,0.141-0.437,0.235C971.607,315.247,971.318,316.733,971.701,318.058z M968.111,311.233
		c0,0.948-0.014,1.687,0.013,2.42c0,0.148,0.202,0.432,0.235,0.424c0.585-0.188,1.312-0.269,1.701-0.658
		c0.49-0.49,0.438-1.299-0.194-1.716C969.42,311.415,968.795,311.401,968.111,311.233z"/>
	<path fill-rule="evenodd" clip-rule="evenodd" fill="#FFFFFF" d="M962.676,318.005c-0.774,0.229-1.278,0.161-1.434-0.707
		c-0.08-0.47-0.262-1.217-0.552-1.305c-0.685-0.202-1.52-0.242-2.198-0.034c-0.35,0.115-0.559,0.882-0.7,1.386
		c-0.168,0.626-0.423,0.941-1.203,0.653c0.297-0.929,0.592-1.857,0.901-2.778c0.45-1.358,0.88-2.724,1.386-4.056
		c0.086-0.229,0.463-0.45,0.72-0.483c0.241-0.021,0.665,0.168,0.731,0.356C961.136,313.344,961.902,315.671,962.676,318.005z
		 M960.611,315.193c-0.356-1.156-0.673-2.198-1.076-3.51c-0.41,1.338-0.727,2.394-1.063,3.51
		C959.219,315.193,959.837,315.193,960.611,315.193z"/>
	<path fill-rule="evenodd" clip-rule="evenodd" fill="#FFFFFF" d="M985.522,314.561c0,0.989,0,1.829,0,2.711
		c0.935,0.073,1.849,0.142,2.758,0.234c0.02,0,0,0.33,0,0.552c-1.313,0-2.589,0-3.914,0c0-2.441,0-4.855,0-7.263
		c1.735-0.404,3.61-0.189,3.819,0.551c-0.457,0-0.867,0-1.291,0c-0.43,0-0.861,0-1.345,0c0,0.882,0,1.675,0,2.57
		c0.665,0,1.283-0.027,1.896,0.02c0.215,0.014,0.417,0.222,0.625,0.344c-0.201,0.094-0.396,0.255-0.599,0.269
		C986.861,314.588,986.243,314.561,985.522,314.561z"/>
	<path fill-rule="evenodd" clip-rule="evenodd" fill="#FFFFFF" d="M948.647,310.606c0.968,0.062,1.87,0.068,2.75,0.189
		c1.063,0.141,1.587,0.787,1.622,1.85c0.033,1.063-0.552,1.843-1.547,2.051c-0.525,0.101-1.057,0.127-1.676,0.202
		c0,1.035,0,2.051,0,3.154c-0.43,0.02-0.76,0.04-1.149,0.06C948.647,315.637,948.647,313.216,948.647,310.606z M949.791,314.413
		c0.76-0.35,1.5-0.477,1.802-0.899c0.256-0.37,0.234-1.259-0.047-1.608c-0.323-0.403-1.063-0.471-1.755-0.733
		C949.791,312.321,949.791,313.176,949.791,314.413z"/>
	<path fill-rule="evenodd" clip-rule="evenodd" fill="#FFFFFF" d="M1005.12,310.761c2.132-0.37,3.719-0.155,3.794,0.564
		c-0.842,0-1.669,0-2.684,0c0,0.768-0.033,1.467,0.033,2.159c0.014,0.155,0.35,0.383,0.559,0.41c0.491,0.062,0.995,0,1.493,0.041
		c0.168,0.014,0.315,0.195,0.47,0.302c-0.147,0.108-0.296,0.297-0.456,0.304c-0.646,0.04-1.299,0.02-2.025,0.02
		c0,0.962,0,1.843,0,2.791c0.76,0,1.474-0.027,2.186,0.021c0.203,0.013,0.39,0.234,0.585,0.368c-0.2,0.122-0.403,0.337-0.611,0.351
		c-1.089,0.026-2.18,0.013-3.343,0.013C1005.12,315.645,1005.12,313.236,1005.12,310.761z"/>
	<path fill-rule="evenodd" clip-rule="evenodd" fill="#FFFFFF" d="M940.159,318.105c0-2.521,0-4.915,0-7.444
		c1.197,0,2.374-0.02,3.537,0.021c0.148,0.007,0.276,0.323,0.545,0.665c-1.116,0-1.977,0-2.905,0c0,0.868,0,1.655,0,2.576
		c0.721,0,1.393-0.027,2.072,0.014c0.154,0.007,0.302,0.202,0.457,0.309c-0.155,0.102-0.296,0.29-0.457,0.304
		c-0.674,0.033-1.352,0.013-2.085,0.013c0,0.976,0,1.829,0,2.758c0.895,0,1.762,0,2.623,0c0.061,0.081,0.127,0.161,0.195,0.241
		c-0.175,0.182-0.344,0.512-0.532,0.519C942.493,318.125,941.375,318.105,940.159,318.105z"/>
	<path fill-rule="evenodd" clip-rule="evenodd" fill="#FFFFFF" d="M916.903,314.568c0,0.982,0,1.815,0,2.657
		c0.935,0.12,1.849,0.229,2.764,0.363c0.021,0.007,0,0.275,0,0.47c-1.318,0-2.582,0-3.887,0c0-2.468,0-4.882,0-7.29
		c2.044-0.377,3.712-0.162,3.807,0.571c-0.868,0-1.735,0-2.657,0c0,0.875,0,1.669,0,2.577c0.49,0,0.949-0.035,1.398,0.013
		c0.391,0.04,0.768,0.188,1.144,0.296c-0.37,0.107-0.72,0.276-1.09,0.323C917.924,314.608,917.461,314.568,916.903,314.568z"/>
	<path fill-rule="evenodd" clip-rule="evenodd" fill="#FFFFFF" d="M1027.677,311.326c-0.519,0-1.043,0-1.688,0
		c0,2.274,0,4.473,0,6.72c-0.45,0-0.78,0-1.217,0c0-2.192,0-4.393,0-6.651c-0.625-0.028-1.144-0.055-1.662-0.074
		c-0.053-0.074-0.113-0.148-0.168-0.216c0.188-0.154,0.377-0.43,0.571-0.43c1.245-0.04,2.496-0.04,3.747,0
		c0.182,0,0.362,0.275,0.544,0.424C1027.764,311.171,1027.717,311.252,1027.677,311.326z"/>
	<path fill-rule="evenodd" clip-rule="evenodd" fill="#FFFFFF" d="M978.407,318.058c-0.443,0-0.747,0-1.184,0
		c0-2.185,0-4.385,0-6.664c-0.667-0.028-1.21-0.055-1.755-0.081c-0.049-0.08-0.096-0.169-0.142-0.249
		c0.194-0.135,0.39-0.376,0.598-0.396c2.402-0.257,3.996-0.04,4.204,0.646c-0.565,0-1.104,0-1.722,0
		C978.407,313.6,978.407,315.772,978.407,318.058z"/>
	<path fill-rule="evenodd" clip-rule="evenodd" fill="#FFFFFF" d="M907.662,318.058c0-2.165,0-4.257,0-6.349
		c0-0.309,0-0.611,0-0.988c0.391,0,0.714,0,1.13,0c0,2.186,0,4.358,0,6.551c0.982,0.073,1.869,0.135,2.758,0.229
		c0.013,0,0,0.336,0,0.558C910.279,318.058,909.041,318.058,907.662,318.058z"/>
	<path fill-rule="evenodd" clip-rule="evenodd" fill="#FFFFFF" d="M1017.891,283.82c0.014,0.908-0.72,1.646-1.647,1.66
		c-0.955,0.008-1.647-0.679-1.661-1.62c-0.007-0.948,0.687-1.66,1.622-1.669C1017.118,282.178,1017.877,282.912,1017.891,283.82z"/>
	<path fill-rule="evenodd" clip-rule="evenodd" fill="#FFFFFF" d="M983.605,285.48c-0.955,0.008-1.647-0.672-1.654-1.62
		c-0.014-0.948,0.673-1.66,1.615-1.669c0.913-0.013,1.68,0.721,1.687,1.629C985.266,284.728,984.534,285.466,983.605,285.48z"/>
	<path fill-rule="evenodd" clip-rule="evenodd" fill="#FFFFFF" d="M938.532,283.301c-1.285-2.186-1.258-1.372,0.37-3.416
		C940.186,281.216,940.166,281.432,938.532,283.301z"/>
	<path fill-rule="evenodd" clip-rule="evenodd" fill="#FFFFFF" d="M941.154,277.451c1.238,1.58,1.211,1.809-0.423,3.511
		c-0.323-0.586-0.632-1.15-0.969-1.756C940.232,278.621,940.691,278.042,941.154,277.451z"/>
	<path fill-rule="evenodd" clip-rule="evenodd" fill="#FFFFFF" d="M942.87,279.851c1.196,2.092,1.278,1.352-0.384,3.384
		C941.208,282.011,941.262,281.486,942.87,279.851z"/>
</g>
</svg>
