<?xml version="1.0" encoding="utf-8"?>
<!-- Generator: Adobe Illustrator 16.0.0, SVG Export Plug-In . SVG Version: 6.00 Build 0)  -->
<!DOCTYPE svg PUBLIC "-//W3C//DTD SVG 1.1//EN" "http://www.w3.org/Graphics/SVG/1.1/DTD/svg11.dtd">
<svg version="1.1" id="Calque_1" xmlns="http://www.w3.org/2000/svg" xmlns:xlink="http://www.w3.org/1999/xlink" x="0px" y="0px"
	 width="631.468px" height="722.222px" viewBox="0 0 631.468 722.222" enable-background="new 0 0 631.468 722.222"
	 xml:space="preserve">
<g>
	<polygon fill="#FFFFFF" points="1435.812,25.83 1432.713,25.83 1432.713,22.735 1432.713,19.636 1429.618,19.636 1429.618,16.54 
		1423.432,16.54 1423.432,13.443 1401.749,13.443 1401.749,16.54 1395.555,16.54 1395.555,19.636 1392.457,19.636 1392.457,22.735 
		1392.457,25.83 1389.361,25.83 1389.361,28.926 1389.361,32.023 1389.361,35.12 1389.361,38.219 1389.361,41.315 1389.361,44.422 
		1389.361,47.518 1389.361,50.616 1389.361,53.714 1389.361,56.812 1389.361,59.906 1392.457,59.906 1395.555,59.906 
		1395.555,63.004 1398.651,63.004 1401.749,63.004 1401.749,66.1 1404.823,66.1 1404.823,69.2 1420.333,69.2 1420.333,66.1 
		1423.42,66.1 1423.432,66.1 1423.432,63.004 1429.618,63.004 1429.618,59.906 1435.812,59.906 1435.821,59.906 1435.821,25.83 	"/>
	<polygon fill="#0C0C14" points="1395.555,56.803 1398.651,56.803 1398.651,56.803 1401.749,56.803 1401.749,53.714 
		1404.838,53.714 1404.838,50.616 1404.847,50.616 1407.936,50.616 1407.936,47.518 1404.847,47.518 1404.838,47.518 
		1404.838,47.511 1404.838,44.422 1404.823,44.422 1401.749,44.422 1401.749,44.422 1398.651,44.422 1398.651,44.422 
		1395.555,44.422 1395.555,47.511 1395.555,47.518 1392.457,47.518 1392.457,50.616 1392.457,50.616 1392.457,53.689 
		1392.457,53.714 1395.555,53.714 1395.555,56.803 	"/>
	<polygon fill="#0C0C14" points="1429.618,44.422 1426.52,44.422 1426.52,44.422 1423.432,44.422 1423.42,44.422 1420.324,44.422 
		1420.324,47.518 1420.324,47.518 1420.324,47.518 1417.235,47.518 1417.235,50.607 1417.235,50.616 1420.324,50.616 
		1420.324,50.607 1420.324,50.607 1420.324,50.616 1420.324,50.616 1420.324,53.714 1423.42,53.714 1423.42,56.803 1423.432,56.803 
		1426.52,56.803 1426.52,56.803 1429.618,56.803 1429.618,53.714 1429.625,53.714 1432.713,53.714 1432.713,53.704 1432.713,50.616 
		1432.713,50.607 1432.713,47.511 1429.625,47.511 1429.625,44.422 	"/>
	<polygon fill="#0C0C14" points="1411.041,53.704 1411.041,56.812 1407.936,56.812 1407.936,63.004 1417.235,63.004 
		1417.235,56.812 1414.139,56.812 1414.139,53.704 	"/>
</g>
<rect x="53.773" y="6.303" fill="#FFFFFF" width="153.341" height="707.728"/>
<rect x="431.228" y="6.303" fill="#FFFFFF" width="153.364" height="707.728"/>
</svg>
