<?xml version="1.0" encoding="utf-8"?>
<!-- Generator: Adobe Illustrator 16.0.0, SVG Export Plug-In . SVG Version: 6.00 Build 0)  -->
<!DOCTYPE svg PUBLIC "-//W3C//DTD SVG 1.1//EN" "http://www.w3.org/Graphics/SVG/1.1/DTD/svg11.dtd">
<svg version="1.1" id="Calque_1" xmlns="http://www.w3.org/2000/svg" xmlns:xlink="http://www.w3.org/1999/xlink" x="0px" y="0px"
	 width="142.593px" height="135.185px" viewBox="0 0 142.593 135.185" enable-background="new 0 0 142.593 135.185"
	 xml:space="preserve">
<g>
	<path fill-rule="evenodd" clip-rule="evenodd" fill="#FFFFFF" d="M27.555,121.194c-1.903,0-3.799-0.007-5.695,0.007
		c-0.674,0-1.419-0.087-1.533,0.901c-0.054,0.457,0.066,1.063-0.74,0.955c-0.572-0.081-1.063-0.29-1.292-0.882
		c-0.066-0.175-0.202-0.376-0.153-0.518c0.8-2.152-0.142-4.304,0.06-6.449c0.188-2.023,1.271-3.478,3.289-3.954
		c2.037-0.491,4.028-0.188,5.245,1.667c0.714,1.09,1.285,1.11,2.133,0.41c1.371-1.144,3.738-1.137,4.068-3.537
		c0.04-0.316,0.639-0.242,1.002-0.222c0.578,0.04,0.882,0.417,1.01,0.929c0.309,1.243-0.223,2.172-1.258,2.79
		c-1.474,0.882-2.953,1.749-4.493,2.516c-1.043,0.511-1.231,1.291-1.036,2.267c0.223,1.09,1.15,0.679,1.816,0.713
		c1.157,0.061,2.327,0.033,3.497,0.014c0.773-0.021,1.271,0.141,1.278,1.089c0.006,0.962-0.376,1.312-1.312,1.298
		c-1.957-0.033-3.922-0.006-5.886-0.006C27.555,121.181,27.555,121.187,27.555,121.194z"/>
	<path fill-rule="evenodd" clip-rule="evenodd" fill="#FFFFFF" d="M28.316,94.587c-1.661,0-3.315,0.021-4.977-0.013
		c-1.185-0.027-1.91-1.346-1.043-2.03c0.813-0.646,0.356-0.942,0.142-1.42c-1.688-3.732-0.155-6.18,3.9-6.194
		c2.334-0.014,4.668,0,6.994-0.007c0.82-0.007,1.426,0.075,1.434,1.15c0,1.13-0.673,1.104-1.453,1.097
		c-2.394-0.007-4.789,0.026-7.183,0c-1.527-0.014-2.28,0.658-2.247,2.212c0.027,2.052,0.693,2.934,2.327,2.939
		c2.146,0.021,4.292-0.048,6.438,0.034c0.813,0.026,2.158-0.639,2.097,1.13c-0.061,1.729-1.392,1.002-2.198,1.062
		c-1.405,0.108-2.819,0.034-4.23,0.034V94.587z"/>
	<path fill-rule="evenodd" clip-rule="evenodd" fill="#FFFFFF" d="M28.726,105.208c3.269,0.626,4.821-1.291,3.981-4.923
		c-0.182-0.753-0.935-1.594,0.531-1.95c1.419-0.343,1.311,0.733,1.514,1.493c1.485,5.683-2.28,9.16-8.454,7.828
		c-2.623-0.565-4.17-2.038-4.445-4.25c-0.512-3.941,2.784-6.443,6.786-5.152c-0.235,0.888,0.148,2.132-1.306,2.361
		c-0.854,0.182-1.64,0.483-2.219,1.17c-0.423,0.511-0.519,1.109-0.095,1.681c0.37,0.498,0.801,0.491,1.204,0.021
		c0.376-0.699,0.465-1.534,1.022-2.133c0.262-0.288,0.558-0.477,0.955-0.321c0.349,0.14,0.329,0.47,0.355,0.767
		C28.652,102.935,28.356,104.092,28.726,105.208z"/>
	<path fill-rule="evenodd" clip-rule="evenodd" fill="#FFFFFF" d="M28.706,65.06c2.287,0.767,3.969-0.242,4.157-2.509
		c0.073-0.978,0-1.95-0.363-2.892c-0.276-0.716-0.082-1.133,0.733-1.308c0.753-0.165,1.177,0.03,1.371,0.76
		c1.124,4.064,0.315,8.84-5.777,8.665c-1.291-0.043-2.575,0.007-3.807-0.483c-2.797-1.13-4.035-4.284-2.743-6.998
		c0.941-1.987,4.283-2.937,6.436-1.84c-0.322,0.639-0.182,1.319-0.134,1.957c0.094,1.157-0.498,1.161-1.318,0.942
		c-0.538-0.011-1.097-0.118-1.621,0.102c-0.646,0.262-0.989,0.759-0.841,1.438c0.162,0.727,0.532,1.268,1.412,0.793
		c0.377-0.41,0.479-0.979,0.821-1.409c0.255-0.326,0.457-0.76,0.982-0.574c0.483,0.168,0.517,0.605,0.543,1.042
		C28.619,63.52,28.383,64.311,28.706,65.06z"/>
	<path fill-rule="evenodd" clip-rule="evenodd" fill="#FFFFFF" d="M34.604,80.54c-0.249,0.35-0.631,0.315-0.995,0.315
		c-3.37,0.006-6.731-0.014-10.096,0.021c-1.425,0.014-1.889-0.72-1.156-1.79c0.538-0.8,0.31-1.25,0-1.943
		c-1.594-3.49-0.04-5.988,3.767-6.072c2.441-0.051,4.889,0.007,7.344-0.011c0.773,0,1.285,0.155,1.285,1.104
		c-0.008,0.915-0.471,1.152-1.265,1.14c-1.957-0.007-3.914-0.033-5.871,0.026c-1.225,0.041-2.805-0.515-3.457,0.962
		c-0.7,1.561-0.249,3.115,0.948,4.386c2.482,0.471,4.977,0.188,7.458,0.175C33.891,78.837,34.618,79.126,34.604,80.54z"/>
	<path fill-rule="evenodd" clip-rule="evenodd" fill="#FFFFFF" d="M35.028,52.477c-0.066,0.394-0.208,1.228-0.37,2.071
		c-0.155,0.841-0.646,1.11-1.467,0.854c-0.786-0.245-0.82-0.672-0.592-1.398c0.25-0.811,0.377-1.682,0.391-2.528
		c0.007-0.8-0.216-1.617-1.197-1.837c-0.948-0.211-1.526,0.327-1.903,1.086c-0.417,0.817-0.726,1.686-1.123,2.513
		c-0.666,1.372-1.647,2.263-3.295,2.165c-1.668-0.106-2.744-1.028-3.288-2.524c-0.512-1.416-0.418-2.883-0.169-4.361
		c0.127-0.771,0.551-0.821,1.164-0.771c0.698,0.058,0.962,0.353,0.86,1.079c-0.122,0.896-0.209,1.819-0.182,2.73
		c0.013,0.716,0.356,1.296,1.149,1.47c0.801,0.175,1.299-0.242,1.636-0.885c0.281-0.545,0.517-1.108,0.752-1.671
		c1.171-2.75,2.523-3.614,4.877-3.103C34.019,47.739,35.048,49.471,35.028,52.477z"/>
	<path fill-rule="evenodd" clip-rule="evenodd" fill="#FFFFFF" d="M49.844,75.906c-2.326-0.747-4.19-1.339-6.047-1.931
		c-0.646-0.208-1.372-0.343-1.318-1.258c0.062-0.979,0.882-0.905,1.514-0.962c2.139-0.211,4.277-0.373,6.416-0.521
		c0.551-0.033,1.373-0.343,1.42,0.629c0.053,0.922-0.773,0.562-1.23,0.616c-1.602,0.208-3.223,0.335-4.897,0.816
		c1.702,0.552,3.397,1.123,5.098,1.655c0.491,0.154,0.962,0.274,1.003,0.9c0.047,0.713-0.444,0.908-1.017,1.09
		c-1.66,0.518-3.322,1.063-4.962,1.997c1.54,0.161,3.073,0.336,4.613,0.465c1.022,0.093,1.634,0.531,1.473,1.634
		c-0.074,0.511-0.592,0.888-0.907,0.511c-1.474-1.734-3.539-0.874-5.287-1.325c-0.705-0.182-1.459-0.168-2.186-0.274
		c-0.485-0.068-0.995-0.142-1.057-0.801c-0.047-0.68,0.31-1.003,0.908-1.191C45.364,77.331,47.349,76.699,49.844,75.906z"/>
	<path fill-rule="evenodd" clip-rule="evenodd" fill="#FFFFFF" d="M47.523,85.461c0.888-0.497,1.44,0.148,2.105,0.559
		c0.915,0.559,1.271-0.8,2.085-0.733c0.068,0.095,0.201,0.235,0.175,0.276c-0.88,1.379-0.464,2.684,0,4.109
		c0.384,1.156-0.04,2.441-1.29,2.925c-1.157,0.443-2.544,0.545-3.363-0.632c-0.626-0.901-1.211-0.922-2.139-0.687
		c-0.915,0.235-1.897,0.095-2.422-0.86c-0.572-1.057-0.625-2.206,0.397-2.993c0.94-0.726,1.938-0.464,2.784,0.41
		c0.928,0.941,2.172,0.774,2.777-0.403C49.211,86.296,47.538,86.336,47.523,85.461z"/>
	<path fill-rule="evenodd" clip-rule="evenodd" fill="#FFFFFF" d="M49.407,43.287c-0.551,0-1.103,0-1.647,0
		c-3.363,0-3.652-0.313-3.296-3.642c0.047-0.403,0.169-0.881,0.431-1.177c1.345-1.53,3.141-1.167,4.796-0.912
		c1.392,0.219,2.273,1.248,2.238,2.73c-0.02,1.101,0.162,1.759,1.48,1.598c0.483-0.071,1.224-0.158,1.137,0.73
		c-0.082,0.783-0.761,0.652-1.292,0.658c-1.285,0.014-2.562,0-3.847,0C49.407,43.28,49.407,43.28,49.407,43.287z"/>
	<path fill-rule="evenodd" clip-rule="evenodd" fill="#FFFFFF" d="M49.419,118.685c-1.964-0.598-3.947-1.163-5.891-1.809
		c-0.443-0.148-1.298-0.128-1.009-0.975c0.249-0.74,0.934-0.432,1.419-0.29c2.287,0.7,4.554,1.427,6.826,2.165
		c0.604,0.188,1.116,0.465,1.063,1.266c-0.047,0.72-0.532,0.847-1.084,1.021c-1.815,0.552-3.611,1.144-5.407,1.762
		c-0.559,0.195-1.25,0.222-1.613,0.76c-0.29,0.445-0.532,0.982-1.083,0.459c-0.497-0.479-0.464-1.177,0.055-1.636
		c0.39-0.35,0.939-0.558,1.451-0.72c1.749-0.557,3.504-1.062,5.26-1.587C49.407,118.962,49.413,118.827,49.419,118.685z"/>
	<path fill-rule="evenodd" clip-rule="evenodd" fill="#FFFFFF" d="M48.143,51.491c-2.389-0.006-3.659-1.079-3.68-3.089
		c-0.02-2.108,1.258-3.165,3.793-3.145c2.347,0.018,3.773,1.291,3.712,3.322C51.915,50.541,50.638,51.505,48.143,51.491z"/>
	<path fill-rule="evenodd" clip-rule="evenodd" fill="#FFFFFF" d="M48.163,29.593c2.488,0.007,3.848,1.168,3.806,3.225
		c-0.054,2.001-1.304,2.96-3.825,2.937c-2.422-0.031-3.673-1.093-3.673-3.118C44.47,30.559,45.661,29.581,48.163,29.593z"/>
	<path fill-rule="evenodd" clip-rule="evenodd" fill="#FFFFFF" d="M48.384,99.27c0.337,0.53-0.693,2.017,1.016,1.828
		c1.331-0.148,1.46-1.271,1.305-2.394c-0.066-0.559-0.604-1.358,0.363-1.48c0.813-0.107,0.794,0.794,0.854,1.346
		c0.142,1.312,0.122,2.67-1.163,3.443c-1.587,0.942-3.289,0.881-4.93,0.094c-1.13-0.552-1.453-1.594-1.352-2.784
		c0.134-1.606,1.521-2.63,3.107-2.3C48.377,97.198,48.398,97.245,48.384,99.27z"/>
	<path fill-rule="evenodd" clip-rule="evenodd" fill="#FFFFFF" d="M48.365,65.703c0.39,0.665-0.7,2.156,0.921,2.052
		c1.412-0.088,1.588-1.285,1.412-2.506c-0.06-0.464-0.651-1.15,0.304-1.318c0.8-0.141,0.827,0.626,0.894,1.11
		c0.188,1.378,0.175,2.808-1.177,3.611c-1.58,0.942-3.302,0.841-4.923,0.054c-1.211-0.592-1.46-1.731-1.291-2.979
		c0.194-1.471,1.903-2.57,3.288-2.09C48.917,64.032,48.156,65.016,48.365,65.703z"/>
	<path fill-rule="evenodd" clip-rule="evenodd" fill="#FFFFFF" d="M51.956,59.303c-0.021,1.588-1.056,1.91-2.319,2.103
		c-1.434,0.211-2.967-0.543-4.365,0.611c-0.29,0.232-1.527-0.555-2.221-1.035c-0.315-0.213-0.354-0.864,0.311-0.915
		c0.786-0.058,1.312-0.246,1.224-1.174c-0.04-0.336,0.135-0.612,0.531-0.579c0.344,0.038,0.565,0.264,0.545,0.616
		c-0.047,1.292,0.922,1.197,1.648,1.049c1.162-0.251,2.797,0.928,3.456-1.019c0.147-0.434,0.29-0.901,0.821-0.732
		C52.09,58.382,51.895,58.951,51.956,59.303z"/>
	<path fill-rule="evenodd" clip-rule="evenodd" fill="#FFFFFF" d="M50.827,23.433c-1.567,1.174-3.235,0.962-4.869,0.276
		c-1.238-0.519-1.575-1.624-1.487-2.896c0.074-1.015,0.565-1.724,1.527-2.067c1.693-0.605,2.292-0.145,2.4,1.645
		c0.06,1.015-0.672,2.794,1.634,2.196C50.436,22.737,50.973,22.768,50.827,23.433z"/>
	<path fill-rule="evenodd" clip-rule="evenodd" fill="#FFFFFF" d="M46.778,26.302c1.345,0,2.684-0.014,4.021,0.007
		c0.411,0.007,0.935,0,0.935,0.599c0,0.592-0.496,0.604-0.927,0.604c-2.738,0.007-5.476,0-8.219-0.007
		c-0.424-0.006-0.929-0.013-0.942-0.592c-0.006-0.611,0.525-0.582,0.936-0.585c1.398-0.02,2.797-0.007,4.197-0.007
		C46.778,26.316,46.778,26.309,46.778,26.302z"/>
	<path fill-rule="evenodd" clip-rule="evenodd" fill="#FFFFFF" d="M46.811,108.538c1.278,0,2.562-0.021,3.84,0.007
		c0.45,0.006,1.082-0.155,1.069,0.604c-0.007,0.605-0.545,0.579-0.955,0.579c-2.744,0.006-5.487,0.006-8.231,0
		c-0.432-0.007-0.922-0.047-0.901-0.653c0.033-0.619,0.564-0.537,0.968-0.537C44.005,108.524,45.406,108.531,46.811,108.538z"/>
	<path fill-rule="evenodd" clip-rule="evenodd" fill="#FFFFFF" d="M46.589,105.96c-1.346,0-2.69,0.007-4.036-0.007
		c-0.43,0-0.935-0.013-0.921-0.618c0.02-0.599,0.531-0.599,0.948-0.599c2.757-0.013,5.509-0.013,8.266,0
		c0.437,0,0.894,0.094,0.9,0.659c0,0.666-0.551,0.552-0.94,0.558C49.4,105.974,47.995,105.96,46.589,105.96z"/>
	<path fill-rule="evenodd" clip-rule="evenodd" fill="#FFFFFF" d="M47.927,56.244c-0.37,0-0.739,0.027-1.103-0.013
		c-0.707-0.062-1.897,0.319-2.032-0.217c-0.222-0.9-0.08-1.937-0.275-2.908c-0.047-0.199,0.115-0.474,0.45-0.447
		c0.323,0.03,0.68,0.11,0.7,0.461c0.135,2.256,1.788,1.809,3.229,1.933c0.948,0.088,2.717-0.567,2.683,0.525
		c-0.04,1.345-1.775,0.383-2.737,0.653C48.553,56.311,48.229,56.244,47.927,56.244z"/>
	<path fill-rule="evenodd" clip-rule="evenodd" fill="#FFFFFF" d="M48.169,112.303c0.915,0,1.822-0.007,2.737,0
		c0.463,0.007,0.848,0.148,0.875,0.7c0.026,0.604-0.412,0.672-0.855,0.678c-1.815,0.007-3.646,0.007-5.467,0.007
		c-0.443,0-0.849-0.066-0.849-0.665c-0.005-0.585,0.363-0.713,0.828-0.72C46.347,112.29,47.261,112.303,48.169,112.303
		L48.169,112.303z"/>
	<path fill-rule="evenodd" clip-rule="evenodd" fill="#FFFFFF" d="M27.219,100.164c0.928-0.296,0.619-1.527,1.42-1.91
		c0.274,2.313,0.106,4.641,0.087,6.954c-0.666-1.069-0.094-2.388-0.619-3.659c-1.002,1.05,0.108,2.408-0.78,3.297
		C26.104,103.534,26.057,101.792,27.219,100.164z"/>
	<path fill-rule="evenodd" clip-rule="evenodd" fill="#FFFFFF" d="M50.827,23.433c-0.271-0.279-0.532-0.562-0.795-0.847
		c0.666-0.787,0.922-1.672,0.6-2.68c-0.148-0.475-0.316-1.02,0.383-1.157c0.699-0.128,0.768,0.53,0.827,0.947
		C52.05,21.077,52.238,22.485,50.827,23.433z"/>
	<path fill-rule="evenodd" clip-rule="evenodd" fill="#FFFFFF" d="M27.327,60.659c0.532,0.218,1.044,0.403,1.035-0.508
		c0-0.585,0.021-1.17,0.351-1.695c-0.007,2.203-0.007,4.401-0.007,6.604c-0.201-0.904-0.403-1.802-0.646-2.854
		c-0.901,1.053,0.142,2.351-0.819,3.171C26.057,63.749,26.097,61.994,27.327,60.659z"/>
	<path fill-rule="evenodd" clip-rule="evenodd" fill="#FFFFFF" d="M34.604,80.54c-0.39-1.164-1.197-1.514-2.401-1.494
		c-2.447,0.067-4.896-0.006-7.351-0.02c-0.04,0-0.087-0.067-0.127-0.095c0.127-0.08,0.262-0.167,0.383-0.255
		c2.643-0.021,5.286,0.013,7.908-0.087C34.578,78.514,35.028,79.113,34.604,80.54z"/>
	<path fill-rule="evenodd" clip-rule="evenodd" fill="#FFFFFF" d="M41.821,64.828c0.229,0.077,0.484,0.115,0.666,0.239
		c0.563,0.381,1.459,0.512,1.297,1.482c-0.066,0.418-0.437,0.351-0.698,0.188C42.385,66.312,41.189,66.214,41.821,64.828z"/>
	<path fill-rule="evenodd" clip-rule="evenodd" fill="#FFFFFF" d="M43.347,112.888c-0.021,0.463-0.208,0.74-0.632,0.787
		c-0.498,0.061-0.842-0.155-0.868-0.672c-0.026-0.397,0.161-0.7,0.605-0.761C42.97,112.181,43.206,112.492,43.347,112.888z"/>
	<path fill-rule="evenodd" clip-rule="evenodd" fill="#FFFFFF" d="M116.049,104.69c0.04-0.854-0.443-0.988-1.15-0.988
		c-1.842,0.021-3.679,0.021-5.521,0c-2.078-0.013-3.76-0.773-5.071-2.469c-1.957-2.535-3.221-5.488-4.963-8.144
		c-2.785-4.964-5.528-9.941-8.36-14.87c-0.686-1.19-0.705-1.716,0.713-2.354c4.541-2.025,8.098-5.206,10.484-9.629
		c2.638-4.264,4.01-8.92,4.291-13.915c0.062-0.208,0.102-0.43,0.135-0.655c0.465-2.633,0.222-5.293,0.108-7.943
		c0.026-0.437,0.047-0.866-0.229-1.247c-0.114-2.334-0.693-4.576-1.245-6.826c-1.526-5.128-4.344-9.409-8.359-12.933
		c-1.123-1.234-2.535-2.115-3.969-2.919c-7.874-4.433-16.328-5.257-25.1-3.877c-3.14,0.49-6.227,1.19-8.869,3.13
		C58.903,24.2,58.875,29.352,58.809,34.5c-0.007,1,0.39,1.035,1.243,0.869c1.622-0.314,3.269-0.539,4.917-0.66
		c5.18-0.399,10.33-0.545,14.803,2.812c1.682,1.842,2.798,3.965,3.222,6.446c0.457,2.724,0.498,5.457,0.323,8.205
		c-0.04,0.365-0.088,0.729-0.129,1.093c-0.76,7.169-4.492,11.339-11.138,12.463c-0.833,0.138-1.729-0.044-2.515,0.405
		c-3.06-0.013-6.119,0.018-9.187-0.07c-1.245-0.04-1.554,0.465-1.54,1.604c0.04,4.718,0.04,9.442-0.021,14.156
		c-0.013,1.245,0.309,1.742,1.641,1.695c2.389-0.101,4.789,0.088,7.169-0.066c1.48-0.095,2.16,0.49,2.772,1.734
		c1.385,2.784,2.925,5.501,4.397,8.252c3.288,6.632,6.672,13.202,10.33,19.632c1.454,2.562,3.061,5.037,5.279,7.021
		c5.031,4.527,10.99,4.951,17.245,3.673c4.667-0.94,7.263-3.968,8.097-8.615C116.352,111.678,115.908,108.181,116.049,104.69z"/>
	<path fill-rule="evenodd" clip-rule="evenodd" fill="#0C0C14" d="M23.4,118.8c-3.162,0-3.235-0.062-3.222-2.214
		c0.02-2.017,0.935-2.979,2.878-2.992c2.139-0.02,2.973,1.029,3.141,3.369C26.392,119.674,24.449,118.543,23.4,118.8z"/>
	<path fill-rule="evenodd" clip-rule="evenodd" fill="#0C0C14" d="M27.219,100.164c0.034,1.56,0.074,3.12,0.107,4.682
		c-0.753,1.177-1.62,0.302-2.359,0.054c-1.051-0.356-1.399-1.278-1.365-2.348c0.033-1.029,0.531-1.729,1.451-2.132
		C25.747,100.124,26.473,100.117,27.219,100.164z"/>
	<path fill-rule="evenodd" clip-rule="evenodd" fill="#0C0C14" d="M27.327,60.659c-0.033,1.577-0.06,3.147-0.086,4.718
		c-1.219,0.04-2.375-0.179-3.143-1.184c-0.731-0.966-0.807-2.125-0.006-3.06C24.967,60.127,26.104,59.808,27.327,60.659z"/>
	<path fill-rule="evenodd" clip-rule="evenodd" fill="#0C0C14" d="M50.813,90.042c0.106,1.137-0.62,1.472-1.54,1.547
		c-0.922,0.08-1.474-0.465-1.776-1.259c-0.114-0.288,2.038-2.179,2.361-2.063C50.658,88.576,50.751,89.315,50.813,90.042z"/>
	<path fill-rule="evenodd" clip-rule="evenodd" fill="#0C0C14" d="M45.627,89.355c0,0.674-0.498,0.761-0.976,0.808
		c-0.659,0.067-1.218-0.107-1.338-0.86c-0.108-0.646,0.208-1.049,0.867-1.077C44.954,88.192,45.344,88.724,45.627,89.355z"/>
	<path fill-rule="evenodd" clip-rule="evenodd" fill="#0C0C14" d="M48.29,41.898c-1.062-0.209-2.568,0.558-2.643-1.372
		c-0.066-1.698,1.237-1.796,2.381-1.778c1.238,0.022,2.75,0.007,2.765,1.859C50.813,42.665,49.138,41.542,48.29,41.898z"/>
	<path fill-rule="evenodd" clip-rule="evenodd" fill="#0C0C14" d="M48.156,50.113c-1.116-0.185-2.562-0.01-2.502-1.731
		c0.067-1.759,1.474-1.702,2.718-1.695c1.223,0,2.488,0.18,2.406,1.807C50.698,50.164,49.28,49.965,48.156,50.113z"/>
	<path fill-rule="evenodd" clip-rule="evenodd" fill="#0C0C14" d="M48.318,34.5c-1.157-0.19-2.617-0.053-2.671-1.795
		c-0.046-1.638,1.291-1.762,2.447-1.804c1.232-0.029,2.617,0.108,2.69,1.767C50.86,34.309,49.481,34.302,48.318,34.5z"/>
	<path fill-rule="evenodd" clip-rule="evenodd" fill="#0C0C14" d="M47.551,99.74c-0.209,0.471,0.376,1.398-0.693,1.358
		c-0.82-0.033-1.365-0.552-1.372-1.425c-0.007-0.794,0.443-1.292,1.217-1.358C47.879,98.213,47.389,99.181,47.551,99.74z"/>
	<path fill-rule="evenodd" clip-rule="evenodd" fill="#0C0C14" d="M47.618,66.19c-0.344,0.552,0.424,1.574-0.793,1.527
		c-0.834-0.034-1.332-0.545-1.353-1.405c-0.013-0.902,0.572-1.325,1.365-1.376C47.927,64.865,47.288,65.82,47.618,66.19z"/>
	<path fill-rule="evenodd" clip-rule="evenodd" fill="#0C0C14" d="M47.604,21.139c-0.289,0.579,0.377,1.602-0.833,1.521
		c-0.828-0.057-1.346-0.608-1.325-1.463c0.014-0.86,0.545-1.354,1.398-1.361C47.948,19.829,47.261,20.771,47.604,21.139z"/>
</g>
</svg>
