<?xml version="1.0" encoding="utf-8"?>
<!-- Generator: Adobe Illustrator 16.0.0, SVG Export Plug-In . SVG Version: 6.00 Build 0)  -->
<!DOCTYPE svg PUBLIC "-//W3C//DTD SVG 1.1//EN" "http://www.w3.org/Graphics/SVG/1.1/DTD/svg11.dtd">
<svg version="1.1" id="Calque_1" xmlns="http://www.w3.org/2000/svg" xmlns:xlink="http://www.w3.org/1999/xlink" x="0px" y="0px"
	 width="631.468px" height="722.222px" viewBox="0 0 631.468 722.222" enable-background="new 0 0 631.468 722.222"
	 xml:space="preserve">
<g>
	<polygon fill="#FFFFFF" points="1435.812,25.83 1432.713,25.83 1432.713,22.735 1432.713,19.636 1429.618,19.636 1429.618,16.54 
		1423.432,16.54 1423.432,13.443 1401.749,13.443 1401.749,16.54 1395.555,16.54 1395.555,19.636 1392.457,19.636 1392.457,22.735 
		1392.457,25.83 1389.361,25.83 1389.361,28.926 1389.361,32.023 1389.361,35.12 1389.361,38.219 1389.361,41.315 1389.361,44.422 
		1389.361,47.518 1389.361,50.616 1389.361,53.714 1389.361,56.812 1389.361,59.906 1392.457,59.906 1395.555,59.906 
		1395.555,63.004 1398.651,63.004 1401.749,63.004 1401.749,66.1 1404.823,66.1 1404.823,69.2 1420.333,69.2 1420.333,66.1 
		1423.42,66.1 1423.432,66.1 1423.432,63.004 1429.618,63.004 1429.618,59.906 1435.812,59.906 1435.821,59.906 1435.821,25.83 	"/>
	<polygon fill="#0C0C14" points="1395.555,56.803 1398.651,56.803 1398.651,56.803 1401.749,56.803 1401.749,53.714 
		1404.838,53.714 1404.838,50.616 1404.847,50.616 1407.936,50.616 1407.936,47.518 1404.847,47.518 1404.838,47.518 
		1404.838,47.511 1404.838,44.422 1404.823,44.422 1401.749,44.422 1401.749,44.422 1398.651,44.422 1398.651,44.422 
		1395.555,44.422 1395.555,47.511 1395.555,47.518 1392.457,47.518 1392.457,50.616 1392.457,50.616 1392.457,53.689 
		1392.457,53.714 1395.555,53.714 1395.555,56.803 	"/>
	<polygon fill="#0C0C14" points="1429.618,44.422 1426.52,44.422 1426.52,44.422 1423.432,44.422 1423.42,44.422 1420.324,44.422 
		1420.324,47.518 1420.324,47.518 1420.324,47.518 1417.235,47.518 1417.235,50.607 1417.235,50.616 1420.324,50.616 
		1420.324,50.607 1420.324,50.607 1420.324,50.616 1420.324,50.616 1420.324,53.714 1423.42,53.714 1423.42,56.803 1423.432,56.803 
		1426.52,56.803 1426.52,56.803 1429.618,56.803 1429.618,53.714 1429.625,53.714 1432.713,53.714 1432.713,53.704 1432.713,50.616 
		1432.713,50.607 1432.713,47.511 1429.625,47.511 1429.625,44.422 	"/>
	<polygon fill="#0C0C14" points="1411.041,53.704 1411.041,56.812 1407.936,56.812 1407.936,63.004 1417.235,63.004 
		1417.235,56.812 1414.139,56.812 1414.139,53.704 	"/>
</g>
<g>
	<polygon fill="#0C0C14" points="608.931,184.723 574.244,184.723 574.244,115.506 539.623,115.506 539.623,80.898 505.073,80.898 
		505.073,46.296 435.896,46.296 435.896,11.708 193.703,11.708 193.703,46.29 124.531,46.29 124.531,80.898 89.942,80.898 
		89.942,115.506 55.354,115.506 55.354,184.723 20.719,184.723 20.719,565.402 55.354,565.402 55.354,600.009 124.531,600.009 
		124.531,634.604 193.695,634.604 193.695,703.763 435.883,703.763 435.883,634.604 505.042,634.604 505.042,600.009 
		574.206,600.009 574.206,565.402 608.931,565.402 	"/>
	<g>
		<polygon fill="#FFFFFF" points="124.563,530.753 159.113,530.753 159.132,530.753 193.715,530.753 193.715,496.186 
			228.291,496.186 228.291,461.598 228.291,461.598 262.88,461.598 262.88,426.988 228.291,426.988 228.291,426.988 228.291,426.93 
			228.291,392.399 228.116,392.399 193.715,392.399 193.703,392.399 159.132,392.399 159.126,392.399 124.538,392.399 
			124.538,426.93 124.538,426.988 89.955,426.988 89.955,461.569 89.955,461.598 89.955,495.977 89.955,496.179 124.531,496.179 
			124.531,530.753 		"/>
		<polygon fill="#FFFFFF" points="505.06,392.367 470.492,392.367 470.471,392.367 435.902,392.367 435.883,392.367 401.3,392.367 
			401.3,426.974 401.3,426.988 401.293,426.988 366.705,426.988 366.705,461.564 366.705,461.598 401.293,461.598 401.293,461.564 
			401.3,461.564 401.3,461.583 401.3,461.598 401.3,496.186 435.836,496.186 435.836,530.753 435.902,530.753 470.484,530.753 
			470.492,530.753 505.073,530.753 505.073,496.186 505.118,496.186 539.623,496.186 539.623,496.12 539.623,461.583 
			539.623,461.537 539.623,426.93 505.118,426.93 505.118,392.367 		"/>
		<polygon fill="#FFFFFF" points="297.547,496.139 297.547,530.8 262.886,530.8 262.886,599.997 366.725,599.997 366.725,530.8 
			332.135,530.8 332.135,496.139 		"/>
		<polygon fill="#FFFFFF" points="89.942,150.115 89.942,115.506 124.531,115.506 124.531,80.898 89.942,80.898 89.942,115.506 
			55.354,115.506 55.354,150.115 55.354,184.716 89.942,184.716 		"/>
		<polygon fill="#FFFFFF" points="20.719,219.331 20.719,253.934 20.719,288.542 20.719,323.15 20.719,357.758 20.719,392.367 
			20.719,426.969 20.719,461.576 20.719,496.186 20.719,530.793 20.719,565.402 55.308,565.402 55.308,530.793 55.308,496.186 
			55.308,461.576 55.308,426.969 55.308,392.367 55.308,357.758 55.308,323.15 55.308,288.542 55.308,253.934 55.308,219.331 
			55.308,184.723 20.719,184.723 		"/>
		<polygon fill="#FFFFFF" points="539.656,80.905 505.073,80.905 505.073,115.506 539.656,115.506 539.656,150.115 539.656,184.716 
			574.244,184.716 574.244,150.115 574.244,115.506 539.656,115.506 		"/>
		<polygon fill="#FFFFFF" points="159.113,599.997 159.113,599.997 124.531,599.997 124.531,634.604 159.113,634.604 
			159.113,634.604 193.703,634.604 193.703,599.997 		"/>
		<polygon fill="#FFFFFF" points="89.936,565.402 55.354,565.402 55.354,600.009 89.936,600.009 89.942,600.009 124.518,600.009 
			124.518,565.402 89.942,565.402 		"/>
		<polygon fill="#FFFFFF" points="505.042,599.983 435.896,599.983 435.896,634.593 505.06,634.593 505.06,600.009 574.206,600.009 
			574.206,565.402 505.042,565.402 		"/>
		<rect x="574.291" y="184.71" fill="#FFFFFF" width="34.641" height="380.692"/>
		<polygon fill="#FFFFFF" points="401.3,669.192 228.057,669.192 228.057,634.604 193.703,634.604 193.703,681.506 193.703,681.506 
			193.703,703.763 435.883,703.763 435.883,679.284 435.883,669.192 435.883,634.593 401.3,634.593 		"/>
		<polygon fill="#FFFFFF" points="435.896,11.708 193.703,11.708 193.703,46.29 435.896,46.296 		"/>
		<rect x="435.896" y="46.296" fill="#FFFFFF" width="69.177" height="34.608"/>
		<rect x="124.531" y="46.29" fill="#FFFFFF" width="69.171" height="34.608"/>
	</g>
</g>
</svg>
