<?xml version="1.0" encoding="utf-8"?>
<!-- Generator: Adobe Illustrator 16.0.0, SVG Export Plug-In . SVG Version: 6.00 Build 0)  -->
<!DOCTYPE svg PUBLIC "-//W3C//DTD SVG 1.1//EN" "http://www.w3.org/Graphics/SVG/1.1/DTD/svg11.dtd">
<svg version="1.1" id="Calque_1" xmlns="http://www.w3.org/2000/svg" xmlns:xlink="http://www.w3.org/1999/xlink" x="0px" y="0px"
	 width="631.468px" height="722.222px" viewBox="0 0 631.468 722.222" enable-background="new 0 0 631.468 722.222"
	 xml:space="preserve">
<g>
	<polygon fill="#FFFFFF" points="1435.812,25.83 1432.713,25.83 1432.713,22.735 1432.713,19.636 1429.618,19.636 1429.618,16.54 
		1423.432,16.54 1423.432,13.443 1401.749,13.443 1401.749,16.54 1395.555,16.54 1395.555,19.636 1392.457,19.636 1392.457,22.735 
		1392.457,25.83 1389.361,25.83 1389.361,28.926 1389.361,32.023 1389.361,35.12 1389.361,38.219 1389.361,41.315 1389.361,44.422 
		1389.361,47.518 1389.361,50.616 1389.361,53.714 1389.361,56.812 1389.361,59.906 1392.457,59.906 1395.555,59.906 
		1395.555,63.004 1398.651,63.004 1401.749,63.004 1401.749,66.1 1404.823,66.1 1404.823,69.2 1420.333,69.2 1420.333,66.1 
		1423.42,66.1 1423.432,66.1 1423.432,63.004 1429.618,63.004 1429.618,59.906 1435.812,59.906 1435.821,59.906 1435.821,25.83 	"/>
	<polygon fill="#0C0C14" points="1395.555,56.803 1398.651,56.803 1398.651,56.803 1401.749,56.803 1401.749,53.714 
		1404.838,53.714 1404.838,50.616 1404.847,50.616 1407.936,50.616 1407.936,47.518 1404.847,47.518 1404.838,47.518 
		1404.838,47.511 1404.838,44.422 1404.823,44.422 1401.749,44.422 1401.749,44.422 1398.651,44.422 1398.651,44.422 
		1395.555,44.422 1395.555,47.511 1395.555,47.518 1392.457,47.518 1392.457,50.616 1392.457,50.616 1392.457,53.689 
		1392.457,53.714 1395.555,53.714 1395.555,56.803 	"/>
	<polygon fill="#0C0C14" points="1429.618,44.422 1426.52,44.422 1426.52,44.422 1423.432,44.422 1423.42,44.422 1420.324,44.422 
		1420.324,47.518 1420.324,47.518 1420.324,47.518 1417.235,47.518 1417.235,50.607 1417.235,50.616 1420.324,50.616 
		1420.324,50.607 1420.324,50.607 1420.324,50.616 1420.324,50.616 1420.324,53.714 1423.42,53.714 1423.42,56.803 1423.432,56.803 
		1426.52,56.803 1426.52,56.803 1429.618,56.803 1429.618,53.714 1429.625,53.714 1432.713,53.714 1432.713,53.704 1432.713,50.616 
		1432.713,50.607 1432.713,47.511 1429.625,47.511 1429.625,44.422 	"/>
	<polygon fill="#0C0C14" points="1411.041,53.704 1411.041,56.812 1407.936,56.812 1407.936,63.004 1417.235,63.004 
		1417.235,56.812 1414.139,56.812 1414.139,53.704 	"/>
</g>
<g>
	<polygon fill="#FFFFFF" points="610.174,164.589 571.38,164.589 571.38,125.813 571.38,87.001 532.586,87.001 532.586,48.208 
		455.072,48.208 455.072,9.396 183.398,9.396 183.398,48.208 105.774,48.208 105.774,87.001 66.981,87.001 66.981,125.813 
		66.981,164.589 28.169,164.589 28.169,203.401 28.169,242.213 28.169,281.024 28.169,319.836 28.169,358.648 28.169,397.569 
		28.169,436.362 28.169,475.175 28.169,513.986 28.169,552.798 28.169,591.574 66.981,591.574 105.774,591.574 105.774,630.386 
		144.586,630.386 183.398,630.386 183.398,669.197 221.901,669.197 221.901,708.01 416.242,708.01 416.242,669.197 454.963,669.197 
		455.072,669.197 455.072,630.386 532.586,630.386 532.586,591.574 610.174,591.574 610.283,591.574 610.283,164.589 	"/>
	<polygon fill="#0C0C14" points="105.774,552.689 144.586,552.689 144.586,552.689 183.398,552.689 183.398,513.986 
		222.101,513.986 222.101,475.175 222.21,475.175 260.913,475.175 260.913,436.362 222.21,436.362 222.101,436.362 222.101,436.254 
		222.101,397.569 221.901,397.569 183.398,397.569 183.398,397.569 144.586,397.569 144.586,397.569 105.774,397.569 
		105.774,436.254 105.774,436.362 66.981,436.362 66.981,475.175 66.981,475.175 66.981,513.678 66.981,513.986 105.774,513.986 
		105.774,552.689 	"/>
	<polygon fill="#0C0C14" points="532.586,397.569 493.756,397.569 493.756,397.569 455.072,397.569 454.963,397.569 
		416.133,397.569 416.133,436.362 416.133,436.362 416.133,436.362 377.449,436.362 377.449,475.065 377.449,475.175 
		416.133,475.175 416.133,475.065 416.133,475.065 416.133,475.175 416.133,475.175 416.133,513.986 454.963,513.986 
		454.963,552.689 455.072,552.689 493.756,552.689 493.756,552.689 532.586,552.689 532.586,513.986 532.696,513.986 
		571.38,513.986 571.38,513.878 571.38,475.175 571.38,475.065 571.38,436.254 532.696,436.254 532.696,397.569 	"/>
	<polygon fill="#0C0C14" points="299.833,513.878 299.833,552.798 260.913,552.798 260.913,630.386 377.449,630.386 
		377.449,552.798 338.627,552.798 338.627,513.878 	"/>
</g>
</svg>
